<svg version="1.1" id="Layer_1" xmlns="http://www.w3.org/2000/svg" xmlns:xlink="http://www.w3.org/1999/xlink" x="0px" y="0px"
	 width="100%" viewBox="0 0 433 433" enable-background="new 0 0 433 433" xml:space="preserve">
<path fill="#010101" opacity="1.000000" stroke="none" 
	d="
M298.000000,434.000000 
	C198.666672,434.000000 99.833359,434.000000 1.000026,434.000000 
	C1.000018,289.666687 1.000018,145.333389 1.000009,1.000065 
	C145.333282,1.000044 289.666565,1.000044 433.999878,1.000022 
	C433.999939,145.333267 433.999939,289.666534 433.999969,433.999908 
	C388.833344,434.000000 343.666656,434.000000 298.000000,434.000000 
M273.493835,118.486252 
	C273.339569,118.336403 273.185272,118.186546 272.987946,118.003883 
	C272.987946,118.003883 272.911530,117.922493 272.425415,117.571526 
	C272.226166,117.556244 272.026886,117.540970 271.650085,117.344200 
	C271.650085,117.344200 271.416565,117.244637 271.307037,116.905945 
	C271.165619,116.692375 270.966949,116.578789 270.581696,116.403130 
	C270.581696,116.403130 270.419708,116.273758 270.315002,115.898972 
	C270.158905,115.659691 269.938080,115.546432 269.530396,115.380379 
	C269.530396,115.380379 269.356995,115.250641 269.289612,115.083939 
	C269.289612,115.083939 269.116547,115.035187 269.213104,114.589798 
	C269.213104,114.589798 268.937317,114.226982 268.779053,113.537949 
	C266.869843,111.319351 264.960602,109.100761 262.699463,106.331238 
	C261.304260,104.285606 259.909088,102.239983 258.603363,99.587151 
	C258.081879,99.023582 257.560394,98.460022 256.769653,97.432343 
	C256.478363,96.982025 256.187103,96.531708 255.885300,95.453354 
	C255.361588,94.837730 254.837860,94.222107 254.095337,93.068382 
	C253.697327,92.405334 253.299332,91.742287 252.891144,90.449638 
	C252.368576,89.832947 251.845993,89.216263 251.218689,88.284859 
	C251.218689,88.284859 251.008469,88.028297 250.958496,87.414909 
	C250.406265,86.864166 249.854034,86.313431 249.210129,85.817764 
	C249.210129,85.817764 249.239883,85.715050 249.076965,85.217377 
	C248.783554,85.046227 248.490128,84.875084 247.799911,84.351395 
	C247.326584,84.123978 246.853271,83.896568 245.936966,83.096954 
	C242.568298,82.095512 239.277908,81.568504 236.033707,84.992043 
	C234.919113,86.538940 233.804520,88.085838 232.094101,90.129036 
	C231.841415,91.915070 231.369797,93.701027 231.369095,95.487160 
	C231.359650,119.467789 231.436325,143.448456 231.424957,167.429077 
	C231.423798,169.888092 230.993484,172.346909 229.965775,174.786316 
	C228.648758,174.903793 227.331741,175.021286 225.110641,174.905060 
	C221.074387,174.976944 217.038116,175.048813 212.296982,174.835144 
	C211.540146,174.892365 210.783310,174.949570 209.591675,174.679306 
	C208.628998,174.959747 207.666306,175.240189 206.028076,175.621201 
	C205.355728,175.741013 204.683395,175.860840 203.422989,175.820587 
	C203.246964,175.921982 203.070938,176.023392 202.459061,176.167603 
	C202.459061,176.167603 202.022278,176.199524 201.757492,175.773376 
	C201.092422,176.076904 200.427368,176.380417 199.187973,176.824097 
	C198.803711,176.911743 198.419449,176.999405 197.718292,176.688416 
	C197.114105,177.078949 196.509918,177.469482 195.854172,178.076965 
	C195.854172,178.076965 196.053635,178.176651 195.391190,177.923294 
	C194.134918,178.410797 192.878647,178.898285 191.411575,179.479568 
	C191.411575,179.479568 191.267746,179.660019 191.325317,179.716064 
	C191.325317,179.716064 191.336884,179.635345 190.504761,179.583206 
	C180.523758,182.816772 171.363968,187.550018 162.687286,194.264954 
	C161.874557,195.266785 161.061813,196.268616 159.787048,197.736710 
	C157.617584,199.914673 155.448120,202.092636 152.572510,204.136307 
	C151.244873,205.910324 149.917221,207.684326 148.280228,210.030319 
	C146.920746,211.413132 145.561264,212.795944 143.494370,214.176147 
	C143.244003,214.948074 142.993637,215.720001 142.483170,217.051361 
	C142.027435,217.732773 141.571701,218.414169 140.426544,219.091721 
	C138.243011,223.324707 135.811005,227.453293 133.971649,231.830902 
	C132.913574,234.349045 132.815125,237.270401 132.203506,240.656891 
	C132.082611,241.073624 131.961716,241.490341 131.271500,241.909683 
	C131.278992,242.611145 131.286484,243.312592 131.215530,244.665665 
	C131.110229,245.089859 131.004944,245.514069 130.269241,246.013229 
	C130.170837,247.342438 130.072418,248.671631 129.893555,250.729401 
	C130.018402,251.184967 130.143250,251.640533 130.013275,252.479172 
	C130.013275,252.479172 129.830505,252.901398 129.124237,253.111603 
	C129.059616,256.075378 128.994995,259.039124 128.881058,262.834991 
	C128.914230,264.223145 128.947403,265.611267 128.516068,267.591827 
	C128.975510,270.082489 129.434952,272.573120 130.069534,275.691833 
	C130.103302,276.124207 130.137070,276.556549 129.607697,277.322632 
	C130.011108,278.583038 130.414536,279.843475 131.006744,281.717560 
	C131.062347,282.141388 131.117966,282.565186 130.601517,283.385040 
	C132.074692,287.585205 133.547867,291.785370 135.321274,296.600403 
	C135.547363,297.245361 135.773468,297.890320 135.571930,299.162994 
	C137.069199,301.758850 138.566467,304.354675 140.461746,307.416168 
	C140.865234,308.125305 141.268738,308.834473 141.312393,310.029144 
	C141.844894,310.536530 142.377396,311.043884 143.165619,311.721405 
	C143.165619,311.721405 143.454025,311.827057 143.598999,312.006561 
	C143.598999,312.006561 143.854584,312.368103 144.061356,313.071320 
	C144.582153,313.895966 145.102951,314.720612 145.352295,316.201813 
	C145.994339,316.716339 146.636383,317.230865 147.707275,318.168091 
	C148.296524,318.978546 148.885773,319.789032 149.235397,321.281494 
	C149.908905,321.775909 150.582413,322.270325 151.778336,323.169739 
	C154.616135,326.014801 157.453918,328.859833 160.182999,332.423370 
	C160.940002,332.759399 161.697006,333.095398 162.936340,333.705444 
	C163.357452,334.063324 163.778549,334.421234 164.152039,335.492737 
	C164.921478,335.801331 165.690933,336.109924 166.996567,336.747467 
	C168.033203,337.455383 169.069839,338.163300 170.119461,339.583038 
	C170.905518,339.835052 171.691559,340.087097 172.862564,340.516754 
	C172.862564,340.516754 173.177094,340.801025 173.133820,341.491943 
	C177.588089,343.360199 182.042358,345.228455 187.140518,347.263611 
	C187.754257,347.518158 188.367981,347.772675 189.066284,348.721588 
	C192.047531,349.371918 195.028778,350.022217 198.665390,350.754730 
	C199.090134,350.869019 199.514877,350.983307 200.011475,351.728027 
	C201.341721,351.837708 202.671967,351.947357 204.738098,352.141998 
	C205.200165,352.019012 205.662247,351.896027 205.935257,351.848572 
	C205.935257,351.848572 205.962173,352.050385 206.159409,352.790741 
	C212.167847,352.625244 218.176270,352.459778 224.947769,352.234375 
	C225.965714,352.163757 226.983673,352.093170 228.460312,352.446686 
	C229.667862,352.005096 230.875427,351.563538 232.108841,350.907837 
	C232.108841,350.907837 231.906616,350.832855 232.528229,351.230194 
	C233.016891,351.191467 233.505569,351.152771 234.535339,351.523529 
	C238.077393,350.424072 241.619431,349.324585 245.816956,348.033691 
	C246.448257,347.774414 247.079544,347.515137 248.410980,347.527161 
	C252.001007,345.773560 255.591034,344.019958 259.571014,342.106934 
	C259.571014,342.106934 259.946533,341.915924 260.648346,342.019836 
	C261.402710,341.309143 262.157104,340.598419 263.100098,339.617432 
	C263.100098,339.617432 263.205414,339.305115 263.815338,339.460999 
	C264.192749,339.280396 264.570160,339.099823 265.626556,338.995911 
	C266.405518,338.319519 267.184479,337.643158 268.359711,336.694427 
	C268.620422,336.507996 268.880432,336.320557 269.805725,336.143890 
	C270.542175,335.433929 271.278625,334.723938 272.389771,333.622742 
	C272.426941,333.446045 272.464111,333.269348 273.137665,333.351837 
	C274.073425,332.551788 275.009186,331.751740 276.424316,330.503418 
	C278.295990,328.396149 280.167694,326.288910 282.632416,323.847504 
	C284.280762,322.231049 285.929138,320.614594 288.168304,319.146210 
	C288.879608,318.205566 289.590942,317.264954 290.860687,315.996216 
	C291.678528,314.754425 292.496338,313.512634 293.856781,311.910370 
	C294.687592,310.372467 295.518402,308.834534 296.885712,306.903931 
	C298.180573,304.395599 299.580139,301.935150 300.753845,299.371368 
	C310.764587,277.504425 307.191833,254.231537 307.577026,231.386292 
	C307.593445,230.412994 305.605133,228.616760 304.470001,228.548676 
	C299.323456,228.239929 294.143127,228.305420 288.988007,228.531921 
	C288.213318,228.565979 287.507446,230.165985 286.724365,231.970673 
	C286.715179,242.249649 286.706024,252.528641 286.065033,263.205139 
	C285.839386,265.162872 285.585266,267.117798 285.392456,269.078766 
	C283.336426,289.986115 274.686188,307.397034 257.337189,319.648468 
	C235.509827,335.062408 212.342651,335.712219 188.444885,324.631805 
	C186.564819,323.760071 184.527695,323.227020 182.198898,322.382629 
	C182.198898,322.382629 181.895920,322.127930 181.897766,321.432922 
	C180.131424,320.439392 178.365097,319.445862 176.257401,318.284821 
	C176.257401,318.284821 175.986649,318.017883 176.012451,317.331146 
	C171.290543,312.596588 166.568649,307.862061 161.552582,302.827606 
	C161.552582,302.827606 161.357819,302.455414 161.652313,301.815155 
	C161.051971,301.250305 160.451630,300.685455 159.572372,299.817017 
	C159.572372,299.817017 159.391891,299.446350 159.683380,298.739105 
	C156.792053,290.192719 153.319794,281.786285 151.214722,273.050446 
	C149.823898,267.278717 150.396927,261.033752 150.150787,254.386322 
	C150.207184,253.978714 150.263596,253.571121 150.950485,252.856247 
	C152.240356,248.574280 153.470993,244.273346 154.836273,240.015564 
	C156.284256,235.499817 157.860077,231.025070 159.561203,226.165573 
	C159.561203,226.165573 159.841904,225.867905 160.501831,225.916840 
	C161.102234,225.032028 161.702652,224.147217 162.889236,222.919861 
	C163.432526,221.807968 163.975830,220.696091 164.855469,219.003998 
	C168.790131,215.545715 172.724777,212.087433 177.351501,208.803177 
	C178.897446,207.530457 180.443405,206.257736 182.291443,204.747910 
	C182.291443,204.747910 182.650177,204.610855 183.382736,204.821075 
	C190.035995,202.337036 196.684723,199.840729 203.345352,197.376617 
	C205.279709,196.661011 207.248169,196.037567 209.954041,195.246109 
	C210.971008,195.202484 211.987976,195.158844 213.625824,195.651428 
	C217.934402,195.626770 222.259384,195.826218 226.546844,195.512726 
	C230.614761,195.215317 231.650742,196.886887 231.520416,200.703720 
	C231.265747,208.161697 231.181427,215.648163 231.553268,223.096527 
	C231.782791,227.693634 230.006210,228.947632 225.801086,228.551483 
	C222.841049,228.272644 219.678177,227.909607 216.879196,228.636551 
	C211.488205,230.036682 206.290848,232.182419 200.464523,234.393768 
	C198.039673,236.319244 195.614822,238.244705 192.490585,240.150909 
	C192.145813,240.901688 191.801041,241.652466 191.103729,242.941193 
	C190.116959,244.333969 189.130173,245.726761 187.444641,247.139832 
	C186.349014,251.095657 185.253387,255.051468 184.119095,259.737457 
	C184.029114,260.462799 183.939148,261.188141 183.271866,261.970703 
	C183.460434,263.010620 183.648987,264.050568 183.930603,265.813416 
	C183.969727,266.541107 184.008850,267.268799 183.480301,268.419373 
	C184.308167,270.954041 185.136032,273.488739 186.234329,276.614319 
	C186.686920,277.597504 187.139511,278.580688 187.286972,280.240326 
	C188.236938,281.455841 189.186905,282.671326 190.613571,284.346161 
	C193.135880,286.830200 195.658173,289.314209 198.145187,292.490234 
	C202.845657,296.016846 207.786377,298.859894 214.714798,298.113586 
	C215.162079,298.007721 215.609360,297.901855 216.434097,298.070282 
	C216.434097,298.070282 216.866196,298.246399 217.038162,298.893250 
	C222.404724,299.047363 227.740524,299.078308 232.635284,294.788330 
	C233.603455,294.299347 234.571609,293.810394 236.180435,293.618835 
	C236.736374,293.019196 237.292313,292.419525 238.031982,291.518463 
	C238.031982,291.518463 238.108704,291.173889 238.729813,291.251556 
	C239.241043,290.894196 239.752274,290.536835 240.946335,290.150879 
	C242.738068,288.212341 244.529800,286.273804 246.871735,283.936127 
	C247.059387,283.142639 247.247040,282.349152 247.692307,280.964264 
	C248.173630,280.002441 248.654953,279.040649 249.841965,277.983978 
	C250.791473,275.183990 252.461716,272.411346 252.569244,269.579376 
	C253.117447,255.140915 253.283524,240.687424 253.487320,226.237839 
	C253.498291,225.459473 252.639435,224.668854 252.057785,223.035034 
	C251.881195,218.350555 251.704605,213.666077 251.855957,208.300018 
	C251.802490,207.552444 251.749023,206.804871 252.142212,205.433121 
	C252.188919,203.349030 252.235626,201.264954 252.929581,198.791885 
	C253.012344,180.192749 253.095123,161.593597 253.815323,142.610275 
	C255.877121,142.589142 257.938904,142.567993 260.336853,143.131836 
	C262.254517,143.402603 264.172211,143.673386 266.725372,144.192459 
	C268.689484,145.267609 270.653595,146.342758 272.810822,147.868073 
	C273.033905,148.144638 273.322754,148.272552 273.737885,148.278641 
	C273.737885,148.278641 273.769653,148.336746 273.883362,148.798279 
	C274.067841,149.097153 274.335632,149.242630 274.743439,149.261597 
	C274.743439,149.261597 274.769531,149.318649 274.877106,149.786270 
	C275.060730,150.089447 275.329742,150.238800 275.740875,150.257416 
	C275.740875,150.257416 275.764099,150.314087 275.871704,150.803986 
	C276.140411,150.987671 276.409119,151.171371 277.016479,151.909256 
	C277.847351,153.180603 278.678223,154.451965 279.403198,156.461472 
	C281.168152,160.757202 282.933105,165.052917 284.762543,169.888702 
	C284.849792,170.240433 284.937073,170.592178 284.679382,171.300369 
	C284.986206,171.996674 285.293030,172.692963 285.649994,174.031326 
	C285.733307,174.669724 285.816620,175.308105 285.538147,176.396194 
	C285.956268,177.330414 286.374390,178.264618 286.892700,179.597107 
	C286.892700,179.597107 287.058563,179.972794 286.683014,180.696335 
	C286.754669,181.770950 286.826294,182.845566 286.506073,184.639084 
	C286.627716,194.782394 286.749359,204.925705 286.757721,215.872223 
	C286.682068,217.495407 286.606415,219.118576 286.041931,221.042923 
	C286.041931,222.116013 286.041931,223.189102 286.041931,224.262192 
	C286.510101,224.377914 286.978271,224.493637 287.446411,224.609360 
	C288.189270,223.336807 288.932098,222.064240 289.912415,220.501740 
	C289.912415,220.501740 290.077850,220.165451 290.705933,219.913361 
	C292.542816,216.586212 294.645050,213.376205 296.173920,209.913086 
	C306.825836,185.785233 307.381653,162.058273 292.664703,139.218567 
	C290.617462,136.041382 287.597595,133.490936 284.588989,130.126083 
	C284.415283,129.978516 284.241577,129.830933 284.214874,129.304321 
	C284.192932,128.959793 284.009705,128.799545 283.408020,128.509537 
	C283.408020,128.509537 283.162811,128.186127 283.118286,128.068222 
	C283.118286,128.068222 282.931274,127.905739 282.623413,127.583160 
	C282.394989,127.389030 282.205353,127.162453 282.180939,126.449501 
	C281.814087,126.264412 281.447205,126.079323 281.007141,126.000107 
	C281.007141,126.000107 281.094421,125.905083 281.081329,125.328453 
	C280.753082,125.188034 280.424866,125.047615 280.001221,124.999084 
	C280.001221,124.999084 280.091858,124.902466 280.076080,124.327721 
	C279.748352,124.188713 279.420624,124.049706 279.001221,123.999084 
	C279.001221,123.999084 279.088135,123.906052 279.070618,123.332169 
	C278.742981,123.194191 278.415375,123.056213 277.996307,122.978508 
	C277.996307,122.978508 278.077393,122.903221 278.059296,122.309517 
	C277.717316,122.147644 277.375366,121.985771 276.731812,121.576401 
	C276.538025,121.401726 276.361481,121.211075 276.134674,120.419662 
	C275.657196,120.158974 275.179749,119.898277 274.357483,119.334030 
	C274.357483,119.334030 274.013824,119.029221 273.973969,119.023552 
	C273.973969,119.023552 273.939056,118.953239 273.493835,118.486252 
z"/>
<path fill="#FEFFFF" opacity="1.000000" stroke="none" 
	d="
M287.577515,318.998169 
	C285.929138,320.614594 284.280762,322.231049 282.236938,323.706024 
	C279.274506,325.977234 276.707581,328.389923 273.881836,330.797272 
	C273.195557,331.307007 272.768097,331.822052 271.988098,332.289368 
	C271.083496,332.819061 270.531464,333.396454 269.849731,334.176178 
	C269.509827,334.625916 269.261719,334.826538 268.621582,334.977295 
	C267.516998,335.655060 266.766663,336.335907 266.009216,337.009491 
	C266.002136,337.002197 266.014771,337.017456 265.635834,337.004517 
	C264.573090,337.762787 263.889252,338.533966 263.205414,339.305115 
	C263.205414,339.305115 263.100098,339.617432 262.698486,339.655701 
	C261.887512,339.823029 261.478119,339.952118 260.725159,340.025482 
	C259.546600,340.584076 258.711670,341.198425 257.573730,341.972107 
	C255.180984,343.098114 253.091232,344.064819 250.782166,344.810181 
	C248.313614,345.617493 246.064362,346.646149 243.516617,347.765808 
	C242.812866,347.950562 242.407608,348.044312 241.860641,347.919250 
	C241.088669,348.040405 240.458389,348.380341 239.526260,348.800446 
	C238.817093,348.966949 238.409760,349.053284 237.861359,348.920044 
	C237.091003,349.042755 236.461700,349.385071 235.531067,349.796936 
	C234.824295,349.941864 234.418884,350.017242 233.853088,349.878113 
	C233.097351,350.053375 232.501984,350.443115 231.906616,350.832886 
	C231.906616,350.832855 232.108841,350.907837 231.727661,350.808594 
	C230.230988,350.805206 229.115463,350.901031 227.752319,350.767822 
	C225.937332,350.903900 224.370010,351.269012 222.355225,351.719849 
	C216.592575,351.887146 211.277374,351.968781 205.962173,352.050385 
	C205.962173,352.050385 205.935257,351.848572 206.020599,351.535706 
	C205.401596,351.165405 204.697266,351.107971 203.580978,351.009399 
	C202.092560,351.011383 201.016098,351.054474 199.939621,351.097595 
	C199.514877,350.983307 199.090134,350.869019 198.154846,350.399841 
	C194.756760,349.372375 191.869232,348.699799 188.981720,348.027222 
	C188.367981,347.772675 187.754257,347.518158 186.672562,346.879517 
	C181.862106,344.597260 177.519592,342.699158 173.177094,340.801025 
	C173.177094,340.801025 172.862564,340.516754 172.599335,340.114075 
	C171.592896,339.431335 170.849701,339.151276 170.106491,338.871185 
	C169.069839,338.163300 168.033203,337.455383 166.686584,336.263489 
	C165.650955,335.446075 164.925308,335.112610 164.199646,334.779144 
	C163.778549,334.421234 163.357452,334.063324 162.654907,333.256805 
	C161.679565,332.440399 160.985641,332.072632 160.291718,331.704895 
	C157.453918,328.859833 154.616135,326.014801 151.549515,322.649109 
	C150.705475,321.618835 150.090240,321.109161 149.475021,320.599487 
	C148.885773,319.789032 148.296524,318.978546 147.552979,317.644379 
	C146.807053,316.595520 146.215408,316.070404 145.623764,315.545258 
	C145.102951,314.720612 144.582153,313.895966 144.173645,312.533234 
	C144.008621,311.939117 143.731323,311.883087 143.454025,311.827057 
	C143.454025,311.827057 143.165619,311.721405 143.110397,311.302490 
	C142.594193,310.436951 142.133209,309.990265 141.672241,309.543610 
	C141.268738,308.834473 140.865234,308.125305 140.336807,306.821686 
	C138.807770,303.663239 137.403671,301.099243 135.999557,298.535278 
	C135.773468,297.890320 135.547363,297.245361 135.286346,295.919861 
	C133.892151,291.155884 132.532867,287.072449 131.173569,282.989014 
	C131.117966,282.565186 131.062347,282.141388 131.096405,281.074921 
	C130.847641,279.284485 130.509232,278.136719 130.170837,276.988922 
	C130.137070,276.556549 130.103302,276.124207 130.157471,274.958069 
	C130.168625,271.815430 130.091873,269.406525 130.263489,266.757935 
	C130.324570,265.009491 130.137283,263.500732 129.965363,261.537323 
	C129.930664,258.355591 129.880585,255.628494 129.830505,252.901398 
	C129.830505,252.901398 130.013275,252.479172 130.412949,252.287445 
	C130.871918,251.396698 130.931213,250.697693 131.024933,249.585419 
	C131.006119,248.094177 130.952881,247.016220 130.899643,245.938263 
	C131.004944,245.514069 131.110229,245.089859 131.554581,244.202194 
	C131.876022,243.128174 131.858429,242.517624 131.840820,241.907074 
	C131.961716,241.490341 132.082611,241.073624 132.557434,240.156540 
	C135.646225,232.802658 138.381104,225.949112 141.115967,219.095566 
	C141.571701,218.414169 142.027435,217.732773 142.917786,216.700439 
	C143.635529,215.625946 143.918671,214.902344 144.201797,214.178757 
	C145.561264,212.795944 146.920746,211.413132 148.759338,209.688446 
	C150.585175,207.654572 151.931915,205.962570 153.278641,204.270584 
	C155.448120,202.092636 157.617584,199.914673 160.350586,197.538071 
	C161.736908,196.371323 162.559708,195.403198 163.382492,194.435089 
	C171.363968,187.550018 180.523758,182.816772 190.816010,179.771790 
	C191.263992,179.945404 191.400711,179.930450 191.537445,179.915497 
	C191.447540,179.830338 191.357651,179.745178 191.267746,179.660019 
	C191.267746,179.660019 191.411575,179.479568 191.867950,179.625336 
	C193.567413,179.239609 194.810532,178.708130 196.053635,178.176651 
	C196.053635,178.176651 195.854172,178.076965 196.207916,178.124847 
	C197.045242,178.145081 197.528809,178.117432 198.278931,178.345856 
	C201.651917,178.342026 204.758347,178.082123 208.172989,177.863464 
	C208.991287,177.619629 209.501358,177.334579 210.056183,176.836731 
	C210.100937,176.623947 210.106857,176.189102 210.092957,176.123657 
	C210.079041,176.058197 209.978516,175.969849 210.286438,176.073853 
	C211.026794,176.200790 211.459213,176.223724 212.107117,176.442368 
	C212.888947,176.750839 213.455261,176.863602 214.024368,177.361816 
	C216.075836,182.310242 218.124512,186.873215 220.267578,191.646347 
	C217.080841,192.080017 213.629425,192.281860 210.317749,193.070511 
	C206.471146,193.986557 202.747086,195.417267 198.665649,196.772110 
	C197.917084,196.976898 197.472717,197.034180 196.831787,196.867889 
	C195.441956,197.264374 194.248672,197.884399 192.958130,198.523865 
	C192.860870,198.543320 192.704224,198.421646 192.359863,198.375702 
	C191.709778,198.642395 191.404053,198.955048 190.846497,199.489532 
	C187.946518,201.344513 185.298340,202.977676 182.650177,204.610855 
	C182.650177,204.610855 182.291443,204.747910 181.794464,204.796371 
	C179.751450,206.106262 178.205444,207.367706 176.659424,208.629135 
	C172.724777,212.087433 168.790131,215.545715 164.395050,219.299911 
	C163.352325,220.103897 162.770035,220.611984 161.827423,221.125549 
	C160.987289,222.101135 160.507492,223.071228 159.940796,224.346497 
	C159.849884,225.057068 159.845901,225.462494 159.841904,225.867905 
	C159.841904,225.867905 159.561203,226.165573 159.135193,226.439987 
	C156.025055,233.441544 153.340927,240.168686 150.330200,247.008270 
	C149.687393,249.752701 149.371201,252.384689 149.047211,255.483795 
	C149.067276,261.626923 149.095154,267.302948 148.849350,273.173584 
	C148.958542,274.607880 149.341415,275.847534 149.838425,277.391144 
	C150.025269,278.120605 150.097977,278.546173 149.926208,279.101654 
	C150.035828,279.848999 150.389923,280.466400 150.882507,281.430420 
	C151.581116,283.656006 152.141220,285.534973 152.526794,287.728607 
	C152.813110,288.724365 153.273972,289.405426 153.899536,290.383606 
	C154.689346,292.124359 155.314438,293.568054 155.722992,295.179626 
	C155.987595,295.907410 156.468750,296.467316 157.164948,297.231689 
	C158.050629,298.106232 158.721268,298.776306 159.391891,299.446350 
	C159.391891,299.446350 159.572372,299.817017 159.631165,300.279724 
	C160.245911,301.313446 160.801865,301.884430 161.357819,302.455414 
	C161.357819,302.455414 161.552582,302.827606 161.650620,303.329956 
	C166.494659,308.560822 171.240646,313.289337 175.986649,318.017883 
	C175.986649,318.017883 176.257401,318.284821 176.472809,318.707764 
	C178.424118,320.129791 180.160019,321.128876 181.895920,322.127930 
	C181.895920,322.127930 182.198898,322.382629 182.468475,322.792023 
	C189.120712,325.931763 195.503387,328.662140 201.986252,331.690857 
	C202.827133,332.252350 203.567795,332.515442 204.722809,332.817322 
	C209.662415,333.519562 214.227158,334.950226 218.706451,334.719727 
	C244.234039,333.406464 264.512421,322.805817 277.810120,300.552277 
	C279.285950,302.546631 280.691040,304.112183 281.898895,305.817444 
	C284.041138,308.841858 286.063660,311.951080 288.158813,315.381470 
	C288.277618,315.956146 288.373810,316.174103 288.279724,316.547485 
	C287.864410,316.943573 287.671204,317.207581 287.229248,317.385559 
	C286.809631,317.870605 286.670532,318.464935 286.804321,319.239136 
	C287.243988,319.278687 287.410736,319.138428 287.577515,318.998169 
z"/>
<path fill="#FEFFFF" opacity="1.000000" stroke="none" 
	d="
M188.143372,247.119537 
	C189.130173,245.726761 190.116959,244.333969 191.598969,242.630493 
	C192.459488,241.603241 192.824753,240.886719 193.189987,240.170181 
	C195.614822,238.244705 198.039673,236.319244 201.064316,234.301971 
	C202.110321,234.141785 202.556519,234.073395 203.128021,234.174286 
	C203.434830,234.075607 203.616318,233.807617 204.065048,233.317886 
	C205.895538,232.625824 207.458771,232.155502 209.095993,231.911133 
	C209.382309,231.904846 209.594650,231.672623 209.969620,231.398926 
	C210.132248,231.357422 210.353958,231.609467 210.860931,231.732208 
	C217.345688,231.899155 223.327087,232.064133 229.298233,231.885818 
	C230.495224,231.850052 231.653214,230.507462 232.831329,229.766937 
	C232.833481,229.766449 232.798401,229.748764 233.190964,229.763855 
	C234.360703,227.318817 235.137863,224.858688 236.187988,221.534515 
	C237.658493,223.584976 238.906403,225.036804 239.831482,226.671356 
	C242.204163,230.863632 244.237793,235.261566 246.817612,239.315994 
	C247.831024,240.908691 249.938126,241.805466 251.641571,243.478134 
	C251.402618,252.914139 251.069260,261.891174 250.476242,270.936890 
	C250.168243,271.670593 250.119919,272.335541 250.013306,273.323059 
	C249.683487,274.467865 249.411957,275.290131 248.943878,276.124084 
	C248.655304,276.227539 248.471939,276.341248 248.487762,276.407166 
	C248.542740,276.636322 248.666809,276.848969 248.775330,277.350830 
	C248.902802,277.782104 249.019531,277.930450 249.136276,278.078827 
	C248.654953,279.040649 248.173630,280.002441 247.286301,281.294983 
	C246.513092,282.044403 246.145874,282.463043 245.474121,282.956390 
	C244.818100,283.724091 244.466644,284.417053 243.935028,285.368469 
	C242.542725,286.786285 241.330582,287.945679 239.772949,289.112885 
	C238.987869,289.805115 238.548279,290.489502 238.108704,291.173889 
	C238.108704,291.173889 238.031982,291.518463 237.633453,291.603455 
	C236.840302,291.825195 236.445663,291.961945 236.015564,291.960632 
	C235.892975,291.783447 235.805817,291.744354 235.718674,291.705292 
	C235.846878,291.816711 235.975082,291.928131 235.977875,292.248047 
	C235.541794,292.670074 235.437561,292.958374 235.539780,293.321411 
	C234.571609,293.810394 233.603455,294.299347 231.974518,294.873688 
	C226.497910,296.054840 221.682053,297.150635 216.866196,298.246399 
	C216.866196,298.246399 216.434097,298.070282 216.248611,297.654175 
	C215.368912,297.202698 214.674683,297.167389 213.571930,297.135315 
	C208.169098,295.358490 203.174789,293.578369 198.180481,291.798248 
	C195.658173,289.314209 193.135880,286.830200 190.429535,283.782318 
	C189.361038,282.000275 188.476578,280.782074 187.592102,279.563873 
	C187.139511,278.580688 186.686920,277.597504 186.235535,275.941345 
	C185.507141,272.844391 184.777557,270.420441 184.047974,267.996490 
	C184.008850,267.268799 183.969727,266.541107 184.107849,265.086243 
	C184.139801,263.543854 183.994476,262.728668 183.849167,261.913483 
	C183.939148,261.188141 184.029114,260.462799 184.450958,259.162415 
	C185.903015,254.764740 187.023193,250.942123 188.143372,247.119537 
z"/>
<path fill="#E5F2F2" opacity="1.000000" stroke="none" 
	d="
M251.547150,243.019165 
	C249.938126,241.805466 247.831024,240.908691 246.817612,239.315994 
	C244.237793,235.261566 242.204163,230.863632 239.831482,226.671356 
	C238.906403,225.036804 237.658493,223.584976 236.187988,221.534515 
	C235.137863,224.858688 234.360703,227.318817 233.273254,229.319550 
	C233.042145,218.425400 233.203644,207.989761 233.086746,197.557220 
	C233.073502,196.374847 231.485138,194.193298 230.641861,194.200500 
	C224.760727,194.250626 218.883453,194.755814 213.004944,195.115219 
	C211.987976,195.158844 210.971008,195.202484 209.189926,195.151947 
	C205.273819,195.580048 202.121841,196.102325 198.969849,196.624603 
	C202.747086,195.417267 206.471146,193.986557 210.317749,193.070511 
	C213.629425,192.281860 217.080841,192.080017 220.267578,191.646347 
	C218.124512,186.873215 216.075836,182.310242 214.489426,177.338379 
	C220.624313,176.952576 226.296921,176.975662 232.013062,177.359238 
	C237.120300,187.326630 242.100555,196.979630 247.350342,206.483749 
	C248.028275,207.711105 250.101242,208.167877 251.528015,208.981598 
	C251.704605,213.666077 251.881195,218.350555 251.957748,223.911362 
	C251.754181,230.864853 251.650665,236.942001 251.547150,243.019165 
z"/>
<path fill="#9CFEFE" opacity="1.000000" stroke="none" 
	d="
M268.937317,114.226974 
	C268.937317,114.226982 269.213104,114.589798 268.944519,114.894279 
	C268.902954,115.216057 269.129974,115.233345 269.356995,115.250641 
	C269.356995,115.250641 269.530396,115.380379 269.454590,115.766953 
	C269.725769,116.193604 270.072723,116.233681 270.419708,116.273758 
	C270.419708,116.273758 270.581696,116.403130 270.492676,116.768463 
	C270.741272,117.170746 271.078918,117.207687 271.416565,117.244629 
	C271.416565,117.244637 271.650085,117.344200 271.513336,117.666687 
	C271.534058,118.362534 271.691528,118.735901 271.885498,119.507439 
	C274.400452,125.185150 276.739380,130.535797 279.386963,135.729095 
	C284.538940,145.835007 289.384766,156.145416 295.285461,165.804184 
	C299.231049,172.262650 302.510651,178.293152 299.651642,185.945312 
	C296.772095,181.721893 294.386047,177.443130 291.624420,173.422394 
	C290.433411,171.688385 288.465149,170.488251 286.691345,168.708496 
	C284.999603,164.939728 283.466461,161.508041 281.937500,158.063477 
	C281.941681,158.050598 281.921997,158.050293 281.947601,157.742386 
	C281.616791,156.987640 281.260376,156.540787 280.905731,156.084656 
	C280.907501,156.075394 280.886200,156.086090 280.918365,155.721954 
	C278.907745,152.336746 276.864990,149.315674 274.878113,145.899307 
	C273.276855,142.308380 271.654785,139.093948 269.956512,135.920288 
	C261.719421,120.527107 253.437408,105.157822 245.252945,89.736748 
	C244.513489,88.343506 244.355988,86.641411 244.270645,85.095474 
	C246.166153,85.980156 247.719238,86.852097 249.269135,88.057945 
	C249.921280,89.195816 250.576645,89.999779 251.243820,91.148109 
	C252.240631,92.925720 253.225616,94.358955 254.217316,96.126427 
	C255.129166,97.657188 256.034302,98.853714 256.995667,100.400497 
	C259.041138,103.458939 261.030396,106.167122 263.061523,108.923615 
	C263.103394,108.971931 263.217712,109.029190 263.314819,109.213608 
	C263.566101,109.630714 263.725464,109.859810 263.989868,110.411270 
	C265.705627,111.900482 267.321472,113.063728 268.937317,114.226974 
z"/>
<path fill="#E0FFFF" opacity="1.000000" stroke="none" 
	d="
M251.691986,208.640808 
	C250.101242,208.167877 248.028275,207.711105 247.350342,206.483749 
	C242.100555,196.979630 237.120300,187.326630 232.257492,177.194656 
	C232.721130,175.954071 232.983856,175.238556 233.266449,174.039398 
	C233.318024,170.704803 233.349716,167.853836 233.602966,164.669281 
	C233.937347,160.895844 234.050186,157.456009 234.526062,154.017639 
	C236.156708,155.133713 237.802292,156.023849 238.622040,157.404373 
	C241.235641,161.805954 243.310501,166.539185 246.077759,170.832108 
	C247.238831,172.633270 249.615036,173.651169 251.561554,175.457397 
	C251.671646,178.878418 251.658997,181.867172 251.278290,184.993362 
	C250.782104,191.840302 250.640610,198.549698 250.575882,205.259811 
	C250.573364,205.522018 251.305649,205.791306 251.695557,206.057297 
	C251.749023,206.804871 251.802490,207.552444 251.691986,208.640808 
z"/>
<path fill="#81F8F8" opacity="1.000000" stroke="none" 
	d="
M299.992859,185.994598 
	C302.510651,178.293152 299.231049,172.262650 295.285461,165.804184 
	C289.384766,156.145416 284.538940,145.835007 279.386963,135.729095 
	C276.739380,130.535797 274.400452,125.185150 271.999573,119.405937 
	C272.077118,118.906265 272.296539,118.693871 272.535248,118.591148 
	C272.859619,118.337852 272.945312,118.187279 273.031006,118.036697 
	C273.185272,118.186546 273.339569,118.336403 273.548431,118.805466 
	C273.603027,119.124672 273.877106,119.377823 273.877106,119.377823 
	C273.877106,119.377823 274.013824,119.029221 274.013824,119.029221 
	C274.013824,119.029221 274.357483,119.334030 274.490051,119.794769 
	C275.149109,120.505157 275.675659,120.754799 276.202179,121.004448 
	C276.361481,121.211075 276.538025,121.401726 276.697021,121.842079 
	C277.133972,122.372910 277.605682,122.638062 278.077393,122.903214 
	C278.077393,122.903221 277.996307,122.978508 278.048004,123.237152 
	C278.429169,123.632545 278.758667,123.769295 279.088135,123.906052 
	C279.088135,123.906052 279.001221,123.999084 279.052948,124.243843 
	C279.433746,124.626556 279.762787,124.764511 280.091858,124.902466 
	C280.091858,124.902466 280.001221,124.999084 280.054443,125.242599 
	C280.436584,125.625771 280.765503,125.765427 281.094421,125.905090 
	C281.094421,125.905083 281.007141,126.000107 281.172363,126.310707 
	C281.576599,126.715347 281.815552,126.809387 282.054504,126.903427 
	C282.205353,127.162453 282.394989,127.389030 282.612488,127.867409 
	C282.601593,128.151657 282.863464,128.463745 282.863464,128.463745 
	C282.863464,128.463745 283.162811,128.186127 283.162811,128.186127 
	C283.162811,128.186127 283.408020,128.509537 283.413391,128.855133 
	C283.479858,129.570282 283.696228,129.731171 284.067871,129.683365 
	C284.241577,129.830933 284.415283,129.978516 284.752533,130.688126 
	C293.060760,142.259277 300.376648,153.862274 301.550293,167.793304 
	C302.193298,175.425980 300.568512,183.249710 299.960632,190.571350 
	C299.967621,188.768463 299.980225,187.381531 299.992859,185.994598 
z"/>
<path fill="#656565" opacity="1.000000" stroke="none" 
	d="
M201.886047,331.392487 
	C195.503387,328.662140 189.120712,325.931763 182.650818,322.868988 
	C184.527695,323.227020 186.564819,323.760071 188.444885,324.631805 
	C212.342651,335.712219 235.509827,335.062408 257.337189,319.648468 
	C274.686188,307.397034 283.336426,289.986115 285.392456,269.078766 
	C285.585266,267.117798 285.839386,265.162872 286.556488,263.374756 
	C287.188019,264.341522 287.328064,265.138702 287.403107,266.378326 
	C287.170074,269.164673 287.002045,271.508606 286.623962,274.168640 
	C285.925079,277.310547 285.436310,280.136261 284.782593,283.293488 
	C282.295288,289.145447 279.972900,294.665924 277.650513,300.186401 
	C264.512421,322.805817 244.234039,333.406464 218.706451,334.719727 
	C214.227158,334.950226 209.662415,333.519562 204.642426,332.500610 
	C203.393829,331.894287 202.639938,331.643402 201.886047,331.392487 
z"/>
<path fill="#A6FCFC" opacity="1.000000" stroke="none" 
	d="
M299.651611,185.945312 
	C299.980225,187.381531 299.967621,188.768463 299.967560,190.964294 
	C299.290253,194.177338 298.600372,196.581497 297.545959,198.991028 
	C293.261139,196.221344 288.674713,193.943512 288.973206,187.608902 
	C288.328766,184.794540 287.693665,182.383667 287.058594,179.972794 
	C287.058563,179.972794 286.892700,179.597107 287.024292,179.025864 
	C287.080902,177.636124 287.005920,176.817612 287.188263,175.764496 
	C287.247070,173.368454 287.048523,171.207031 286.849976,169.045593 
	C288.465149,170.488251 290.433411,171.688385 291.624420,173.422394 
	C294.386047,177.443130 296.772095,181.721893 299.651611,185.945312 
z"/>
<path fill="#656565" opacity="1.000000" stroke="none" 
	d="
M297.910522,198.985657 
	C298.600372,196.581497 299.290253,194.177338 299.973206,191.380234 
	C300.568512,183.249710 302.193298,175.425980 301.550293,167.793304 
	C300.376648,153.862274 293.060760,142.259277 284.972015,130.950256 
	C287.597595,133.490936 290.617462,136.041382 292.664703,139.218567 
	C307.381653,162.058273 306.825836,185.785233 296.173920,209.913086 
	C294.645050,213.376205 292.542816,216.586212 290.366455,219.705414 
	C290.077759,219.055344 290.128479,218.613205 290.391479,217.898712 
	C293.039337,211.412796 295.474945,205.199234 297.910522,198.985657 
z"/>
<path fill="#656565" opacity="1.000000" stroke="none" 
	d="
M286.769775,231.041611 
	C287.507446,230.165985 288.213318,228.565979 288.988007,228.531921 
	C294.143127,228.305420 299.323456,228.239929 304.470001,228.548676 
	C305.605133,228.616760 307.593445,230.412994 307.577026,231.386292 
	C307.191833,254.231537 310.764587,277.504425 300.753845,299.371368 
	C299.580139,301.935150 298.180573,304.395599 296.474915,306.980713 
	C296.064087,307.057465 295.779968,306.817169 295.873169,306.474060 
	C297.702789,301.819305 299.439178,297.507660 301.163696,293.173157 
	C301.151825,293.150269 301.189453,293.115021 301.443634,292.905090 
	C302.019440,291.440765 302.341095,290.186371 302.767365,288.619568 
	C302.915588,287.871185 302.959198,287.435211 303.269775,286.739075 
	C303.940643,283.959869 304.344543,281.440796 304.846619,278.608826 
	C304.972107,277.861023 304.999451,277.426117 305.219269,276.693420 
	C305.513824,275.242584 305.615875,274.089539 305.792969,272.554749 
	C305.862152,271.137665 305.856262,270.102386 305.977722,268.606812 
	C306.125458,262.315094 306.247589,256.481781 306.137146,250.652847 
	C306.031464,245.073883 305.684143,239.499496 305.354248,233.747803 
	C305.265411,233.572525 305.191467,233.186508 305.480835,232.944916 
	C305.423737,232.105087 305.082794,230.989395 304.730103,230.985657 
	C298.744202,230.922455 292.756805,230.997269 286.769775,231.041611 
z"/>
<path fill="#656565" opacity="1.000000" stroke="none" 
	d="
M213.315384,195.383331 
	C218.883453,194.755814 224.760727,194.250626 230.641861,194.200500 
	C231.485138,194.193298 233.073502,196.374847 233.086746,197.557220 
	C233.203644,207.989761 233.042145,218.425400 232.880692,229.304443 
	C232.798401,229.748764 232.833481,229.766449 232.377823,229.808212 
	C229.434280,229.917679 226.934875,229.857605 224.460968,230.080475 
	C219.750946,230.504761 215.055466,231.090668 210.353958,231.609467 
	C210.353958,231.609467 210.132248,231.357422 209.751953,231.389282 
	C209.371674,231.421127 209.022003,231.685165 209.022003,231.685181 
	C207.458771,232.155502 205.895538,232.625824 203.825806,233.364944 
	C203.319336,233.633743 203.002731,234.005005 203.002731,234.005005 
	C202.556519,234.073395 202.110321,234.141785 201.338654,234.114594 
	C206.290848,232.182419 211.488205,230.036682 216.879196,228.636551 
	C219.678177,227.909607 222.841049,228.272644 225.801086,228.551483 
	C230.006210,228.947632 231.782791,227.693634 231.553268,223.096527 
	C231.181427,215.648163 231.265747,208.161697 231.520416,200.703720 
	C231.650742,196.886887 230.614761,195.215317 226.546844,195.512726 
	C222.259384,195.826218 217.934402,195.626770 213.315384,195.383331 
z"/>
<path fill="#656565" opacity="1.000000" stroke="none" 
	d="
M233.381409,165.002884 
	C233.349716,167.853836 233.318024,170.704803 233.027130,174.063690 
	C232.506073,174.757874 232.255981,174.958771 231.699509,175.096954 
	C231.175003,174.948334 230.968674,174.877075 230.762329,174.805817 
	C230.993484,172.346909 231.423798,169.888092 231.424957,167.429077 
	C231.436325,143.448456 231.359650,119.467789 231.369095,95.487160 
	C231.369797,93.701027 231.841415,91.915070 232.474945,90.373276 
	C232.887527,100.057854 232.919250,109.498184 232.954224,119.413116 
	C233.098801,134.926102 233.240097,149.964493 233.381409,165.002884 
z"/>
<path fill="#656565" opacity="1.000000" stroke="none" 
	d="
M251.646332,184.855927 
	C251.658997,181.867172 251.671646,178.878418 251.694595,175.003372 
	C251.626373,167.407684 251.547852,160.698303 251.596466,153.548264 
	C251.783188,149.737854 251.842773,146.368103 252.221146,142.970581 
	C252.752594,142.960052 252.965240,142.977264 253.177887,142.994461 
	C253.095123,161.593597 253.012344,180.192749 252.464737,198.526154 
	C251.882034,193.792252 251.764175,189.324097 251.646332,184.855927 
z"/>
<path fill="#656565" opacity="1.000000" stroke="none" 
	d="
M251.641571,243.478134 
	C251.650665,236.942001 251.754181,230.864853 252.021606,224.335815 
	C252.639435,224.668854 253.498291,225.459473 253.487320,226.237839 
	C253.283524,240.687424 253.117447,255.140915 252.569244,269.579376 
	C252.461716,272.411346 250.791473,275.183990 249.489120,278.031403 
	C249.019531,277.930450 248.902802,277.782104 248.952545,277.144653 
	C249.126144,276.474487 249.133286,276.293457 249.140427,276.112427 
	C249.411957,275.290131 249.683487,274.467865 250.255219,273.137329 
	C250.615570,272.042145 250.675735,271.455170 250.735901,270.868195 
	C251.069260,261.891174 251.402618,252.914139 251.641571,243.478134 
z"/>
<path fill="#B1D9D9" opacity="1.000000" stroke="none" 
	d="
M286.747070,231.506134 
	C292.756805,230.997269 298.744202,230.922455 304.730103,230.985657 
	C305.082794,230.989395 305.423737,232.105087 305.188629,232.617737 
	C300.332611,232.344543 296.051147,231.962448 291.788971,232.115982 
	C290.811188,232.151199 289.179443,233.968369 289.087341,235.069107 
	C288.756775,239.019211 288.957214,243.013733 288.948914,247.452026 
	C288.449982,253.920349 287.959045,259.928101 287.468109,265.935883 
	C287.328064,265.138702 287.188019,264.341522 286.872406,263.175964 
	C286.706024,252.528641 286.715179,242.249649 286.747070,231.506134 
z"/>
<path fill="#656565" opacity="1.000000" stroke="none" 
	d="
M159.537628,299.092712 
	C158.721268,298.776306 158.050629,298.106232 157.177338,296.927185 
	C156.629608,295.949341 156.284576,295.480530 155.939529,295.011719 
	C155.314438,293.568054 154.689346,292.124359 153.948792,290.081970 
	C153.455994,288.793457 153.078659,288.103668 152.701324,287.413910 
	C152.141220,285.534973 151.581116,283.656006 150.955505,281.142578 
	C150.650208,279.995972 150.410446,279.483856 150.170685,278.971710 
	C150.097977,278.546173 150.025269,278.120605 149.928864,277.038269 
	C149.644440,275.247314 149.383728,274.113129 149.123016,272.978973 
	C149.095154,267.302948 149.067276,261.626923 149.305847,255.462189 
	C149.745087,254.982559 149.917877,254.991623 150.090683,255.000687 
	C150.396927,261.033752 149.823898,267.278717 151.214722,273.050446 
	C153.319794,281.786285 156.792053,290.192719 159.537628,299.092712 
z"/>
<path fill="#656565" opacity="1.000000" stroke="none" 
	d="
M286.871002,215.069016 
	C286.749359,204.925705 286.627716,194.782394 286.977417,184.538010 
	C287.699127,185.670059 287.949524,186.903183 288.167572,188.592453 
	C288.145142,195.684875 288.155121,202.321152 288.075195,209.368256 
	C287.977325,211.176804 287.969330,212.574524 287.925537,214.201569 
	C287.889709,214.430923 287.835663,214.892029 287.596436,214.946899 
	C287.357239,215.001755 286.871002,215.069016 286.871002,215.069016 
z"/>
<path fill="#656565" opacity="1.000000" stroke="none" 
	d="
M150.656799,246.895828 
	C153.340927,240.168686 156.025055,233.441544 159.044617,226.623413 
	C157.860077,231.025070 156.284256,235.499817 154.836273,240.015564 
	C153.470993,244.273346 152.240356,248.574280 150.480377,252.634674 
	C150.225769,250.574020 150.441284,248.734924 150.656799,246.895828 
z"/>
<path fill="#656565" opacity="1.000000" stroke="none" 
	d="
M198.665649,196.772110 
	C202.121841,196.102325 205.273819,195.580048 208.813400,195.214828 
	C207.248169,196.037567 205.279709,196.661011 203.345352,197.376617 
	C196.684723,199.840729 190.035995,202.337036 183.016449,204.715973 
	C185.298340,202.977676 187.946518,201.344513 191.163651,199.455994 
	C192.056488,198.940964 192.380356,198.681305 192.704224,198.421646 
	C192.704224,198.421646 192.860870,198.543320 193.320877,198.513107 
	C194.863373,198.019089 195.945847,197.555283 197.028336,197.091461 
	C197.472717,197.034180 197.917084,196.976898 198.665649,196.772110 
z"/>
<path fill="#B8C7C7" opacity="1.000000" stroke="none" 
	d="
M251.278275,184.993362 
	C251.764175,189.324097 251.882034,193.792252 252.141113,198.720642 
	C252.235626,201.264954 252.188919,203.349030 251.918884,205.745209 
	C251.305649,205.791306 250.573364,205.522018 250.575882,205.259811 
	C250.640610,198.549698 250.782104,191.840302 251.278275,184.993362 
z"/>
<path fill="#656565" opacity="1.000000" stroke="none" 
	d="
M175.999542,317.674500 
	C171.240646,313.289337 166.494659,308.560822 161.797699,303.479889 
	C166.568649,307.862061 171.290543,312.596588 175.999542,317.674500 
z"/>
<path fill="#656565" opacity="1.000000" stroke="none" 
	d="
M140.771271,219.093643 
	C138.381104,225.949112 135.646225,232.802658 132.598022,239.833221 
	C132.815125,237.270401 132.913574,234.349045 133.971649,231.830902 
	C135.811005,227.453293 138.243011,223.324707 140.771271,219.093643 
z"/>
<path fill="#789C9C" opacity="1.000000" stroke="none" 
	d="
M232.950958,118.938522 
	C232.919250,109.498184 232.887527,100.057854 232.772858,90.125122 
	C233.804520,88.085838 234.919113,86.538940 236.628021,84.886398 
	C237.653534,84.834442 238.084717,84.888145 238.412231,85.222321 
	C236.875031,87.337563 235.441513,89.172325 233.953400,91.472435 
	C233.832855,100.945831 233.766907,109.953888 233.513336,118.960083 
	C233.325714,118.958221 232.950958,118.938522 232.950958,118.938522 
z"/>
<path fill="#B1D9D9" opacity="1.000000" stroke="none" 
	d="
M232.017670,175.174347 
	C232.255981,174.958771 232.506073,174.757874 233.007263,174.547333 
	C232.983856,175.238556 232.721130,175.954071 232.213959,176.834167 
	C226.296921,176.975662 220.624313,176.952576 214.486649,176.952927 
	C213.455261,176.863602 212.888947,176.750839 212.326599,176.282104 
	C212.554337,175.657654 212.778107,175.389175 213.001862,175.120697 
	C217.038116,175.048813 221.074387,174.976944 225.801056,175.293884 
	C228.333542,175.513260 230.175598,175.343796 232.017670,175.174347 
z"/>
<path fill="#656565" opacity="1.000000" stroke="none" 
	d="
M206.060791,352.420563 
	C211.277374,351.968781 216.592575,351.887146 222.707123,351.871643 
	C223.732559,352.056610 223.958633,352.175446 224.184708,352.294281 
	C218.176270,352.459778 212.167847,352.625244 206.060791,352.420563 
z"/>
<path fill="#7FB3B3" opacity="1.000000" stroke="none" 
	d="
M274.822205,146.294601 
	C276.864990,149.315674 278.907745,152.336746 280.681702,155.691864 
	C280.130829,155.867599 279.829590,155.766739 279.509094,155.723312 
	C278.678223,154.451965 277.847351,153.180603 276.837158,151.358643 
	C276.359924,150.643372 276.062012,150.478729 275.764099,150.314087 
	C275.764099,150.314087 275.740875,150.257416 275.693115,149.989029 
	C275.353424,149.586639 275.061462,149.452637 274.769531,149.318649 
	C274.769531,149.318649 274.743439,149.261597 274.694946,148.992493 
	C274.354218,148.594498 274.061920,148.465622 273.769653,148.336746 
	C273.769653,148.336746 273.737885,148.278641 273.657074,148.002045 
	C273.256744,147.622925 272.937225,147.520432 272.617706,147.417923 
	C270.653595,146.342758 268.689484,145.267609 266.279846,143.823822 
	C265.518494,143.013916 265.202667,142.572647 265.271454,142.147217 
	C268.711456,143.540237 271.766815,144.917419 274.822205,146.294601 
z"/>
<path fill="#656565" opacity="1.000000" stroke="none" 
	d="
M198.162842,292.144226 
	C203.174789,293.578369 208.169098,295.358490 213.589020,297.368225 
	C214.014648,297.597809 214.005798,298.064789 214.005798,298.064789 
	C207.786377,298.859894 202.845657,296.016846 198.162842,292.144226 
z"/>
<path fill="#656565" opacity="1.000000" stroke="none" 
	d="
M173.155457,341.146484 
	C177.519592,342.699158 181.862106,344.597260 186.350616,346.796051 
	C182.042358,345.228455 177.588089,343.360199 173.155457,341.146484 
z"/>
<path fill="#7FB3B3" opacity="1.000000" stroke="none" 
	d="
M286.691345,168.708496 
	C287.048523,171.207031 287.247070,173.368454 286.930328,175.756165 
	C286.243317,175.970444 286.071625,175.958481 285.899933,175.946503 
	C285.816620,175.308105 285.733307,174.669724 285.734253,173.380981 
	C285.553741,172.135056 285.289032,171.539490 285.024323,170.943909 
	C284.937073,170.592178 284.849792,170.240433 284.822144,169.215088 
	C283.898956,165.053116 282.916138,161.564743 281.933319,158.076370 
	C283.466461,161.508041 284.999603,164.939728 286.691345,168.708496 
z"/>
<path fill="#656565" opacity="1.000000" stroke="none" 
	d="
M216.952179,298.569824 
	C221.682053,297.150635 226.497910,296.054840 231.698883,295.047424 
	C227.740524,299.078308 222.404724,299.047363 216.952179,298.569824 
z"/>
<path fill="#656565" opacity="1.000000" stroke="none" 
	d="
M281.937500,158.063477 
	C282.916138,161.564743 283.898956,165.053116 284.789917,168.945068 
	C282.933105,165.052917 281.168152,160.757202 279.456146,156.092392 
	C279.829590,155.766739 280.130829,155.867599 280.649536,156.056000 
	C280.886200,156.086090 280.907501,156.075394 280.913391,156.380402 
	C281.253510,157.140366 281.587738,157.595322 281.921997,158.050293 
	C281.921997,158.050293 281.941681,158.050598 281.937500,158.063477 
z"/>
<path fill="#656565" opacity="1.000000" stroke="none" 
	d="
M130.887543,283.187012 
	C132.532867,287.072449 133.892151,291.155884 135.136230,295.612427 
	C133.547867,291.785370 132.074692,287.585205 130.887543,283.187012 
z"/>
<path fill="#B9B9B8" opacity="1.000000" stroke="none" 
	d="
M274.140656,330.802582 
	C276.707581,328.389923 279.274506,325.977234 281.940430,323.873108 
	C280.167694,326.288910 278.295990,328.396149 275.946747,330.691589 
	C275.026337,330.854004 274.583496,330.828278 274.140656,330.802582 
z"/>
<path fill="#656565" opacity="1.000000" stroke="none" 
	d="
M187.794006,247.129669 
	C187.023193,250.942123 185.903015,254.764740 184.470306,258.797302 
	C185.253387,255.051468 186.349014,251.095657 187.794006,247.129669 
z"/>
<path fill="#656565" opacity="1.000000" stroke="none" 
	d="
M251.001480,345.031494 
	C253.091232,344.064819 255.180984,343.098114 257.903748,342.074310 
	C258.751526,342.100220 258.966309,342.183289 259.181061,342.266357 
	C255.591034,344.019958 252.001007,345.773560 248.212006,347.141052 
	C249.009186,346.180450 250.005325,345.605957 251.001480,345.031494 
z"/>
<path fill="#B1D9D9" opacity="1.000000" stroke="none" 
	d="
M207.864761,177.822220 
	C204.758347,178.082123 201.651917,178.342026 198.303848,178.095612 
	C198.053192,177.421875 198.044189,177.254456 198.035187,177.087051 
	C198.419449,176.999405 198.803711,176.911743 199.772491,176.870880 
	C200.912109,176.678284 201.467194,176.438904 202.022278,176.199524 
	C202.022278,176.199524 202.459061,176.167603 202.782745,176.324249 
	C203.407974,176.314148 203.709518,176.147400 204.011047,175.980652 
	C204.683395,175.860840 205.355728,175.741013 206.770386,175.737762 
	C208.377411,175.965912 209.242142,176.077515 210.106857,176.189102 
	C210.106857,176.189102 210.100937,176.623947 209.754944,176.823334 
	C208.894226,177.289230 208.379486,177.555725 207.864761,177.822220 
z"/>
<path fill="#656565" opacity="1.000000" stroke="none" 
	d="
M234.013458,350.092621 
	C234.418884,350.017242 234.824295,349.941864 235.827209,349.883240 
	C236.950623,349.646515 237.476517,349.393097 238.002426,349.139648 
	C238.409760,349.053284 238.817093,348.966949 239.822784,348.881592 
	C240.948212,348.634399 241.475266,348.386200 242.002335,348.138031 
	C242.407608,348.044312 242.812866,347.950562 243.856415,347.895691 
	C244.716965,348.031403 244.939224,348.128265 245.161484,348.225128 
	C241.619431,349.324585 238.077393,350.424072 234.264832,351.063354 
	C234.000702,350.432953 234.007080,350.262787 234.013458,350.092621 
z"/>
<path fill="#789C9C" opacity="1.000000" stroke="none" 
	d="
M263.019653,108.875305 
	C261.030396,106.167122 259.041138,103.458939 257.092224,100.310822 
	C257.132599,99.870888 257.324066,99.689735 257.510498,99.800888 
	C257.948944,100.064857 258.221283,100.158958 258.513916,100.194351 
	C259.909088,102.239983 261.304260,104.285606 262.852295,106.938950 
	C263.009979,107.989548 263.014801,108.432426 263.019653,108.875305 
z"/>
<path fill="#656565" opacity="1.000000" stroke="none" 
	d="
M238.515900,84.941841 
	C238.084717,84.888145 237.653534,84.834442 236.901886,84.710709 
	C239.277908,81.568504 242.568298,82.095512 245.742554,83.463478 
	C243.681747,84.049263 241.815353,84.268524 239.577057,84.558212 
	C238.975388,84.733047 238.745636,84.837448 238.515900,84.941841 
z"/>
<path fill="#656565" opacity="1.000000" stroke="none" 
	d="
M129.477371,253.006500 
	C129.880585,255.628494 129.930664,258.355591 129.710526,261.544800 
	C129.270340,262.005585 129.100357,262.004242 128.930374,262.002899 
	C128.994995,259.039124 129.059616,256.075378 129.477371,253.006500 
z"/>
<path fill="#656565" opacity="1.000000" stroke="none" 
	d="
M135.785736,298.849121 
	C137.403671,301.099243 138.807770,303.663239 140.137802,306.588867 
	C138.566467,304.354675 137.069199,301.758850 135.785736,298.849121 
z"/>
<path fill="#656565" opacity="1.000000" stroke="none" 
	d="
M263.061523,108.923615 
	C263.014801,108.432426 263.009979,107.989548 263.028259,107.214417 
	C264.960602,109.100761 266.869843,111.319351 268.858185,113.882462 
	C267.321472,113.063728 265.705627,111.900482 263.999023,110.172623 
	C263.808014,109.260025 263.577820,109.067078 263.217712,109.029190 
	C263.217712,109.029190 263.103394,108.971931 263.061523,108.923615 
z"/>
<path fill="#656565" opacity="1.000000" stroke="none" 
	d="
M189.024002,348.374390 
	C191.869232,348.699799 194.756760,349.372375 197.827148,350.358765 
	C195.028778,350.022217 192.047531,349.371918 189.024002,348.374390 
z"/>
<path fill="#656565" opacity="1.000000" stroke="none" 
	d="
M130.015106,266.997620 
	C130.091873,269.406525 130.168625,271.815430 130.069901,274.644043 
	C129.434952,272.573120 128.975510,270.082489 129.006943,267.290649 
	C129.670242,266.992157 129.842667,266.994904 130.015106,266.997620 
z"/>
<path fill="#D6D6D6" opacity="1.000000" stroke="none" 
	d="
M150.330200,247.008270 
	C150.441284,248.734924 150.225769,250.574020 150.165131,252.788315 
	C150.263596,253.571121 150.207184,253.978714 150.120728,254.693512 
	C149.917877,254.991623 149.745087,254.982559 149.313660,254.995087 
	C149.371201,252.384689 149.687393,249.752701 150.330200,247.008270 
z"/>
<path fill="#656565" opacity="1.000000" stroke="none" 
	d="
M289.674927,220.791672 
	C288.932098,222.064240 288.189270,223.336807 287.446411,224.609360 
	C286.978271,224.493637 286.510101,224.377914 286.041931,224.262192 
	C286.041931,223.189102 286.041931,222.116013 286.519684,221.070099 
	C287.889923,220.995407 288.782440,220.893539 289.674927,220.791672 
z"/>
<path fill="#656565" opacity="1.000000" stroke="none" 
	d="
M240.118439,289.105042 
	C241.330582,287.945679 242.542725,286.786285 244.191635,285.284546 
	C245.029358,284.581512 245.430298,284.220856 245.955139,283.977600 
	C246.079041,284.094971 246.321518,284.335266 246.321533,284.335266 
	C244.529800,286.273804 242.738068,288.212341 240.550720,289.898926 
	C240.142868,289.466339 240.130646,289.285675 240.118439,289.105042 
z"/>
<path fill="#B9B9B8" opacity="1.000000" stroke="none" 
	d="
M245.489227,348.129395 
	C244.939224,348.128265 244.716965,348.031403 244.154907,347.804688 
	C246.064362,346.646149 248.313614,345.617493 250.782166,344.810150 
	C250.005325,345.605957 249.009186,346.180450 247.861938,347.005432 
	C247.079544,347.515137 246.448257,347.774414 245.489227,348.129395 
z"/>
<path fill="#656565" opacity="1.000000" stroke="none" 
	d="
M183.764130,268.207947 
	C184.777557,270.420441 185.507141,272.844391 186.100327,275.645874 
	C185.136032,273.488739 184.308167,270.954041 183.764130,268.207947 
z"/>
<path fill="#656565" opacity="1.000000" stroke="none" 
	d="
M152.925568,204.203445 
	C151.931915,205.962570 150.585175,207.654572 148.914001,209.402451 
	C149.917221,207.684326 151.244873,205.910324 152.925568,204.203445 
z"/>
<path fill="#789C9C" opacity="1.000000" stroke="none" 
	d="
M239.948959,84.487793 
	C241.815353,84.268524 243.681747,84.049263 245.964050,83.749573 
	C246.853271,83.896568 247.326584,84.123978 248.054001,84.797562 
	C248.618683,85.400833 248.929291,85.557945 249.239883,85.715050 
	C249.239883,85.715050 249.210129,85.817764 249.210175,86.082947 
	C249.329498,86.717575 249.448776,87.087006 249.495270,87.524612 
	C249.422501,87.592789 249.272324,87.724037 249.272324,87.724037 
	C247.719238,86.852097 246.166153,85.980156 243.872299,85.029343 
	C242.070679,84.796249 241.009811,84.642021 239.948959,84.487793 
z"/>
<path fill="#7FB3B3" opacity="1.000000" stroke="none" 
	d="
M289.793671,220.646698 
	C288.782440,220.893539 287.889923,220.995407 286.764099,220.919525 
	C286.606415,219.118576 286.682068,217.495407 286.814362,215.470612 
	C286.871002,215.069016 287.357239,215.001755 287.667450,215.292358 
	C288.711517,216.445679 289.445374,217.308380 290.179230,218.171082 
	C290.128479,218.613205 290.077759,219.055344 290.052429,219.831451 
	C290.077850,220.165451 289.912415,220.501740 289.793671,220.646698 
z"/>
<path fill="#656565" opacity="1.000000" stroke="none" 
	d="
M264.886841,142.131363 
	C265.202667,142.572647 265.518494,143.013916 265.962097,143.699677 
	C264.172211,143.673386 262.254517,143.402603 260.112305,142.614868 
	C259.887726,142.097916 259.869629,141.635895 260.222107,141.687103 
	C261.048065,141.705460 261.521515,141.672623 262.233154,141.707352 
	C262.471313,141.774933 262.964844,141.734924 263.285583,141.802887 
	C264.033142,141.957687 264.459991,142.044525 264.886841,142.131363 
z"/>
<path fill="#B8C7C7" opacity="1.000000" stroke="none" 
	d="
M253.496613,142.802368 
	C252.965240,142.977264 252.752594,142.960052 252.006744,142.724548 
	C254.272232,142.216141 257.070923,141.926025 259.869629,141.635895 
	C259.869629,141.635895 259.887726,142.097916 259.944214,142.322388 
	C257.938904,142.567993 255.877121,142.589142 253.496613,142.802368 
z"/>
<path fill="#656565" opacity="1.000000" stroke="none" 
	d="
M181.896851,321.780426 
	C180.160019,321.128876 178.424118,320.129791 176.643494,318.791504 
	C178.365097,319.445862 180.131424,320.439392 181.896851,321.780426 
z"/>
<path fill="#656565" opacity="1.000000" stroke="none" 
	d="
M177.005463,208.716156 
	C178.205444,207.367706 179.751450,206.106262 181.643417,204.914917 
	C180.443405,206.257736 178.897446,207.530457 177.005463,208.716156 
z"/>
<path fill="#B9B9B8" opacity="1.000000" stroke="none" 
	d="
M130.263489,266.757935 
	C129.842667,266.994904 129.670242,266.992157 129.239197,266.994446 
	C128.947403,265.611267 128.914230,264.223145 128.905716,262.418945 
	C129.100357,262.004242 129.270340,262.005585 129.695160,261.999451 
	C130.137283,263.500732 130.324570,265.009491 130.263489,266.757935 
z"/>
<path fill="#B9B9B8" opacity="1.000000" stroke="none" 
	d="
M224.566238,352.264343 
	C223.958633,352.175446 223.732559,352.056610 223.154572,351.785950 
	C224.370010,351.269012 225.937332,350.903900 227.742310,351.024231 
	C227.987167,351.680664 227.994400,351.851624 228.001617,352.022552 
	C226.983673,352.093170 225.965714,352.163757 224.566238,352.264343 
z"/>
<path fill="#7FB3B3" opacity="1.000000" stroke="none" 
	d="
M288.199951,188.136307 
	C287.949524,186.903183 287.699127,185.670059 287.173340,184.178558 
	C286.826294,182.845566 286.754669,181.770950 286.870789,180.334564 
	C287.693665,182.383667 288.328766,184.794540 288.777222,187.637131 
	C288.590607,188.068832 288.199951,188.136307 288.199951,188.136307 
z"/>
<path fill="#789C9C" opacity="1.000000" stroke="none" 
	d="
M254.210602,95.792191 
	C253.225616,94.358955 252.240631,92.925720 251.322449,91.069016 
	C251.389252,90.645546 251.551651,90.492615 251.748199,90.647827 
	C252.263596,90.895103 252.582458,90.987167 252.901321,91.079239 
	C253.299332,91.742287 253.697327,92.405334 254.155457,93.660057 
	C254.325394,94.665680 254.435242,95.079620 254.462296,95.569168 
	C254.379517,95.644760 254.210602,95.792191 254.210602,95.792191 
z"/>
<path fill="#656565" opacity="1.000000" stroke="none" 
	d="
M287.509766,317.494812 
	C287.671204,317.207581 287.864410,316.943573 288.510590,316.483704 
	C289.203033,316.083191 289.487549,315.925781 289.915344,315.924500 
	C290.045380,316.056732 290.302246,316.324310 290.302246,316.324310 
	C289.590942,317.264954 288.879608,318.205566 287.872894,319.072174 
	C287.410736,319.138428 287.243988,319.278687 287.060455,319.042084 
	C287.199036,318.275055 287.354401,317.884949 287.509766,317.494812 
z"/>
<path fill="#656565" opacity="1.000000" stroke="none" 
	d="
M296.206665,307.177063 
	C295.518402,308.834534 294.687592,310.372467 293.442383,311.968567 
	C293.027954,312.026794 292.742554,311.781799 292.841553,311.469635 
	C293.887054,309.710724 294.833527,308.263947 295.779968,306.817169 
	C295.779968,306.817169 296.064087,307.057465 296.206665,307.177063 
z"/>
<path fill="#656565" opacity="1.000000" stroke="none" 
	d="
M273.881836,330.797272 
	C274.583496,330.828278 275.026337,330.854004 275.707031,330.915710 
	C275.009186,331.751740 274.073425,332.551788 272.806274,333.027618 
	C272.474854,332.703400 272.340637,332.337128 272.340637,332.337097 
	C272.768097,331.822052 273.195557,331.307007 273.881836,330.797272 
z"/>
<path fill="#656565" opacity="1.000000" stroke="none" 
	d="
M293.171051,312.148804 
	C292.496338,313.512634 291.678528,314.754425 290.581482,316.160278 
	C290.302246,316.324310 290.045380,316.056732 289.998108,315.655945 
	C290.045258,314.895782 290.139679,314.536438 290.425110,314.025635 
	C290.855042,313.635590 290.999268,313.349274 291.313110,312.961670 
	C291.965851,312.532715 292.354187,312.157257 292.742554,311.781799 
	C292.742554,311.781799 293.027954,312.026794 293.171051,312.148804 
z"/>
<path fill="#656565" opacity="1.000000" stroke="none" 
	d="
M199.975555,351.412781 
	C201.016098,351.054474 202.092560,351.011383 203.590546,351.260956 
	C204.008789,351.721436 204.005493,351.889221 204.002213,352.057007 
	C202.671967,351.947357 201.341721,351.837708 199.975555,351.412781 
z"/>
<path fill="#656565" opacity="1.000000" stroke="none" 
	d="
M130.584442,245.975739 
	C130.952881,247.016220 131.006119,248.094177 130.770828,249.593018 
	C130.312881,250.009552 130.143448,250.005203 129.974014,250.000839 
	C130.072418,248.671631 130.170837,247.342438 130.584442,245.975739 
z"/>
<path fill="#656565" opacity="1.000000" stroke="none" 
	d="
M228.230957,352.234619 
	C227.994400,351.851624 227.987167,351.680664 227.989960,351.253296 
	C229.115463,350.901031 230.230988,350.805206 231.714737,350.915649 
	C230.875427,351.563538 229.667862,352.005096 228.230957,352.234619 
z"/>
<path fill="#B1D9D9" opacity="1.000000" stroke="none" 
	d="
M195.722412,178.049973 
	C194.810532,178.708130 193.567413,179.239609 191.973343,179.578430 
	C192.878647,178.898285 194.134918,178.410797 195.722412,178.049973 
z"/>
<path fill="#656565" opacity="1.000000" stroke="none" 
	d="
M129.889267,277.155762 
	C130.509232,278.136719 130.847641,279.284485 131.002014,280.768066 
	C130.414536,279.843475 130.011108,278.583038 129.889267,277.155762 
z"/>
<path fill="#656565" opacity="1.000000" stroke="none" 
	d="
M187.439545,279.902100 
	C188.476578,280.782074 189.361038,282.000275 190.191193,283.552673 
	C189.186905,282.671326 188.236938,281.455841 187.439545,279.902100 
z"/>
<path fill="#789C9C" opacity="1.000000" stroke="none" 
	d="
M257.036011,99.960564 
	C256.034302,98.853714 255.129166,97.657188 254.217316,96.126427 
	C254.210602,95.792191 254.379517,95.644760 254.657837,95.725189 
	C255.256027,95.897537 255.575928,95.989456 255.895813,96.081375 
	C256.187103,96.531708 256.478363,96.982025 256.892792,97.971329 
	C257.118652,98.903458 257.221344,99.296600 257.324066,99.689735 
	C257.324066,99.689735 257.132599,99.870888 257.036011,99.960564 
z"/>
<path fill="#656565" opacity="1.000000" stroke="none" 
	d="
M162.187759,221.120087 
	C162.770035,220.611984 163.352325,220.103897 164.226868,219.590012 
	C163.975830,220.696091 163.432526,221.807968 162.447998,222.963303 
	C162.006760,223.006744 161.712357,222.750153 161.798996,222.478790 
	C161.986343,221.844986 162.087067,221.482544 162.187759,221.120087 
z"/>
<path fill="#656565" opacity="1.000000" stroke="none" 
	d="
M163.034882,194.350021 
	C162.559708,195.403198 161.736908,196.371323 160.581604,197.304932 
	C161.061813,196.268616 161.874557,195.266785 163.034882,194.350021 
z"/>
<path fill="#656565" opacity="1.000000" stroke="none" 
	d="
M210.092957,176.123657 
	C209.242142,176.077515 208.377411,175.965912 207.108154,175.687469 
	C207.666306,175.240189 208.628998,174.959747 209.795105,175.083740 
	C209.998520,175.488174 209.978516,175.969849 209.978516,175.969849 
	C209.978516,175.969849 210.079041,176.058197 210.092957,176.123657 
z"/>
<path fill="#789C9C" opacity="1.000000" stroke="none" 
	d="
M231.699509,175.096954 
	C230.175598,175.343796 228.333542,175.513260 226.253098,175.410751 
	C227.331741,175.021286 228.648758,174.903793 230.364044,174.796066 
	C230.968674,174.877075 231.175003,174.948334 231.699509,175.096954 
z"/>
<path fill="#656565" opacity="1.000000" stroke="none" 
	d="
M285.719055,176.171356 
	C286.071625,175.958481 286.243317,175.970444 286.672974,175.990768 
	C287.005920,176.817612 287.080902,177.636124 286.974213,178.826721 
	C286.374390,178.264618 285.956268,177.330414 285.719055,176.171356 
z"/>
<path fill="#656565" opacity="1.000000" stroke="none" 
	d="
M183.560516,261.942078 
	C183.994476,262.728668 184.139801,263.543854 184.061340,264.724762 
	C183.648987,264.050568 183.460434,263.010620 183.560516,261.942078 
z"/>
<path fill="#B9B9B8" opacity="1.000000" stroke="none" 
	d="
M266.016327,337.016785 
	C266.766663,336.335907 267.516998,335.655060 268.652222,335.266693 
	C269.071350,335.750183 269.105530,335.941162 269.139709,336.132111 
	C268.880432,336.320557 268.620422,336.507996 267.835938,336.801270 
	C266.880249,336.944366 266.448273,336.980591 266.016327,337.016785 
z"/>
<path fill="#789C9C" opacity="1.000000" stroke="none" 
	d="
M251.310623,90.724640 
	C250.576645,89.999779 249.921280,89.195816 249.269135,88.057945 
	C249.272324,87.724037 249.422501,87.592789 249.705444,87.683319 
	C250.328430,87.858658 250.668442,87.943481 251.008469,88.028297 
	C251.008469,88.028297 251.218689,88.284859 251.220627,88.765686 
	C251.332260,89.661888 251.441956,90.077248 251.551651,90.492615 
	C251.551651,90.492615 251.389252,90.645546 251.310623,90.724640 
z"/>
<path fill="#656565" opacity="1.000000" stroke="none" 
	d="
M261.068756,340.081207 
	C261.478119,339.952118 261.887512,339.823029 262.604187,339.790833 
	C262.157104,340.598419 261.402710,341.309143 260.383301,341.705994 
	C260.435120,340.955139 260.751953,340.518188 261.068756,340.081207 
z"/>
<path fill="#B9B9B8" opacity="1.000000" stroke="none" 
	d="
M260.725159,340.025482 
	C260.751953,340.518188 260.435120,340.955139 260.032410,341.654022 
	C259.946533,341.915924 259.571014,342.106934 259.376038,342.186646 
	C258.966309,342.183289 258.751526,342.100220 258.206757,341.914978 
	C258.711670,341.198425 259.546600,340.584076 260.725159,340.025482 
z"/>
<path fill="#656565" opacity="1.000000" stroke="none" 
	d="
M266.009216,337.009521 
	C266.448273,336.980591 266.880249,336.944366 267.637817,336.937469 
	C267.184479,337.643158 266.405518,338.319519 265.359924,338.688232 
	C265.400482,337.926178 265.707611,337.471832 266.014771,337.017456 
	C266.014771,337.017456 266.002136,337.002197 266.009216,337.009521 
z"/>
<path fill="#B9B9B8" opacity="1.000000" stroke="none" 
	d="
M265.635834,337.004517 
	C265.707611,337.471832 265.400482,337.926178 265.020447,338.649902 
	C264.570160,339.099823 264.192749,339.280396 263.510376,339.383057 
	C263.889252,338.533966 264.573090,337.762787 265.635834,337.004517 
z"/>
<path fill="#656565" opacity="1.000000" stroke="none" 
	d="
M269.472717,336.138000 
	C269.105530,335.941162 269.071350,335.750183 269.006470,335.269806 
	C269.261719,334.826538 269.509827,334.625916 270.188538,334.226227 
	C271.109650,334.053955 271.562378,334.033966 272.015076,334.013977 
	C271.278625,334.723938 270.542175,335.433929 269.472717,336.138000 
z"/>
<path fill="#656565" opacity="1.000000" stroke="none" 
	d="
M160.171875,225.892365 
	C159.845901,225.462494 159.849884,225.057068 160.194550,224.254639 
	C160.927612,223.488464 161.319977,223.119308 161.712357,222.750153 
	C161.712357,222.750153 162.006760,223.006744 162.154907,223.134583 
	C161.702652,224.147217 161.102234,225.032028 160.171875,225.892365 
z"/>
<path fill="#656565" opacity="1.000000" stroke="none" 
	d="
M145.488037,315.873535 
	C146.215408,316.070404 146.807053,316.595520 147.338562,317.433014 
	C146.636383,317.230865 145.994339,316.716339 145.488037,315.873535 
z"/>
<path fill="#B9B9B8" opacity="1.000000" stroke="none" 
	d="
M272.202423,333.818359 
	C271.562378,334.033966 271.109650,334.053955 270.318176,334.023895 
	C270.531464,333.396454 271.083496,332.819061 271.988098,332.289398 
	C272.340637,332.337128 272.474854,332.703400 272.488068,332.898010 
	C272.464111,333.269348 272.426941,333.446045 272.202423,333.818359 
z"/>
<path fill="#B9B9B8" opacity="1.000000" stroke="none" 
	d="
M204.370148,352.099487 
	C204.005493,351.889221 204.008789,351.721436 204.002502,351.302063 
	C204.697266,351.107971 205.401596,351.165405 206.115128,351.497925 
	C205.662247,351.896027 205.200165,352.019012 204.370148,352.099487 
z"/>
<path fill="#B9B9B8" opacity="1.000000" stroke="none" 
	d="
M233.853088,349.878113 
	C234.007080,350.262787 234.000702,350.432953 233.994263,350.858612 
	C233.505569,351.152771 233.016891,351.191467 232.217438,351.031555 
	C232.501984,350.443115 233.097351,350.053375 233.853088,349.878113 
z"/>
<path fill="#656565" opacity="1.000000" stroke="none" 
	d="
M236.051025,292.098724 
	C236.445663,291.961945 236.840302,291.825195 237.541595,291.754150 
	C237.292313,292.419525 236.736374,293.019196 235.860107,293.470123 
	C235.437561,292.958374 235.541794,292.670074 235.933716,292.235291 
	C236.014938,292.014069 236.051025,292.098724 236.051025,292.098724 
z"/>
<path fill="#656565" opacity="1.000000" stroke="none" 
	d="
M141.492310,309.786377 
	C142.133209,309.990265 142.594193,310.436951 142.982544,311.217438 
	C142.377396,311.043884 141.844894,310.536530 141.492310,309.786377 
z"/>
<path fill="#656565" opacity="1.000000" stroke="none" 
	d="
M251.748199,90.647827 
	C251.441956,90.077248 251.332260,89.661888 251.272995,88.923050 
	C251.845993,89.216263 252.368576,89.832947 252.896240,90.764435 
	C252.582458,90.987167 252.263596,90.895103 251.748199,90.647827 
z"/>
<path fill="#656565" opacity="1.000000" stroke="none" 
	d="
M250.983490,87.721603 
	C250.668442,87.943481 250.328430,87.858658 249.778229,87.615143 
	C249.448776,87.087006 249.329498,86.717575 249.256012,86.055412 
	C249.854034,86.313431 250.406265,86.864166 250.983490,87.721603 
z"/>
<path fill="#656565" opacity="1.000000" stroke="none" 
	d="
M170.112976,339.227112 
	C170.849701,339.151276 171.592896,339.431335 172.406860,340.025269 
	C171.691559,340.087097 170.905518,339.835052 170.112976,339.227112 
z"/>
<path fill="#B8C7C7" opacity="1.000000" stroke="none" 
	d="
M214.360291,298.089172 
	C214.005798,298.064789 214.014648,297.597809 213.997559,297.364929 
	C214.674683,297.167389 215.368912,297.202698 216.059875,297.517029 
	C215.609360,297.901855 215.162079,298.007721 214.360291,298.089172 
z"/>
<path fill="#656565" opacity="1.000000" stroke="none" 
	d="
M160.237366,332.064148 
	C160.985641,332.072632 161.679565,332.440399 162.413742,333.119812 
	C161.697006,333.095398 160.940002,332.759399 160.237366,332.064148 
z"/>
<path fill="#656565" opacity="1.000000" stroke="none" 
	d="
M149.355209,320.940491 
	C150.090240,321.109161 150.705475,321.618835 151.288300,322.446625 
	C150.582413,322.270325 149.908905,321.775909 149.355209,320.940491 
z"/>
<path fill="#656565" opacity="1.000000" stroke="none" 
	d="
M164.175842,335.135925 
	C164.925308,335.112610 165.650955,335.446075 166.418488,336.099060 
	C165.690933,336.109924 164.921478,335.801331 164.175842,335.135925 
z"/>
<path fill="#656565" opacity="1.000000" stroke="none" 
	d="
M161.505066,302.135284 
	C160.801865,301.884430 160.245911,301.313446 159.770630,300.431519 
	C160.451630,300.685455 161.051971,301.250305 161.505066,302.135284 
z"/>
<path fill="#B8C7C7" opacity="1.000000" stroke="none" 
	d="
M239.772949,289.112885 
	C240.130646,289.285675 240.142868,289.466339 240.209305,289.913208 
	C239.752274,290.536835 239.241043,290.894196 238.419250,291.212708 
	C238.548279,290.489502 238.987869,289.805115 239.772949,289.112885 
z"/>
<path fill="#656565" opacity="1.000000" stroke="none" 
	d="
M197.876740,176.887726 
	C198.044189,177.254456 198.053192,177.421875 198.037292,177.839539 
	C197.528809,178.117432 197.045242,178.145081 196.233704,178.016373 
	C196.509918,177.469482 197.114105,177.078949 197.876740,176.887726 
z"/>
<path fill="#656565" opacity="1.000000" stroke="none" 
	d="
M245.778656,282.881683 
	C246.145874,282.463043 246.513092,282.044403 247.157501,281.590698 
	C247.247040,282.349152 247.059387,283.142639 246.596619,284.135681 
	C246.321518,284.335266 246.079041,284.094971 245.978531,283.731049 
	C245.878021,283.367126 245.778656,282.881683 245.778656,282.881683 
z"/>
<path fill="#B9B9B8" opacity="1.000000" stroke="none" 
	d="
M129.933777,250.365112 
	C130.143448,250.005203 130.312881,250.009552 130.736420,250.006287 
	C130.931213,250.697693 130.871918,251.396698 130.540359,252.095901 
	C130.143250,251.640533 130.018402,251.184967 129.933777,250.365112 
z"/>
<path fill="#656565" opacity="1.000000" stroke="none" 
	d="
M255.890564,95.767365 
	C255.575928,95.989456 255.256027,95.897537 254.740601,95.649590 
	C254.435242,95.079620 254.325394,94.665680 254.264862,93.929108 
	C254.837860,94.222107 255.361588,94.837730 255.890564,95.767365 
z"/>
<path fill="#656565" opacity="1.000000" stroke="none" 
	d="
M131.556152,241.908386 
	C131.858429,242.517624 131.876022,243.128174 131.593811,243.876389 
	C131.286484,243.312592 131.278992,242.611145 131.556152,241.908386 
z"/>
<path fill="#656565" opacity="1.000000" stroke="none" 
	d="
M201.889893,175.986450 
	C201.467194,176.438904 200.912109,176.678284 200.059662,176.800812 
	C200.427368,176.380417 201.092422,176.076904 201.889893,175.986450 
z"/>
<path fill="#656565" opacity="1.000000" stroke="none" 
	d="
M192.840302,240.160553 
	C192.824753,240.886719 192.459488,241.603241 191.775238,242.361511 
	C191.801041,241.652466 192.145813,240.901688 192.840302,240.160553 
z"/>
<path fill="#656565" opacity="1.000000" stroke="none" 
	d="
M143.848083,214.177460 
	C143.918671,214.902344 143.635529,215.625946 143.047836,216.420731 
	C142.993637,215.720001 143.244003,214.948074 143.848083,214.177460 
z"/>
<path fill="#656565" opacity="1.000000" stroke="none" 
	d="
M284.851868,171.122131 
	C285.289032,171.539490 285.553741,172.135056 285.709167,173.059937 
	C285.293030,172.692963 284.986206,171.996674 284.851868,171.122131 
z"/>
<path fill="#656565" opacity="1.000000" stroke="none" 
	d="
M257.510498,99.800888 
	C257.221344,99.296600 257.118652,98.903458 257.027405,98.203392 
	C257.560394,98.460022 258.081879,99.023582 258.558655,99.890747 
	C258.221283,100.158958 257.948944,100.064857 257.510498,99.800888 
z"/>
<path fill="#789C9C" opacity="1.000000" stroke="none" 
	d="
M210.286438,176.073853 
	C209.978516,175.969849 209.998520,175.488174 210.012497,175.247467 
	C210.783310,174.949570 211.540146,174.892365 212.649429,174.977921 
	C212.778107,175.389175 212.554337,175.657654 212.111099,176.086395 
	C211.459213,176.223724 211.026794,176.200790 210.286438,176.073853 
z"/>
<path fill="#656565" opacity="1.000000" stroke="none" 
	d="
M276.168427,120.712051 
	C275.675659,120.754799 275.149109,120.505157 274.662415,119.946548 
	C275.179749,119.898277 275.657196,120.158974 276.168427,120.712051 
z"/>
<path fill="#656565" opacity="1.000000" stroke="none" 
	d="
M278.068359,122.606369 
	C277.605682,122.638062 277.133972,122.372910 276.847839,121.965820 
	C277.375366,121.985771 277.717316,122.147644 278.068359,122.606369 
z"/>
<path fill="#656565" opacity="1.000000" stroke="none" 
	d="
M275.817902,150.559036 
	C276.062012,150.478729 276.359924,150.643372 276.667847,151.081543 
	C276.409119,151.171371 276.140411,150.987671 275.817902,150.559036 
z"/>
<path fill="#656565" opacity="1.000000" stroke="none" 
	d="
M283.140564,128.127167 
	C283.162811,128.186127 282.863464,128.463745 282.863464,128.463745 
	C282.863464,128.463745 282.601593,128.151657 282.766418,128.028702 
	C282.931274,127.905739 283.118286,128.068222 283.140564,128.127167 
z"/>
<path fill="#656565" opacity="1.000000" stroke="none" 
	d="
M282.117737,126.676468 
	C281.815552,126.809387 281.576599,126.715347 281.208984,126.257767 
	C281.447205,126.079323 281.814087,126.264412 282.117737,126.676468 
z"/>
<path fill="#656565" opacity="1.000000" stroke="none" 
	d="
M274.823303,149.552460 
	C275.061462,149.452637 275.353424,149.586639 275.664734,149.977493 
	C275.329742,150.238800 275.060730,150.089447 274.823303,149.552460 
z"/>
<path fill="#656565" opacity="1.000000" stroke="none" 
	d="
M281.087891,125.616776 
	C280.765503,125.765427 280.436584,125.625771 280.102142,125.196655 
	C280.424866,125.047615 280.753082,125.188034 281.087891,125.616776 
z"/>
<path fill="#656565" opacity="1.000000" stroke="none" 
	d="
M273.826508,148.567505 
	C274.061920,148.465622 274.354218,148.594498 274.666626,148.979034 
	C274.335632,149.242630 274.067841,149.097153 273.826508,148.567505 
z"/>
<path fill="#656565" opacity="1.000000" stroke="none" 
	d="
M272.714264,147.643005 
	C272.937225,147.520432 273.256744,147.622925 273.626831,147.988632 
	C273.322754,148.272552 273.033905,148.144638 272.714264,147.643005 
z"/>
<path fill="#656565" opacity="1.000000" stroke="none" 
	d="
M284.141357,129.493835 
	C283.696228,129.731171 283.479858,129.570282 283.541992,129.012131 
	C284.009705,128.799545 284.192932,128.959793 284.141357,129.493835 
z"/>
<path fill="#656565" opacity="1.000000" stroke="none" 
	d="
M203.717010,175.900620 
	C203.709518,176.147400 203.407974,176.314148 203.000671,176.302841 
	C203.070938,176.023392 203.246964,175.921982 203.717010,175.900620 
z"/>
<path fill="#81F8F8" opacity="1.000000" stroke="none" 
	d="
M270.367371,116.086365 
	C270.072723,116.233681 269.725769,116.193604 269.515686,115.856369 
	C269.938080,115.546432 270.158905,115.659691 270.367371,116.086365 
z"/>
<path fill="#656565" opacity="1.000000" stroke="none" 
	d="
M249.158417,85.466217 
	C248.929291,85.557945 248.618683,85.400833 248.252411,84.973831 
	C248.490128,84.875084 248.783554,85.046227 249.158417,85.466217 
z"/>
<path fill="#B9B9B8" opacity="1.000000" stroke="none" 
	d="
M143.526520,311.916809 
	C143.731323,311.883087 144.008621,311.939117 144.070251,312.181641 
	C143.854584,312.368103 143.598999,312.006561 143.526520,311.916809 
z"/>
<path fill="#81F8F8" opacity="1.000000" stroke="none" 
	d="
M269.323303,115.167282 
	C269.129974,115.233345 268.902954,115.216057 268.896240,115.116974 
	C269.116547,115.035187 269.289612,115.083939 269.323303,115.167282 
z"/>
<path fill="#656565" opacity="1.000000" stroke="none" 
	d="
M280.083984,124.615089 
	C279.762787,124.764511 279.433746,124.626556 279.098785,124.199646 
	C279.420624,124.049706 279.748352,124.188713 280.083984,124.615089 
z"/>
<path fill="#81F8F8" opacity="1.000000" stroke="none" 
	d="
M271.361816,117.075287 
	C271.078918,117.207687 270.741272,117.170746 270.557343,116.849487 
	C270.966949,116.578789 271.165619,116.692375 271.361816,117.075287 
z"/>
<path fill="#81F8F8" opacity="1.000000" stroke="none" 
	d="
M271.963074,119.007767 
	C271.691528,118.735901 271.534058,118.362534 271.602112,117.757431 
	C272.026886,117.540970 272.226166,117.556244 272.448151,117.887466 
	C272.412750,118.366898 272.354645,118.530380 272.296539,118.693871 
	C272.296539,118.693871 272.077118,118.906265 271.963074,119.007767 
z"/>
<path fill="#656565" opacity="1.000000" stroke="none" 
	d="
M272.535248,118.591148 
	C272.354645,118.530380 272.412750,118.366898 272.691223,118.062950 
	C272.911530,117.922493 272.987946,118.003883 273.009460,118.020294 
	C272.945312,118.187279 272.859619,118.337852 272.535248,118.591148 
z"/>
<path fill="#656565" opacity="1.000000" stroke="none" 
	d="
M273.993896,119.026382 
	C274.013824,119.029221 273.877106,119.377823 273.877106,119.377823 
	C273.877106,119.377823 273.603027,119.124672 273.771057,119.038956 
	C273.939056,118.953239 273.973969,119.023552 273.993896,119.026382 
z"/>
<path fill="#656565" opacity="1.000000" stroke="none" 
	d="
M279.079376,123.619110 
	C278.758667,123.769295 278.429169,123.632545 278.093719,123.207016 
	C278.415375,123.056213 278.742981,123.194191 279.079376,123.619110 
z"/>
<path fill="#B9B9B8" opacity="1.000000" stroke="none" 
	d="
M191.296539,179.688049 
	C191.357651,179.745178 191.447540,179.830338 191.537445,179.915497 
	C191.400711,179.930450 191.263992,179.945404 191.232071,179.797852 
	C191.336884,179.635345 191.325317,179.716064 191.296539,179.688049 
z"/>
<path fill="#EFFEFE" opacity="1.000000" stroke="none" 
	d="
M291.048767,313.015228 
	C290.999268,313.349274 290.855042,313.635590 290.135773,314.039307 
	C289.149017,314.477905 288.642609,314.751343 288.136230,315.024780 
	C286.063660,311.951080 284.041138,308.841858 281.898895,305.817444 
	C280.691040,304.112183 279.285950,302.546631 277.810120,300.552277 
	C279.972900,294.665924 282.295288,289.145447 285.070770,283.109375 
	C286.039276,281.061768 286.554657,279.529724 287.429871,278.006165 
	C289.232239,279.422089 290.847931,280.693573 292.082031,282.264771 
	C294.832886,285.767059 297.393097,289.419037 299.984833,293.370117 
	C296.975403,300.158539 294.012085,306.586884 291.048767,313.015228 
z"/>
<path fill="#D6D6D6" opacity="1.000000" stroke="none" 
	d="
M148.849335,273.173584 
	C149.383728,274.113129 149.644440,275.247314 149.814728,276.734344 
	C149.341415,275.847534 148.958542,274.607880 148.849335,273.173584 
z"/>
<path fill="#E5F2F2" opacity="1.000000" stroke="none" 
	d="
M196.831787,196.867905 
	C195.945847,197.555283 194.863373,198.019089 193.418121,198.493652 
	C194.248672,197.884399 195.441956,197.264374 196.831787,196.867905 
z"/>
<path fill="#D6D6D6" opacity="1.000000" stroke="none" 
	d="
M161.798996,222.478790 
	C161.319977,223.119308 160.927612,223.488464 160.281464,223.949463 
	C160.507492,223.071228 160.987289,222.101135 161.827423,221.125565 
	C162.087067,221.482544 161.986343,221.844986 161.798996,222.478790 
z"/>
<path fill="#B9B9B8" opacity="1.000000" stroke="none" 
	d="
M237.861359,348.920044 
	C237.476517,349.393097 236.950623,349.646515 236.128571,349.813660 
	C236.461700,349.385071 237.091003,349.042755 237.861359,348.920044 
z"/>
<path fill="#B9B9B8" opacity="1.000000" stroke="none" 
	d="
M241.860641,347.919250 
	C241.475266,348.386200 240.948212,348.634399 240.124634,348.801453 
	C240.458389,348.380341 241.088669,348.040405 241.860641,347.919250 
z"/>
<path fill="#D6D6D6" opacity="1.000000" stroke="none" 
	d="
M155.722992,295.179626 
	C156.284576,295.480530 156.629608,295.949341 156.962280,296.722656 
	C156.468750,296.467316 155.987595,295.907410 155.722992,295.179626 
z"/>
<path fill="#D6D6D6" opacity="1.000000" stroke="none" 
	d="
M201.986252,331.690857 
	C202.639938,331.643402 203.393829,331.894287 204.228088,332.461884 
	C203.567795,332.515442 202.827133,332.252350 201.986252,331.690857 
z"/>
<path fill="#D6D6D6" opacity="1.000000" stroke="none" 
	d="
M152.526794,287.728607 
	C153.078659,288.103668 153.455994,288.793457 153.784088,289.784851 
	C153.273972,289.405426 152.813110,288.724365 152.526794,287.728607 
z"/>
<path fill="#D6D6D6" opacity="1.000000" stroke="none" 
	d="
M149.926208,279.101654 
	C150.410446,279.483856 150.650208,279.995972 150.817001,280.795959 
	C150.389923,280.466400 150.035828,279.848999 149.926208,279.101654 
z"/>
<path fill="#B1D9D9" opacity="1.000000" stroke="none" 
	d="
M288.158813,315.381470 
	C288.642609,314.751343 289.149017,314.477905 289.944763,314.190765 
	C290.139679,314.536438 290.045258,314.895782 289.868073,315.523712 
	C289.487549,315.925781 289.203033,316.083191 288.700897,316.328308 
	C288.373810,316.174103 288.277618,315.956146 288.158813,315.381470 
z"/>
<path fill="#B1D9D9" opacity="1.000000" stroke="none" 
	d="
M287.229248,317.385559 
	C287.354401,317.884949 287.199036,318.275055 286.787537,318.862244 
	C286.670532,318.464935 286.809631,317.870605 287.229248,317.385559 
z"/>
<path fill="#E5F2F2" opacity="1.000000" stroke="none" 
	d="
M208.172989,177.863464 
	C208.379486,177.555725 208.894226,177.289230 209.710205,177.036133 
	C209.501358,177.334579 208.991287,177.619629 208.172989,177.863464 
z"/>
<path fill="#E5F2F2" opacity="1.000000" stroke="none" 
	d="
M192.359863,198.375702 
	C192.380356,198.681305 192.056488,198.940964 191.415466,199.234161 
	C191.404053,198.955048 191.709778,198.642395 192.359863,198.375702 
z"/>
<path fill="#E5F2F2" opacity="1.000000" stroke="none" 
	d="
M210.860931,231.732208 
	C215.055466,231.090668 219.750946,230.504761 224.460968,230.080475 
	C226.934875,229.857605 229.434280,229.917679 232.375671,229.808701 
	C231.653214,230.507462 230.495224,231.850052 229.298233,231.885818 
	C223.327087,232.064133 217.345688,231.899155 210.860931,231.732208 
z"/>
<path fill="#B8C7C7" opacity="1.000000" stroke="none" 
	d="
M250.476227,270.936890 
	C250.675735,271.455170 250.615570,272.042145 250.313507,272.814819 
	C250.119919,272.335541 250.168243,271.670593 250.476227,270.936890 
z"/>
<path fill="#B8C7C7" opacity="1.000000" stroke="none" 
	d="
M245.474106,282.956390 
	C245.778656,282.881683 245.878021,283.367126 245.854630,283.613647 
	C245.430298,284.220856 245.029358,284.581512 244.371811,285.026123 
	C244.466644,284.417053 244.818100,283.724091 245.474106,282.956390 
z"/>
<path fill="#B8C7C7" opacity="1.000000" stroke="none" 
	d="
M236.059113,292.026794 
	C235.975082,291.928131 235.846878,291.816711 235.718674,291.705292 
	C235.805817,291.744354 235.892975,291.783447 236.015564,291.960632 
	C236.051025,292.098724 236.014938,292.014069 236.059113,292.026794 
z"/>
<path fill="#B8C7C7" opacity="1.000000" stroke="none" 
	d="
M248.943878,276.124084 
	C249.133286,276.293457 249.126144,276.474487 248.941818,276.861694 
	C248.666809,276.848969 248.542740,276.636322 248.487762,276.407166 
	C248.471939,276.341248 248.655304,276.227539 248.943878,276.124084 
z"/>
<path fill="#E5F2F2" opacity="1.000000" stroke="none" 
	d="
M203.128021,234.174301 
	C203.002731,234.005005 203.319336,233.633743 203.558563,233.586685 
	C203.616318,233.807617 203.434830,234.075607 203.128021,234.174301 
z"/>
<path fill="#E5F2F2" opacity="1.000000" stroke="none" 
	d="
M209.095993,231.911118 
	C209.022003,231.685165 209.371674,231.421127 209.589325,231.430771 
	C209.594650,231.672623 209.382309,231.904846 209.095993,231.911118 
z"/>
<path fill="#ABFFFF" opacity="1.000000" stroke="none" 
	d="
M265.271454,142.147217 
	C264.459991,142.044525 264.033142,141.957687 263.279846,141.644409 
	C262.953369,141.417969 262.920837,141.101868 262.937683,140.721390 
	C262.638763,139.241440 262.511963,138.039215 261.978455,137.058182 
	C255.748810,125.602577 249.642685,114.072807 243.088455,102.804298 
	C240.614258,98.550468 237.066406,94.921112 234.007996,91.007088 
	C235.441513,89.172325 236.875031,87.337563 238.412231,85.222321 
	C238.745636,84.837448 238.975388,84.733047 239.577057,84.558220 
	C241.009811,84.642021 242.070679,84.796249 243.529877,85.016609 
	C244.355988,86.641411 244.513489,88.343506 245.252945,89.736748 
	C253.437408,105.157822 261.719421,120.527107 269.956512,135.920288 
	C271.654785,139.093948 273.276855,142.308380 274.878113,145.899307 
	C271.766815,144.917419 268.711456,143.540237 265.271454,142.147217 
z"/>
<path fill="#7FB3B3" opacity="1.000000" stroke="none" 
	d="
M281.947601,157.742386 
	C281.587738,157.595322 281.253510,157.140366 280.911621,156.389664 
	C281.260376,156.540787 281.616791,156.987640 281.947601,157.742386 
z"/>
<path fill="#789C9C" opacity="1.000000" stroke="none" 
	d="
M263.314819,109.213608 
	C263.577820,109.067078 263.808014,109.260025 263.899109,109.846664 
	C263.725464,109.859810 263.566101,109.630714 263.314819,109.213608 
z"/>
<path fill="#D3FEFE" opacity="1.000000" stroke="none" 
	d="
M251.469330,153.988907 
	C251.547852,160.698303 251.626373,167.407684 251.571854,174.571106 
	C249.615036,173.651169 247.238831,172.633270 246.077759,170.832108 
	C243.310501,166.539185 241.235641,161.805954 238.622040,157.404373 
	C237.802292,156.023849 236.156708,155.133713 234.480255,153.549088 
	C234.339081,141.733154 234.606781,130.387238 235.242859,119.060440 
	C236.676163,120.249107 238.023071,121.266113 238.753647,122.616554 
	C241.033752,126.831253 242.772247,131.364273 245.296295,135.415253 
	C248.448807,140.474899 250.895615,145.531036 250.082687,151.710022 
	C249.992310,152.396957 250.981049,153.225861 251.469330,153.988907 
z"/>
<path fill="#B1D9D9" opacity="1.000000" stroke="none" 
	d="
M234.874481,119.041336 
	C234.606781,130.387238 234.339081,141.733154 234.117203,153.547607 
	C234.050186,157.456009 233.937347,160.895844 233.602966,164.669281 
	C233.240097,149.964493 233.098801,134.926102 232.954224,119.413116 
	C232.950958,118.938522 233.325714,118.958221 233.807251,118.982094 
	C234.484039,119.017754 234.679260,119.029549 234.874481,119.041336 
z"/>
<path fill="#E0FFFF" opacity="1.000000" stroke="none" 
	d="
M300.030975,293.010040 
	C297.393097,289.419037 294.832886,285.767059 292.082031,282.264771 
	C290.847931,280.693573 289.232239,279.422089 287.410309,277.590729 
	C286.965271,276.062073 286.899658,274.957306 286.834045,273.852509 
	C287.002045,271.508606 287.170074,269.164673 287.403107,266.378326 
	C287.959045,259.928101 288.449982,253.920349 289.306305,247.492035 
	C290.639618,248.096390 291.860870,248.978882 292.531036,250.171143 
	C295.260986,255.027893 297.678497,260.064972 300.523621,264.849762 
	C301.516663,266.519836 303.411102,267.653900 305.132446,269.056335 
	C305.371063,269.079926 305.850403,269.067108 305.850403,269.067108 
	C305.856262,270.102386 305.862152,271.137665 305.476990,272.638855 
	C305.066254,274.400238 305.046509,275.695740 305.026794,276.991211 
	C304.999451,277.426117 304.972107,277.861023 304.507996,278.719452 
	C303.715027,281.761719 303.358917,284.380493 303.002808,286.999237 
	C302.959198,287.435211 302.915588,287.871185 302.436829,288.726868 
	C301.730927,290.469360 301.460175,291.792206 301.189453,293.115021 
	C301.189453,293.115021 301.151825,293.150269 300.881531,293.100128 
	C300.417816,293.036682 300.224396,293.023376 300.030975,293.010040 
z"/>
<path fill="#B1D9D9" opacity="1.000000" stroke="none" 
	d="
M286.623962,274.168640 
	C286.899658,274.957306 286.965271,276.062073 287.050476,277.582275 
	C286.554657,279.529724 286.039276,281.061768 285.235718,282.777893 
	C285.436310,280.136261 285.925079,277.310547 286.623962,274.168640 
z"/>
<path fill="#ABE4E4" opacity="1.000000" stroke="none" 
	d="
M288.167572,188.592453 
	C288.199951,188.136307 288.590607,188.068832 288.786591,188.040604 
	C288.674713,193.943512 293.261139,196.221344 297.545990,198.991028 
	C295.474945,205.199234 293.039337,211.412796 290.391479,217.898712 
	C289.445374,217.308380 288.711517,216.445679 287.906677,215.237503 
	C287.835663,214.892029 287.889709,214.430923 288.185333,213.976608 
	C288.375641,212.000671 288.270355,210.479050 288.165070,208.957428 
	C288.155121,202.321152 288.145142,195.684875 288.167572,188.592453 
z"/>
<path fill="#D3FEFE" opacity="1.000000" stroke="none" 
	d="
M304.893860,269.032776 
	C303.411102,267.653900 301.516663,266.519836 300.523621,264.849762 
	C297.678497,260.064972 295.260986,255.027893 292.531036,250.171143 
	C291.860870,248.978882 290.639618,248.096390 289.314331,247.031479 
	C288.957214,243.013733 288.756775,239.019211 289.087341,235.069107 
	C289.179443,233.968369 290.811188,232.151199 291.788971,232.115982 
	C296.051147,231.962448 300.332611,232.344543 304.899292,232.859314 
	C305.191467,233.186508 305.265411,233.572525 305.012878,233.951050 
	C304.804871,245.897308 304.849365,257.465057 304.893860,269.032776 
z"/>
<path fill="#B1D9D9" opacity="1.000000" stroke="none" 
	d="
M305.132446,269.056335 
	C304.849365,257.465057 304.804871,245.897308 305.101715,234.126343 
	C305.684143,239.499496 306.031464,245.073883 306.137146,250.652847 
	C306.247589,256.481781 306.125458,262.315094 305.977722,268.606812 
	C305.850403,269.067108 305.371063,269.079926 305.132446,269.056335 
z"/>
<path fill="#B1D9D9" opacity="1.000000" stroke="none" 
	d="
M299.984833,293.370117 
	C300.224396,293.023376 300.417816,293.036682 300.893372,293.122986 
	C299.439178,297.507660 297.702789,301.819305 295.873169,306.474060 
	C294.833527,308.263947 293.887054,309.710724 292.841553,311.469635 
	C292.354187,312.157257 291.965851,312.532715 291.313110,312.961670 
	C294.012085,306.586884 296.975403,300.158539 299.984833,293.370117 
z"/>
<path fill="#B1D9D9" opacity="1.000000" stroke="none" 
	d="
M303.269775,286.739075 
	C303.358917,284.380493 303.715027,281.761719 304.409821,279.032349 
	C304.344543,281.440796 303.940643,283.959869 303.269775,286.739075 
z"/>
<path fill="#B1D9D9" opacity="1.000000" stroke="none" 
	d="
M305.219238,276.693420 
	C305.046509,275.695740 305.066254,274.400238 305.401978,273.020630 
	C305.615875,274.089539 305.513824,275.242584 305.219238,276.693420 
z"/>
<path fill="#B1D9D9" opacity="1.000000" stroke="none" 
	d="
M301.443604,292.905090 
	C301.460175,291.792206 301.730927,290.469360 302.332214,289.039276 
	C302.341095,290.186371 302.019440,291.440765 301.443604,292.905090 
z"/>
<path fill="#BDFFFF" opacity="1.000000" stroke="none" 
	d="
M235.242859,119.060440 
	C234.679260,119.029549 234.484039,119.017754 233.994888,118.983948 
	C233.766907,109.953888 233.832855,100.945831 233.953400,91.472435 
	C237.066406,94.921112 240.614258,98.550468 243.088455,102.804298 
	C249.642685,114.072807 255.748810,125.602577 261.978455,137.058182 
	C262.511963,138.039215 262.638763,139.241440 262.756409,140.757935 
	C262.309326,141.255676 262.121552,141.410614 261.994995,141.639771 
	C261.521515,141.672623 261.048065,141.705460 260.222107,141.687103 
	C257.070923,141.926025 254.272232,142.216141 251.687943,142.752289 
	C251.842773,146.368103 251.783188,149.737854 251.596466,153.548264 
	C250.981049,153.225861 249.992310,152.396957 250.082687,151.710022 
	C250.895615,145.531036 248.448807,140.474899 245.296295,135.415253 
	C242.772247,131.364273 241.033752,126.831253 238.753647,122.616554 
	C238.023071,121.266113 236.676163,120.249107 235.242859,119.060440 
z"/>
<path fill="#7FB3B3" opacity="1.000000" stroke="none" 
	d="
M288.075195,209.368256 
	C288.270355,210.479050 288.375641,212.000671 288.221130,213.747253 
	C287.969330,212.574524 287.977325,211.176804 288.075195,209.368256 
z"/>
<path fill="#B8C7C7" opacity="1.000000" stroke="none" 
	d="
M262.233154,141.707352 
	C262.121552,141.410614 262.309326,141.255676 262.739563,141.138428 
	C262.920837,141.101868 262.953369,141.417969 262.959106,141.576447 
	C262.964844,141.734924 262.471313,141.774933 262.233154,141.707352 
z"/>
</svg>