<svg version="1.1" id="Layer_1" xmlns="http://www.w3.org/2000/svg" xmlns:xlink="http://www.w3.org/1999/xlink" x="0px" y="0px"
	 width="100%" viewBox="0 0 1486 433" enable-background="new 0 0 1486 433" xml:space="preserve">
<path fill="#010101" opacity="1.000000" stroke="none" 
	d="
M1083.000000,434.000000 
	C722.046936,434.000000 361.593872,434.000000 1.070393,434.000000 
	C1.070393,289.732422 1.070393,145.464783 1.070393,1.098576 
	C496.333313,1.098576 991.666687,1.098576 1486.973511,1.098576 
	C1486.973511,145.406235 1486.973511,289.703125 1486.973511,434.000000 
	C1352.464722,434.000000 1217.982300,434.000000 1083.000000,434.000000 
M548.994690,132.024414 
	C548.994690,132.024414 548.923218,132.023636 549.024658,131.437851 
	C548.706848,131.255371 548.389099,131.072906 548.058289,130.943207 
	C548.058289,130.943207 548.108276,130.918045 548.111023,130.220520 
	C546.144531,127.973892 544.392883,125.484619 542.175293,123.521622 
	C531.096558,113.714706 522.001282,102.396187 514.878723,89.403198 
	C511.600922,83.423935 507.775482,81.925049 502.135254,83.352547 
	C497.860382,84.434471 494.946747,88.638214 494.945557,94.666336 
	C494.940857,118.628578 495.003418,142.591675 495.232361,166.552628 
	C495.308105,174.482452 495.571442,174.479935 487.135773,174.743301 
	C483.727295,174.848282 480.318848,174.953278 476.400024,174.766464 
	C475.045227,175.023483 473.690430,175.280518 471.605713,175.372101 
	C470.383392,175.564667 469.161072,175.757233 467.457275,175.723618 
	C466.417542,175.982681 465.377838,176.241745 463.707397,176.439667 
	C463.111786,176.636017 462.516174,176.832382 461.546112,176.791397 
	C460.884338,177.092148 460.222565,177.392899 459.288147,177.668167 
	C459.090271,177.755829 459.010040,177.906143 458.301178,178.163391 
	C458.076904,178.272018 457.852600,178.380630 456.967468,178.255508 
	C456.309296,178.471893 455.651123,178.688263 454.586243,178.708710 
	C454.035675,179.090790 453.485138,179.472870 452.441254,179.930222 
	C452.441254,179.930222 452.003510,180.169922 451.246277,179.956390 
	C446.536011,182.304382 441.825745,184.652390 436.532745,187.223526 
	C435.688995,187.816513 434.845215,188.409515 433.287872,188.922455 
	C422.344879,195.679245 413.435822,204.918427 406.424164,215.278961 
	C389.932892,239.646896 387.201172,266.664673 397.094604,294.025085 
	C414.732239,342.802155 466.009979,365.326904 514.231506,345.849945 
	C522.750610,342.409027 530.072693,336.004608 538.564941,330.733276 
	C539.309692,329.931549 540.054443,329.129852 541.431274,328.431702 
	C544.430176,325.258148 547.429077,322.084595 550.889221,318.623505 
	C550.935974,318.448303 550.982727,318.273132 551.637207,317.916962 
	C552.220825,316.880615 552.804443,315.844299 553.829346,314.514130 
	C553.888916,314.347778 553.948547,314.181396 554.674805,313.944275 
	C563.350464,301.620209 568.736084,288.123108 569.626160,272.254883 
	C569.645020,271.528564 569.663940,270.802246 570.120239,269.216339 
	C570.163696,257.264130 570.265381,245.311432 570.172913,233.360275 
	C570.161926,231.947266 569.116760,229.336151 568.500122,229.320770 
	C562.437073,229.169601 556.362915,229.442474 550.294495,229.666092 
	C550.167542,229.670776 550.071838,230.525085 549.792297,231.909744 
	C549.833679,244.598282 549.875061,257.286835 549.555176,270.505127 
	C549.525085,271.138275 549.495056,271.771454 548.955383,272.929260 
	C547.868713,277.268494 547.149536,281.743683 545.606812,285.914215 
	C543.447754,291.751007 540.674866,297.360809 537.758667,303.504303 
	C537.526123,304.047485 537.293579,304.590668 536.453186,305.156860 
	C536.182678,305.836517 535.912170,306.516174 535.107300,307.602936 
	C533.967834,308.926117 532.828430,310.249268 530.995422,311.634460 
	C514.146118,327.737518 494.726868,335.617584 471.009216,331.606903 
	C419.366394,322.874054 394.460632,263.976013 427.984650,219.744827 
	C431.614838,214.955170 436.710114,211.275940 441.570831,206.940933 
	C441.570831,206.940933 441.858124,206.573120 442.557587,206.633820 
	C451.554352,201.123230 461.108917,197.114090 471.657776,195.733383 
	C474.399170,195.374557 477.122375,194.876663 480.771393,194.577484 
	C483.534821,194.483490 486.298218,194.389496 489.840393,194.739258 
	C494.086823,194.257599 495.640625,195.873703 495.419617,200.368927 
	C495.027985,208.334396 495.422241,216.335709 495.254669,224.317108 
	C495.216522,226.134644 494.228455,227.932205 492.810608,229.561249 
	C488.890381,229.628296 484.970154,229.695343 480.407745,229.341949 
	C474.046356,229.542648 467.967316,230.621750 462.462494,235.066772 
	C462.462494,235.066772 462.141052,235.430222 461.506927,235.335144 
	C460.634613,236.199936 459.762268,237.064728 458.367798,238.152008 
	C457.880951,238.720032 457.394135,239.288055 456.230286,239.924606 
	C450.998505,245.174774 447.956268,251.485367 446.851624,258.811584 
	C444.832581,272.202179 451.391052,286.663208 462.453644,292.514832 
	C466.252380,294.090881 470.051117,295.666962 474.045166,297.804474 
	C475.329468,297.775177 476.613800,297.745880 478.766205,297.955292 
	C480.542908,297.872986 482.319641,297.790710 484.464111,298.170105 
	C485.706238,297.876190 486.948334,297.582275 488.928406,297.187347 
	C491.983795,295.827271 495.039215,294.467224 498.557220,293.287231 
	C498.957733,293.208771 499.136475,292.966583 499.734619,292.436005 
	C500.183105,291.986115 500.631592,291.536224 501.668152,291.160156 
	C502.009735,290.729706 502.351349,290.299255 503.339172,289.678589 
	C504.884399,288.074677 506.429626,286.470734 508.585571,284.856720 
	C508.868347,284.175690 509.151154,283.494659 509.803375,282.399933 
	C509.868225,282.226837 509.933105,282.053711 510.648834,281.773834 
	C512.155579,275.904175 513.662292,270.034515 515.355652,263.221863 
	C515.223572,250.125641 515.091553,237.029404 515.409729,223.277222 
	C515.302368,214.857544 515.195007,206.437881 515.346863,197.108185 
	C515.322021,179.504272 515.297241,161.900360 515.931335,143.787521 
	C520.634644,143.841293 525.338013,143.895065 530.399902,144.215759 
	C530.399902,144.215759 530.846863,144.217972 531.161255,144.779343 
	C532.699646,145.603653 534.238098,146.427948 536.058716,147.818695 
	C537.314148,148.932892 538.569641,150.047089 539.950562,151.773224 
	C540.589722,152.558670 541.228943,153.344116 541.977051,154.859604 
	C544.166931,161.288574 547.621643,167.591019 548.280151,174.173187 
	C549.599792,187.364243 549.432312,200.707153 549.780823,213.989960 
	C549.859985,217.006409 549.540100,220.033340 549.403809,223.055450 
	C549.900024,223.278000 550.396240,223.500549 550.892456,223.723099 
	C551.523682,222.761703 552.184082,221.818069 552.781860,220.836380 
	C562.384460,205.067368 568.126526,188.045059 565.935791,169.536713 
	C564.976990,161.436554 560.844849,153.712021 558.085999,145.332382 
	C558.085999,145.332382 557.749390,144.977310 557.964722,144.355316 
	C557.312927,143.605606 556.661072,142.855881 555.900146,141.518890 
	C555.761414,141.376068 555.622620,141.233246 555.659546,140.643173 
	C555.659546,140.643173 555.376099,140.258926 555.376099,140.258926 
	C555.376099,140.258926 554.925720,140.416168 554.990173,140.149277 
	C554.990173,140.149277 554.737549,140.041702 554.951477,139.417587 
	C554.280518,138.743256 553.609497,138.068924 552.966431,137.107193 
	C552.966431,137.107193 552.690918,137.020935 552.894165,136.497467 
	C552.595032,136.334076 552.295898,136.170685 552.000000,136.000000 
	C552.000000,136.000000 551.992981,136.002075 552.071533,135.343903 
	C551.348755,134.682617 550.625916,134.021332 549.951538,133.114044 
	C549.951538,133.114044 549.705017,133.068207 549.876587,132.532684 
	C549.573792,132.385391 549.270996,132.238098 548.994690,132.024414 
M695.270874,342.530701 
	C695.867371,342.978790 696.463867,343.426910 697.315979,344.419586 
	C699.235168,343.755157 701.845337,343.662537 702.951660,342.325500 
	C707.316772,337.049835 713.712158,336.910858 717.220764,342.563049 
	C718.810242,345.123535 721.007629,346.384094 723.310852,344.478271 
	C724.662048,343.360229 725.861450,340.282623 725.264282,338.880798 
	C721.957825,331.117981 718.285034,323.488190 714.289978,316.053436 
	C712.767883,313.220703 709.978455,311.699280 706.500000,315.400085 
	C702.720886,323.311096 698.941711,331.222107 694.693237,339.473206 
	C694.820374,340.307098 694.947510,341.140991 695.270874,342.530701 
M622.884277,342.915924 
	C622.884277,342.915924 622.781250,342.851624 623.544678,342.838074 
	C624.075012,338.469086 625.952271,336.179962 630.939270,336.157928 
	C632.969788,336.148956 634.987610,333.272034 637.288025,331.360260 
	C637.543152,331.212250 637.768738,331.028076 638.581604,330.560822 
	C641.558899,324.944702 641.071228,320.918579 636.632690,317.197693 
	C630.431641,313.641663 623.971375,312.545532 616.340637,315.219727 
	C616.125244,323.842651 615.882568,332.465118 615.748413,341.089325 
	C615.738220,341.742950 616.497742,342.408539 617.222961,343.756256 
	C618.214050,343.881653 619.205200,344.007080 620.546692,344.563293 
	C621.335754,343.974915 622.124817,343.386536 622.884277,342.915924 
M842.736572,340.584900 
	C842.825989,341.069000 842.915405,341.553131 843.336060,342.802216 
	C843.709595,343.211945 844.083130,343.621704 844.621582,344.499359 
	C850.774780,344.782959 852.472595,342.856018 850.281128,337.462494 
	C849.068604,334.478424 849.189575,332.119507 850.459412,329.099976 
	C853.816956,321.116302 847.544373,312.915131 838.254761,313.942963 
	C835.430176,313.918884 832.605591,313.894806 829.614807,313.539398 
	C829.242004,313.672089 828.869141,313.804779 828.075562,314.335205 
	C827.683655,314.754150 827.291748,315.173126 826.329041,316.118286 
	C826.168945,321.859100 825.866028,327.600952 825.907043,333.340332 
	C825.928589,336.363800 826.550659,339.382996 827.227783,342.853516 
	C827.616150,343.245300 828.004517,343.637054 828.449524,344.398468 
	C828.869141,344.306366 829.288696,344.214233 830.510986,344.054901 
	C830.779541,344.057617 831.048035,344.060303 831.724365,344.377655 
	C832.805847,343.308990 834.087708,342.374054 834.914673,341.135498 
	C835.807678,339.797791 836.275513,338.176270 836.928772,336.678528 
	C838.630981,337.657196 840.333191,338.635864 842.332275,339.976501 
	C842.332275,339.976501 842.760681,340.165009 842.736572,340.584900 
M656.487610,341.483398 
	C657.176147,342.504059 657.830933,344.382141 658.558655,344.410828 
	C664.841675,344.658508 671.144653,344.713196 677.421326,344.407806 
	C678.197510,344.370026 679.402588,341.881836 679.391602,340.537415 
	C679.383057,339.485474 677.971497,337.853577 676.875854,337.534210 
	C675.022461,336.993988 672.906372,337.082672 670.936096,337.272919 
	C666.904480,337.662109 665.169983,336.238312 665.431702,331.973907 
	C665.726807,327.165955 665.835876,322.279907 665.252747,317.522614 
	C665.060791,315.956604 662.659607,313.941986 660.910034,313.474457 
	C658.877441,312.931335 655.909119,313.262787 656.632385,317.958862 
	C656.692139,325.627625 656.751892,333.296356 656.487610,341.483398 
M669.771667,249.328583 
	C674.595947,242.795441 679.420166,236.262283 684.244446,229.729141 
	C684.728821,229.967529 685.213257,230.205933 685.697693,230.444336 
	C685.790894,232.199997 685.960938,233.955505 685.964783,235.711380 
	C685.988647,246.541931 685.946167,257.372681 685.985718,268.203156 
	C686.006348,273.846344 687.954224,276.127472 693.462952,276.841492 
	C695.596130,277.117981 697.797485,277.130463 699.946350,276.972534 
	C705.236938,276.583618 707.936646,274.009918 707.961670,268.664520 
	C708.074036,244.671066 708.107300,220.675858 707.858582,196.684494 
	C707.835266,194.435303 706.191711,191.408646 704.341492,190.125641 
	C699.330933,186.650894 689.244263,188.827637 685.402100,193.764267 
	C678.137268,203.098709 670.980957,212.517578 663.760498,221.886703 
	C662.680298,223.288300 661.496887,224.610352 660.013550,226.385208 
	C658.585327,224.748093 657.462891,223.591003 656.486572,222.321548 
	C649.681458,213.473389 642.560181,204.840393 636.238892,195.657562 
	C631.716003,189.087280 625.860352,187.970825 618.827942,189.025482 
	C614.874390,189.618423 612.441223,191.742783 612.272522,195.925323 
	C612.091431,200.414413 611.848145,204.906815 611.863342,209.396988 
	C611.930115,229.051025 611.890747,248.708725 612.300781,268.356537 
	C612.450623,275.536774 615.841858,277.491058 624.867493,277.027496 
	C631.751648,276.673889 634.209839,274.229950 634.240479,267.476196 
	C634.288757,256.812439 634.235962,246.148224 634.269958,235.484360 
	C634.275330,233.803864 634.511719,232.124084 634.760315,228.900818 
	C636.926697,231.522049 638.099426,232.828049 639.146240,234.228149 
	C642.737732,239.031799 646.200012,243.934265 649.868958,248.677307 
	C655.686951,256.198486 662.418579,256.564911 669.771667,249.328583 
M824.415039,225.498199 
	C824.397705,216.504288 824.502380,207.507996 824.326050,198.517197 
	C824.173340,190.731552 821.298523,188.362747 812.786560,188.474518 
	C804.806152,188.579285 802.263611,191.046799 802.229492,198.939133 
	C802.180603,210.264877 802.458374,221.598862 802.094849,232.913177 
	C801.942749,237.644608 801.125854,242.563126 799.502197,246.989822 
	C797.082703,253.586136 791.758179,256.689758 784.596191,256.464233 
	C777.448975,256.239166 772.471680,252.837769 770.261169,246.116486 
	C769.033203,242.382721 768.225525,238.350586 768.136536,234.432312 
	C767.864502,222.446213 768.144043,210.448715 767.988159,198.458496 
	C767.888794,190.816513 765.103943,188.478073 756.894043,188.468506 
	C748.635498,188.458893 745.856873,190.739777 745.772400,198.355072 
	C745.628296,211.343307 745.609619,224.337692 745.870605,237.322830 
	C745.953308,241.433273 746.666992,245.648193 747.826477,249.599731 
	C753.113953,267.619232 767.103333,278.438477 784.705933,278.466858 
	C802.758667,278.495972 817.165100,267.941925 822.069641,249.709778 
	C824.063416,242.298187 823.703674,234.253510 824.415039,225.498199 
M887.058411,256.043091 
	C884.252197,253.704956 881.509216,251.285431 878.626099,249.046478 
	C873.480469,245.050720 869.724731,245.363754 864.978271,250.010513 
	C859.702759,255.175217 859.240356,258.565002 863.072571,263.983978 
	C871.258728,275.559631 886.835327,280.933380 901.832520,277.355957 
	C916.896851,273.762512 925.357361,263.799133 925.643982,249.314590 
	C925.925903,235.064056 919.649719,227.953613 902.920837,223.661972 
	C898.572266,222.546387 894.107544,221.819519 889.846985,220.446060 
	C886.544189,219.381256 883.704712,217.217804 884.441711,213.134048 
	C885.151306,209.202408 888.468933,207.702164 891.883362,207.721649 
	C894.534973,207.736801 897.239014,208.986298 899.801331,209.989624 
	C901.148682,210.517181 902.170227,211.819397 903.462219,212.555115 
	C909.023987,215.722076 913.439636,214.263077 917.730164,207.935501 
	C921.714172,202.059769 921.528381,198.702484 916.054016,194.671204 
	C903.875610,185.703064 890.352478,184.562393 876.809204,190.423737 
	C866.806641,194.752731 861.918213,203.458267 862.071350,214.514191 
	C862.218506,225.140656 866.721680,233.179184 876.933167,237.190903 
	C881.874023,239.131989 887.025391,240.538452 892.085144,242.175385 
	C894.453491,242.941559 897.189941,243.186478 899.098877,244.575623 
	C900.867188,245.862457 902.871033,248.437897 902.740112,250.303329 
	C902.585999,252.499405 900.603699,255.871582 898.775513,256.364380 
	C895.351929,257.287201 891.468262,256.503204 887.058411,256.043091 
M1023.511230,251.205475 
	C1035.362183,276.865601 1067.543823,286.297211 1090.660034,270.679718 
	C1093.045410,269.068176 1096.418457,265.338409 1095.893433,263.681549 
	C1094.417358,259.023773 1091.810303,254.276825 1088.385864,250.814713 
	C1085.198120,247.592056 1081.265381,250.567902 1077.978516,252.618027 
	C1068.623047,258.453369 1056.951904,257.235016 1048.913330,249.613495 
	C1040.796509,241.917816 1039.725830,227.977341 1046.557983,218.947647 
	C1053.831787,209.334244 1067.842529,206.989044 1078.406128,213.616745 
	C1085.340210,217.967209 1089.401489,216.818344 1094.373413,209.099686 
	C1098.108398,203.301376 1096.932861,199.150696 1090.403076,195.080383 
	C1072.609009,183.988419 1051.635864,185.604126 1034.574707,199.380981 
	C1020.466003,210.773865 1016.010376,230.825333 1023.511230,251.205475 
M965.728943,275.851349 
	C978.553711,279.912445 983.775696,276.283844 983.777283,263.305145 
	C983.779297,247.001251 983.780518,230.697357 983.776367,214.393463 
	C983.774963,208.737137 983.892334,203.076416 983.708679,197.425720 
	C983.519043,191.590637 981.312988,189.380875 975.499268,188.876907 
	C973.521057,188.705429 971.500305,188.714569 969.523315,188.900314 
	C964.247498,189.395996 961.795044,191.526581 961.761780,196.790649 
	C961.610413,220.742722 961.615234,244.697296 961.859436,268.647980 
	C961.882812,270.939911 963.954163,273.210938 965.728943,275.851349 
M808.668274,321.368195 
	C811.828003,316.282379 810.548401,313.329468 804.904968,313.133301 
	C799.913147,312.959839 794.909729,313.093872 789.911743,313.135742 
	C786.477539,313.164520 784.680115,314.862305 784.690918,318.384369 
	C784.712952,325.548889 784.675720,332.713593 784.712830,339.877991 
	C784.730957,343.372009 786.524902,344.988892 790.058960,344.915955 
	C794.722290,344.819672 799.389282,344.874603 804.054443,344.902832 
	C807.216736,344.921967 810.358826,344.880646 810.341614,340.500549 
	C810.325439,336.373260 807.445923,335.740906 804.171326,335.730164 
	C801.207642,335.720459 798.244019,335.728119 795.280334,335.728119 
	C795.277954,335.174744 795.275574,334.621368 795.273132,334.067963 
	C797.345459,333.914368 799.419128,333.777649 801.489685,333.603210 
	C804.567200,333.343964 806.392334,331.403687 805.558289,328.634766 
	C805.063049,326.990753 802.814392,325.471741 801.011658,324.738861 
	C799.230286,324.014679 797.017944,324.350464 794.994690,324.221252 
	C794.990601,323.710846 794.986511,323.200409 794.982483,322.689972 
	C799.312439,322.357727 803.642456,322.025482 808.668274,321.368195 
M747.832092,327.778168 
	C751.482178,331.057922 750.960083,335.411865 750.872925,339.645844 
	C750.819702,342.224335 751.170593,344.146454 754.590210,344.133850 
	C758.060242,344.121063 758.444519,342.085358 758.154114,339.585968 
	C757.625305,335.036438 759.261169,331.321869 761.944031,327.811768 
	C763.820740,325.356445 765.769958,322.839752 766.987244,320.045715 
	C767.612000,318.611816 767.358704,315.815979 766.346497,314.862183 
	C764.515198,313.136597 762.305420,313.432465 760.815979,316.211548 
	C759.174561,319.274231 757.077209,322.092560 755.040710,325.229431 
	C752.671326,321.788361 750.792114,318.533264 748.344116,315.784760 
	C747.467834,314.800873 744.915466,314.343292 743.664185,314.884644 
	C741.751770,315.712067 740.550598,317.594879 742.362000,319.943542 
	C744.152466,322.265137 745.766113,324.723175 747.832092,327.778168 
z"/>
<path fill="#F6F6E7" opacity="1.000000" stroke="none" 
	d="
M669.554138,249.605728 
	C662.418579,256.564911 655.686951,256.198486 649.868958,248.677307 
	C646.200012,243.934265 642.737732,239.031799 639.146240,234.228149 
	C638.099426,232.828049 636.926697,231.522049 634.760315,228.900818 
	C634.511719,232.124084 634.275330,233.803864 634.269958,235.484360 
	C634.235962,246.148224 634.288757,256.812439 634.240479,267.476196 
	C634.209839,274.229950 631.751648,276.673889 624.867493,277.027496 
	C615.841858,277.491058 612.450623,275.536774 612.300781,268.356537 
	C611.890747,248.708725 611.930115,229.051025 611.863342,209.396988 
	C611.848145,204.906815 612.091431,200.414413 612.272522,195.925323 
	C612.441223,191.742783 614.874390,189.618423 618.827942,189.025482 
	C625.860352,187.970825 631.716003,189.087280 636.238892,195.657562 
	C642.560181,204.840393 649.681458,213.473389 656.486572,222.321548 
	C657.462891,223.591003 658.585327,224.748093 660.013550,226.385208 
	C661.496887,224.610352 662.680298,223.288300 663.760498,221.886703 
	C670.980957,212.517578 678.137268,203.098709 685.402100,193.764267 
	C689.244263,188.827637 699.330933,186.650894 704.341492,190.125641 
	C706.191711,191.408646 707.835266,194.435303 707.858582,196.684494 
	C708.107300,220.675858 708.074036,244.671066 707.961670,268.664520 
	C707.936646,274.009918 705.236938,276.583618 699.946350,276.972534 
	C697.797485,277.130463 695.596130,277.117981 693.462952,276.841492 
	C687.954224,276.127472 686.006348,273.846344 685.985718,268.203156 
	C685.946167,257.372681 685.988647,246.541931 685.964783,235.711380 
	C685.960938,233.955505 685.790894,232.199997 685.697693,230.444336 
	C685.213257,230.205933 684.728821,229.967529 684.244446,229.729141 
	C679.420166,236.262283 674.595947,242.795441 669.554138,249.605728 
z"/>
<path fill="#FEFFFF" opacity="1.000000" stroke="none" 
	d="
M531.688965,311.572449 
	C532.828430,310.249268 533.967834,308.926117 535.673828,307.385040 
	C536.513916,306.489380 536.787476,305.811615 537.061035,305.133850 
	C537.293579,304.590668 537.526123,304.047485 538.252319,303.319794 
	C539.179810,302.760040 539.613708,302.384827 540.395081,302.045563 
	C541.952881,303.309235 543.355835,304.401367 544.335144,305.791840 
	C546.650269,309.079132 548.763977,312.508209 550.914978,316.105194 
	C550.870789,316.330414 550.729858,316.767242 550.441284,316.872833 
	C549.724731,317.616943 549.296692,318.255463 548.726196,319.190491 
	C545.988892,322.434082 543.394043,325.381104 540.799133,328.328125 
	C540.054443,329.129852 539.309692,329.931549 537.893555,330.735291 
	C535.611755,331.545654 533.868408,332.164948 532.410706,333.190216 
	C503.530609,353.502106 472.767151,357.739349 440.907593,341.766357 
	C415.055298,328.805176 400.009674,306.794281 395.043396,278.371155 
	C391.782318,259.707031 394.531677,241.625778 403.002045,224.534042 
	C408.177795,214.090271 416.511047,206.280807 424.688110,198.326553 
	C427.836609,195.263840 430.899506,192.113113 434.001404,189.002502 
	C434.845215,188.409515 435.688995,187.816513 437.179688,187.212158 
	C441.845734,185.526184 445.888580,183.904861 449.864777,182.133987 
	C450.703003,181.760681 451.296997,180.838943 452.003510,180.169922 
	C452.003510,180.169922 452.441254,179.930222 453.003418,180.034546 
	C454.026154,180.096283 454.486786,180.053696 455.132751,180.227707 
	C456.088165,179.792618 456.858246,179.140930 457.628326,178.489243 
	C457.852600,178.380630 458.076904,178.272018 458.656250,178.476746 
	C463.608276,178.486511 468.205200,178.182922 473.065308,177.821930 
	C473.555634,177.496780 473.782837,177.229034 474.388367,176.932098 
	C475.526703,176.892487 476.286682,176.882080 477.036987,177.294464 
	C478.713196,182.340805 480.399109,186.964355 482.018860,191.406433 
	C478.879822,192.201645 475.424194,193.077057 471.667816,193.998993 
	C470.962158,194.069885 470.557251,194.094269 469.771790,194.076050 
	C468.266083,194.368973 467.140900,194.704514 466.007568,195.020020 
	C465.999420,195.000000 466.029053,195.031281 465.659821,195.013000 
	C464.199127,195.343063 463.107635,195.691422 462.008423,196.019531 
	C462.000641,195.999252 462.029633,196.031937 461.689270,196.015640 
	C460.565430,196.328064 459.781982,196.656784 458.678101,197.139450 
	C452.857849,200.386642 447.357971,203.479874 441.858124,206.573120 
	C441.858124,206.573120 441.570831,206.940933 440.984436,206.955780 
	C437.682587,208.797699 434.872284,210.499817 432.268707,212.474487 
	C423.102325,219.426544 418.231812,229.328781 414.949860,239.855591 
	C412.542358,247.577530 410.493958,255.745850 410.364014,263.748962 
	C410.235138,271.685211 412.192139,279.636505 414.982910,287.449188 
	C419.522919,300.158783 426.645813,310.564880 437.272644,318.657257 
	C461.136078,336.829407 486.634827,340.265320 513.683960,326.445923 
	C520.668457,322.877563 527.688110,318.943634 531.688965,311.572449 
z"/>
<path fill="#F5F5E6" opacity="1.000000" stroke="none" 
	d="
M824.414917,225.997528 
	C823.703674,234.253510 824.063416,242.298187 822.069641,249.709778 
	C817.165100,267.941925 802.758667,278.495972 784.705933,278.466858 
	C767.103333,278.438477 753.113953,267.619232 747.826477,249.599731 
	C746.666992,245.648193 745.953308,241.433273 745.870605,237.322830 
	C745.609619,224.337692 745.628296,211.343307 745.772400,198.355072 
	C745.856873,190.739777 748.635498,188.458893 756.894043,188.468506 
	C765.103943,188.478073 767.888794,190.816513 767.988159,198.458496 
	C768.144043,210.448715 767.864502,222.446213 768.136536,234.432312 
	C768.225525,238.350586 769.033203,242.382721 770.261169,246.116486 
	C772.471680,252.837769 777.448975,256.239166 784.596191,256.464233 
	C791.758179,256.689758 797.082703,253.586136 799.502197,246.989822 
	C801.125854,242.563126 801.942749,237.644608 802.094849,232.913177 
	C802.458374,221.598862 802.180603,210.264877 802.229492,198.939133 
	C802.263611,191.046799 804.806152,188.579285 812.786560,188.474518 
	C821.298523,188.362747 824.173340,190.731552 824.326050,198.517197 
	C824.502380,207.507996 824.397705,216.504288 824.414917,225.997528 
z"/>
<path fill="#F5F5E5" opacity="1.000000" stroke="none" 
	d="
M887.417236,256.236145 
	C891.468262,256.503204 895.351929,257.287201 898.775513,256.364380 
	C900.603699,255.871582 902.585999,252.499405 902.740112,250.303329 
	C902.871033,248.437897 900.867188,245.862457 899.098877,244.575623 
	C897.189941,243.186478 894.453491,242.941559 892.085144,242.175385 
	C887.025391,240.538452 881.874023,239.131989 876.933167,237.190903 
	C866.721680,233.179184 862.218506,225.140656 862.071350,214.514191 
	C861.918213,203.458267 866.806641,194.752731 876.809204,190.423737 
	C890.352478,184.562393 903.875610,185.703064 916.054016,194.671204 
	C921.528381,198.702484 921.714172,202.059769 917.730164,207.935501 
	C913.439636,214.263077 909.023987,215.722076 903.462219,212.555115 
	C902.170227,211.819397 901.148682,210.517181 899.801331,209.989624 
	C897.239014,208.986298 894.534973,207.736801 891.883362,207.721649 
	C888.468933,207.702164 885.151306,209.202408 884.441711,213.134048 
	C883.704712,217.217804 886.544189,219.381256 889.846985,220.446060 
	C894.107544,221.819519 898.572266,222.546387 902.920837,223.661972 
	C919.649719,227.953613 925.925903,235.064056 925.643982,249.314590 
	C925.357361,263.799133 916.896851,273.762512 901.832520,277.355957 
	C886.835327,280.933380 871.258728,275.559631 863.072571,263.983978 
	C859.240356,258.565002 859.702759,255.175217 864.978271,250.010513 
	C869.724731,245.363754 873.480469,245.050720 878.626099,249.046478 
	C881.509216,251.285431 884.252197,253.704956 887.417236,256.236145 
z"/>
<path fill="#F5F5E5" opacity="1.000000" stroke="none" 
	d="
M1023.363159,250.854065 
	C1016.010376,230.825333 1020.466003,210.773865 1034.574707,199.380981 
	C1051.635864,185.604126 1072.609009,183.988419 1090.403076,195.080383 
	C1096.932861,199.150696 1098.108398,203.301376 1094.373413,209.099686 
	C1089.401489,216.818344 1085.340210,217.967209 1078.406128,213.616745 
	C1067.842529,206.989044 1053.831787,209.334244 1046.557983,218.947647 
	C1039.725830,227.977341 1040.796509,241.917816 1048.913330,249.613495 
	C1056.951904,257.235016 1068.623047,258.453369 1077.978516,252.618027 
	C1081.265381,250.567902 1085.198120,247.592056 1088.385864,250.814713 
	C1091.810303,254.276825 1094.417358,259.023773 1095.893433,263.681549 
	C1096.418457,265.338409 1093.045410,269.068176 1090.660034,270.679718 
	C1067.543823,286.297211 1035.362183,276.865601 1023.363159,250.854065 
z"/>
<path fill="#FEFFFF" opacity="1.000000" stroke="none" 
	d="
M473.849854,297.243042 
	C470.051117,295.666962 466.252380,294.090881 462.234375,291.913574 
	C449.609161,281.079163 445.188202,268.228333 450.141266,252.803421 
	C451.608368,248.234543 454.609283,244.158173 456.907349,239.856110 
	C457.394135,239.288055 457.880951,238.720032 458.956940,238.103973 
	C460.411072,237.180710 461.276062,236.305466 462.141052,235.430222 
	C462.141052,235.430222 462.462494,235.066772 463.067780,235.085617 
	C466.443909,234.110138 469.214783,233.115829 472.098633,232.264252 
	C472.460358,232.250809 472.709106,232.094620 472.967255,231.942139 
	C472.976654,231.945831 472.960266,231.941071 473.430878,231.963654 
	C479.971436,231.986221 486.044891,232.094818 492.108643,231.901169 
	C493.436676,231.858749 494.730316,230.739426 496.292419,229.808075 
	C496.733887,227.348602 496.922668,225.197083 497.476868,223.035065 
	C499.390839,224.330688 501.385345,225.360107 502.401062,226.996887 
	C505.024567,231.224503 506.546051,236.310120 509.755157,239.954590 
	C513.472717,244.176437 512.807556,248.681305 513.041504,253.364090 
	C513.219299,256.924408 513.706543,260.469269 514.049072,264.405609 
	C513.298828,268.530914 512.555481,272.271637 511.600342,276.181641 
	C511.258789,276.865875 511.129120,277.380798 510.906616,278.235046 
	C510.541840,279.676422 510.269897,280.778473 509.997986,281.880554 
	C509.933105,282.053711 509.868225,282.226837 509.380463,282.538422 
	C508.658356,282.817688 508.366638,282.972595 507.910278,283.157593 
	C507.649200,283.243530 507.481293,283.319214 507.485870,283.382385 
	C507.501129,283.591736 507.578430,283.796570 507.650757,284.245667 
	C507.669525,284.488159 507.974884,284.866852 507.974854,284.866821 
	C506.429626,286.470734 504.884399,288.074677 502.803528,289.631836 
	C501.871948,290.085510 501.476013,290.585938 501.080078,291.086365 
	C500.631592,291.536224 500.183105,291.986115 499.376038,292.238953 
	C498.709869,292.396942 498.402222,292.752045 498.094604,293.107147 
	C495.039215,294.467224 491.983795,295.827271 488.225922,297.060486 
	C486.381073,297.191925 485.238708,297.450165 484.096344,297.708435 
	C482.319641,297.790710 480.542908,297.872986 478.115448,297.539551 
	C476.259735,297.163574 475.054810,297.203308 473.849854,297.243042 
z"/>
<path fill="#F5F5E5" opacity="1.000000" stroke="none" 
	d="
M965.401855,275.671509 
	C963.954163,273.210938 961.882812,270.939911 961.859436,268.647980 
	C961.615234,244.697296 961.610413,220.742722 961.761780,196.790649 
	C961.795044,191.526581 964.247498,189.395996 969.523315,188.900314 
	C971.500305,188.714569 973.521057,188.705429 975.499268,188.876907 
	C981.312988,189.380875 983.519043,191.590637 983.708679,197.425720 
	C983.892334,203.076416 983.774963,208.737137 983.776367,214.393463 
	C983.780518,230.697357 983.779297,247.001251 983.777283,263.305145 
	C983.775696,276.283844 978.553711,279.912445 965.401855,275.671509 
z"/>
<path fill="#E4F1F1" opacity="1.000000" stroke="none" 
	d="
M514.056091,264.021027 
	C513.706543,260.469269 513.219299,256.924408 513.041504,253.364090 
	C512.807556,248.681305 513.472717,244.176437 509.755157,239.954590 
	C506.546051,236.310120 505.024567,231.224503 502.401062,226.996887 
	C501.385345,225.360107 499.390839,224.330688 497.422760,222.564301 
	C496.992157,214.969681 496.992615,207.835281 496.966675,200.700989 
	C496.941376,193.740677 496.045746,193.024872 489.061646,194.295502 
	C486.298218,194.389496 483.534821,194.483490 480.002441,194.283188 
	C476.811829,193.976746 474.390198,193.964615 471.968536,193.952469 
	C475.424194,193.077057 478.879822,192.201645 482.018860,191.406433 
	C480.399109,186.964355 478.713196,182.340805 477.491089,177.266693 
	C481.325958,176.646439 484.696991,176.476746 488.461121,176.436493 
	C491.206390,176.288025 493.558563,176.010147 495.938538,176.132202 
	C500.739197,185.857361 505.457245,195.211777 510.376740,204.459045 
	C510.828583,205.308365 512.566772,205.473358 513.791992,206.419388 
	C514.237366,212.566162 514.598389,218.249680 514.959473,223.933182 
	C515.091553,237.029404 515.223572,250.125641 514.989624,263.614288 
	C514.434448,264.011475 514.245239,264.016235 514.056091,264.021027 
z"/>
<path fill="#BBBBBB" opacity="1.000000" stroke="none" 
	d="
M433.644653,188.962463 
	C430.899506,192.113113 427.836609,195.263840 424.688110,198.326553 
	C416.511047,206.280807 408.177795,214.090271 403.002045,224.534042 
	C394.531677,241.625778 391.782318,259.707031 395.043396,278.371155 
	C400.009674,306.794281 415.055298,328.805176 440.907593,341.766357 
	C472.767151,357.739349 503.530609,353.502106 532.410706,333.190216 
	C533.868408,332.164948 535.611755,331.545654 537.584839,330.853027 
	C530.072693,336.004608 522.750610,342.409027 514.231506,345.849945 
	C466.009979,365.326904 414.732239,342.802155 397.094604,294.025085 
	C387.201172,266.664673 389.932892,239.646896 406.424164,215.278961 
	C413.435822,204.918427 422.344879,195.679245 433.644653,188.962463 
z"/>
<path fill="#BBBBBB" opacity="1.000000" stroke="none" 
	d="
M531.342163,311.603455 
	C527.688110,318.943634 520.668457,322.877563 513.683960,326.445923 
	C486.634827,340.265320 461.136078,336.829407 437.272644,318.657257 
	C426.645813,310.564880 419.522919,300.158783 414.982910,287.449188 
	C412.192139,279.636505 410.235138,271.685211 410.364014,263.748962 
	C410.493958,255.745850 412.542358,247.577530 414.949860,239.855591 
	C418.231812,229.328781 423.102325,219.426544 432.268707,212.474487 
	C434.872284,210.499817 437.682587,208.797699 440.761932,207.026123 
	C436.710114,211.275940 431.614838,214.955170 427.984650,219.744827 
	C394.460632,263.976013 419.366394,322.874054 471.009216,331.606903 
	C494.726868,335.617584 514.146118,327.737518 531.342163,311.603455 
z"/>
<path fill="#E1FFFF" opacity="1.000000" stroke="none" 
	d="
M549.464966,272.404602 
	C549.495056,271.771454 549.525085,271.138275 550.142334,270.187439 
	C551.141663,267.032349 551.816650,264.203552 551.910583,261.355621 
	C552.097900,255.677399 551.966125,249.988647 551.966125,243.660141 
	C553.557007,244.544830 554.203430,244.675079 554.375061,245.033035 
	C560.095642,256.964600 570.782043,267.365906 566.031921,282.556335 
	C565.890991,283.007172 566.040710,283.548920 566.034546,284.278809 
	C566.014282,284.509369 565.975220,284.971313 565.735474,285.159790 
	C565.386169,285.928040 565.276550,286.507843 565.141357,287.406250 
	C565.077148,288.149261 565.038574,288.573669 564.742188,289.209473 
	C564.328308,290.284241 564.172302,291.147552 563.977356,292.233551 
	C563.938416,292.456207 563.859802,292.901398 563.670776,293.047180 
	C563.242737,293.428436 563.115784,293.713776 563.065308,294.056458 
	C563.029602,294.063934 562.979126,294.011292 562.637573,293.956299 
	C560.659790,291.530609 559.188599,289.021454 557.345520,286.824310 
	C555.031128,284.065308 552.412048,281.561951 549.919434,278.618286 
	C549.937012,277.847870 549.959595,277.407471 550.151001,276.891663 
	C550.386292,276.713776 550.533020,276.567902 550.505127,276.516449 
	C550.394348,276.311676 550.229126,276.136353 550.093506,275.490448 
	C549.890259,274.155396 549.677612,273.279999 549.464966,272.404602 
z"/>
<path fill="#C0E0E0" opacity="1.000000" stroke="none" 
	d="
M566.054810,284.048248 
	C566.040710,283.548920 565.890991,283.007172 566.031921,282.556335 
	C570.782043,267.365906 560.095642,256.964600 554.375061,245.033035 
	C554.203430,244.675079 553.557007,244.544830 551.966125,243.660141 
	C551.966125,249.988647 552.097900,255.677399 551.910583,261.355621 
	C551.816650,264.203552 551.141663,267.032349 550.322876,269.922577 
	C549.875061,257.286835 549.833679,244.598282 550.202026,231.539505 
	C553.376892,231.259003 556.144653,231.299698 558.906616,231.447418 
	C568.318237,231.950836 568.154541,231.969299 568.391602,241.499359 
	C568.628723,251.029694 569.237244,260.550781 569.682861,270.075928 
	C569.663940,270.802246 569.645020,271.528564 569.153809,272.757599 
	C567.805908,276.856293 566.930420,280.452271 566.054810,284.048248 
z"/>
<path fill="#86B4B4" opacity="1.000000" stroke="none" 
	d="
M495.910767,175.732269 
	C493.558563,176.010147 491.206390,176.288025 488.451599,176.224564 
	C488.021179,175.590439 488.015778,175.297226 488.032776,175.003601 
	C495.571442,174.479935 495.308105,174.482452 495.232361,166.552628 
	C495.003418,142.591675 494.940857,118.628578 494.945557,94.666336 
	C494.946747,88.638214 497.860382,84.434471 502.135254,83.352547 
	C507.775482,81.925049 511.600922,83.423935 514.878723,89.403198 
	C522.001282,102.396187 531.096558,113.714706 542.175293,123.521622 
	C544.392883,125.484619 546.144531,127.973892 547.775146,130.506195 
	C542.953430,126.536316 538.467712,122.280769 533.819824,117.732094 
	C530.362854,113.990372 526.667908,110.835793 523.866821,107.024254 
	C519.666199,101.308113 516.298523,94.982040 512.135498,89.234825 
	C510.774780,87.356270 508.038849,86.473816 505.557465,85.089432 
	C501.060852,84.892593 499.057526,87.482841 497.443939,91.220154 
	C497.142853,98.069229 497.059052,104.556450 496.944336,111.508072 
	C496.939392,117.645592 496.965454,123.318718 496.974792,129.461121 
	C496.951141,143.291977 496.984711,156.653793 496.891815,170.014755 
	C496.878540,171.922775 496.252960,173.826538 495.910767,175.732269 
z"/>
<path fill="#01F7F7" opacity="1.000000" stroke="none" 
	d="
M829.781006,313.870728 
	C832.605591,313.894806 835.430176,313.918884 838.999390,314.115356 
	C849.519165,318.057434 851.124939,321.671570 847.841003,331.506622 
	C847.376221,332.898468 847.956787,334.891052 848.608582,336.359161 
	C851.055176,341.869446 850.364319,343.282471 844.456665,344.031433 
	C844.083130,343.621704 843.709595,343.211945 843.218628,342.236267 
	C842.987671,341.168579 842.874146,340.666779 842.760681,340.165009 
	C842.760681,340.165009 842.332275,339.976501 842.222046,339.406250 
	C842.425354,334.249481 839.131348,335.047089 836.355835,334.894043 
	C833.086853,334.713776 833.215088,336.780060 833.025208,339.114380 
	C832.888245,340.799133 831.916138,342.415924 831.316406,344.062988 
	C831.048035,344.060303 830.779541,344.057617 829.900818,344.003998 
	C828.983704,343.887238 828.684448,343.912476 828.392883,344.028809 
	C828.004517,343.637054 827.616150,343.245300 827.403442,342.318115 
	C827.709656,335.726074 827.963379,329.668457 827.914246,323.613281 
	C827.892517,320.936981 827.256836,318.265686 826.899902,315.592102 
	C827.291748,315.173126 827.683655,314.754150 828.496765,314.203918 
	C829.226379,314.094116 829.514099,314.026825 829.781006,313.870728 
M841.995850,322.025787 
	C841.995850,322.025787 841.898743,322.142059 841.608887,321.363525 
	C839.809143,321.243500 837.913330,320.728180 836.241516,321.134399 
	C835.008728,321.433960 833.331848,322.832031 833.176147,323.928497 
	C832.961243,325.441589 833.768860,328.379303 834.530823,328.515747 
	C836.982056,328.954681 839.739014,328.750000 842.081055,327.937408 
	C842.621765,327.749786 841.979919,324.153595 841.995850,322.025787 
z"/>
<path fill="#82ECEC" opacity="1.000000" stroke="none" 
	d="
M533.981934,118.025208 
	C538.467712,122.280769 542.953430,126.536316 547.773743,130.854950 
	C548.108276,130.918045 548.058289,130.943207 548.073181,131.186737 
	C548.366455,131.628067 548.644836,131.825867 548.923218,132.023651 
	C548.923218,132.023636 548.994690,132.024414 549.001404,132.283737 
	C549.138550,132.853363 549.370850,133.028412 549.705017,133.068207 
	C549.705017,133.068207 549.951538,133.114044 549.935669,133.537140 
	C550.610901,134.640854 551.301941,135.321472 551.992981,136.002075 
	C551.992981,136.002075 552.000000,136.000000 551.999878,136.236313 
	C552.112305,136.804062 552.342651,136.986832 552.690918,137.020935 
	C552.690918,137.020935 552.966431,137.107193 552.944092,137.531448 
	C553.527039,138.651031 554.132324,139.346359 554.737549,140.041687 
	C554.737549,140.041702 554.990173,140.149277 554.966064,140.446365 
	C555.051575,140.969757 555.232239,141.085419 555.483887,141.090439 
	C555.622620,141.233246 555.761414,141.376068 555.918823,142.115112 
	C556.541504,143.466675 557.145447,144.221985 557.749390,144.977295 
	C557.749390,144.977310 558.085999,145.332382 558.054626,145.949524 
	C558.593262,147.944077 559.182251,149.313950 559.730164,150.700073 
	C563.740112,160.844528 566.443604,171.172714 564.069580,181.751007 
	C563.038818,177.727859 562.549438,173.911255 560.953430,170.633514 
	C558.171753,164.920746 554.673584,159.559601 551.539185,154.015228 
	C547.686890,147.201004 543.654114,140.472382 540.167847,133.473404 
	C537.702820,128.524734 536.016113,123.188461 533.981934,118.025208 
z"/>
<path fill="#F0FFFF" opacity="1.000000" stroke="none" 
	d="
M549.924438,278.948242 
	C552.412048,281.561951 555.031128,284.065308 557.345520,286.824310 
	C559.188599,289.021454 560.659790,291.530609 562.645874,294.188446 
	C562.995667,294.475616 562.965881,294.939575 562.753662,295.073975 
	C562.409485,295.506531 562.277466,295.804718 562.103149,296.399994 
	C562.006592,297.093414 561.952209,297.489777 561.697510,298.029724 
	C561.246521,298.406982 561.095825,298.693298 561.023804,299.020966 
	C561.002441,299.009705 561.045532,299.040741 560.782898,299.188477 
	C560.371338,299.902405 560.222412,300.468567 560.041992,301.020721 
	C560.010620,301.006714 560.059326,301.055206 559.777893,301.230957 
	C559.302124,302.260284 559.107788,303.113861 558.863037,304.164062 
	C558.812683,304.360657 558.730286,304.758118 558.444092,304.879517 
	C557.786560,305.678986 557.415222,306.357025 556.777832,307.257446 
	C555.677246,309.658264 554.842773,311.836639 554.008240,314.015045 
	C553.948547,314.181396 553.888916,314.347778 553.332153,314.639404 
	C552.209717,315.136414 551.584412,315.508179 550.959167,315.879944 
	C548.763977,312.508209 546.650269,309.079132 544.335144,305.791840 
	C543.355835,304.401367 541.952881,303.309235 540.443787,301.699249 
	C542.504822,296.255707 544.864563,291.194397 547.421997,285.917847 
	C547.756653,285.142456 547.893555,284.582367 548.079346,283.805847 
	C548.128357,283.589386 548.198792,283.151215 548.378784,282.987885 
	C548.787476,282.570160 548.897400,282.271942 548.923035,281.628723 
	C549.014465,280.927307 549.071472,280.527130 549.317932,279.977051 
	C549.750305,279.584869 549.864136,279.292328 549.867859,278.933167 
	C549.886780,278.916779 549.924438,278.948242 549.924438,278.948242 
z"/>
<path fill="#C1E6E6" opacity="1.000000" stroke="none" 
	d="
M496.991486,128.991821 
	C496.965454,123.318718 496.939392,117.645592 497.317078,111.504532 
	C498.704590,111.527878 500.174377,111.758980 500.597931,112.550179 
	C505.500916,121.708687 510.245667,130.951889 515.211975,140.389679 
	C515.927795,140.747971 516.464050,140.889236 516.765259,141.283600 
	C516.111023,142.456619 515.691711,143.376541 515.272400,144.296448 
	C515.297241,161.900360 515.322021,179.504272 514.932129,197.529297 
	C514.326294,197.961960 514.135254,197.973495 513.667725,197.678680 
	C513.263000,183.272690 513.161316,169.172714 512.972961,155.073868 
	C512.949280,153.302734 512.933777,151.278397 512.118225,149.815155 
	C508.754639,143.780334 505.207916,137.835922 501.436707,132.048370 
	C500.529083,130.655426 498.503143,129.991180 496.991486,128.991821 
z"/>
<path fill="#01F7F7" opacity="1.000000" stroke="none" 
	d="
M637.964783,330.807678 
	C637.768738,331.028076 637.543152,331.212250 636.781372,331.643616 
	C632.074280,333.352020 627.873840,334.777069 623.113220,336.392181 
	C623.030212,338.007050 622.905762,340.429352 622.781250,342.851624 
	C622.781250,342.851624 622.884277,342.915924 622.576416,342.844482 
	C621.577759,343.226166 620.887024,343.679352 620.196289,344.132507 
	C619.205200,344.007080 618.214050,343.881653 617.102783,342.940399 
	C617.029053,333.130157 617.075500,324.135773 617.121948,315.141388 
	C623.971375,312.545532 630.431641,313.641663 636.823303,317.861176 
	C637.330872,322.618988 637.647827,326.713348 637.964783,330.807678 
M631.737488,326.725616 
	C631.851257,326.086761 632.283203,325.229645 632.021606,324.848297 
	C631.078247,323.473053 629.951904,321.265137 628.800903,321.206360 
	C626.892212,321.108917 624.139099,321.921844 623.210999,323.323883 
	C622.502686,324.393951 623.647034,328.241852 624.713928,328.594482 
	C626.607849,329.220428 629.903259,330.997498 631.040222,327.038055 
	C631.040222,327.038055 630.997986,327.066956 631.737488,326.725616 
z"/>
<path fill="#888F8F" opacity="1.000000" stroke="none" 
	d="
M808.320312,321.530701 
	C803.642456,322.025482 799.312439,322.357727 794.982483,322.689972 
	C794.986511,323.200409 794.990601,323.710846 794.994690,324.221252 
	C797.017944,324.350464 799.230286,324.014679 801.011658,324.738861 
	C802.814392,325.471741 805.063049,326.990753 805.558289,328.634766 
	C806.392334,331.403687 804.567200,333.343964 801.489685,333.603210 
	C799.419128,333.777649 797.345459,333.914368 795.273132,334.067963 
	C795.275574,334.621368 795.277954,335.174744 795.280334,335.728119 
	C798.244019,335.728119 801.207642,335.720459 804.171326,335.730164 
	C807.445923,335.740906 810.325439,336.373260 810.341614,340.500549 
	C810.358826,344.880646 807.216736,344.921967 804.054443,344.902832 
	C799.389282,344.874603 794.722290,344.819672 790.058960,344.915955 
	C786.524902,344.988892 784.730957,343.372009 784.712830,339.877991 
	C784.675720,332.713593 784.712952,325.548889 784.690918,318.384369 
	C784.680115,314.862305 786.477539,313.164520 789.911743,313.135742 
	C794.909729,313.093872 799.913147,312.959839 804.904968,313.133301 
	C810.548401,313.329468 811.828003,316.282379 808.320312,321.530701 
M792.984558,320.984680 
	C792.984558,320.984680 792.994507,320.963501 793.919678,321.069794 
	C798.543213,320.753571 803.166809,320.437378 808.424683,319.663727 
	C809.310303,317.254364 809.153320,315.136719 806.047058,315.051147 
	C799.802368,314.879211 793.549561,315.000031 787.225464,315.000031 
	C787.225464,324.629913 787.225464,333.523254 787.225464,343.016174 
	C793.576599,343.016174 799.676819,343.133789 805.763855,342.904114 
	C806.817200,342.864349 807.815063,341.353546 808.838562,340.522217 
	C807.831055,339.683044 806.880188,338.217224 805.805664,338.120178 
	C802.343567,337.807556 798.811707,338.230499 795.358887,337.870209 
	C794.165344,337.745667 793.124512,336.157410 792.013916,335.237762 
	C793.148376,334.162903 794.117249,332.695190 795.465271,332.126953 
	C796.737549,331.590637 798.560974,332.394775 799.864807,331.891388 
	C801.386841,331.303772 802.608398,329.937927 803.960327,328.909698 
	C802.538208,327.961792 801.226624,326.681732 799.662354,326.161011 
	C798.150452,325.657745 796.378174,325.936829 794.325500,325.344025 
	C793.871216,323.893616 793.416870,322.443176 792.984558,320.984680 
z"/>
<path fill="#01F7F7" opacity="1.000000" stroke="none" 
	d="
M747.644653,327.449768 
	C745.766113,324.723175 744.152466,322.265137 742.362000,319.943542 
	C740.550598,317.594879 741.751770,315.712067 743.664185,314.884644 
	C744.915466,314.343292 747.467834,314.800873 748.344116,315.784760 
	C750.792114,318.533264 752.671326,321.788361 755.040710,325.229431 
	C757.077209,322.092560 759.174561,319.274231 760.815979,316.211548 
	C762.305420,313.432465 764.515198,313.136597 766.346497,314.862183 
	C767.358704,315.815979 767.612000,318.611816 766.987244,320.045715 
	C765.769958,322.839752 763.820740,325.356445 761.944031,327.811768 
	C759.261169,331.321869 757.625305,335.036438 758.154114,339.585968 
	C758.444519,342.085358 758.060242,344.121063 754.590210,344.133850 
	C751.170593,344.146454 750.819702,342.224335 750.872925,339.645844 
	C750.960083,335.411865 751.482178,331.057922 747.644653,327.449768 
z"/>
<path fill="#86B4B4" opacity="1.000000" stroke="none" 
	d="
M564.112854,182.200150 
	C566.443604,171.172714 563.740112,160.844528 559.730164,150.700073 
	C559.182251,149.313950 558.593262,147.944077 558.088501,146.191803 
	C560.844849,153.712021 564.976990,161.436554 565.935791,169.536713 
	C568.126526,188.045059 562.384460,205.067368 552.781860,220.836380 
	C552.184082,221.818069 551.523682,222.761703 550.892456,223.723099 
	C550.396240,223.500549 549.900024,223.278000 549.403809,223.055450 
	C549.540100,220.033340 549.859985,217.006409 549.780823,213.989960 
	C549.432312,200.707153 549.599792,187.364243 548.280151,174.173187 
	C547.621643,167.591019 544.166931,161.288574 542.057861,154.364838 
	C542.138672,153.870071 542.409607,153.610962 542.562927,153.692017 
	C542.716248,153.773087 543.063965,153.798294 543.088562,153.848892 
	C543.113159,153.899490 543.170837,153.996048 543.240356,154.221924 
	C543.479797,154.736374 543.726379,154.924484 544.269043,155.276413 
	C545.370911,157.699051 546.253418,159.857407 547.137451,162.304382 
	C547.421692,163.071014 547.704407,163.549026 548.018311,164.283173 
	C548.084106,164.707809 548.118652,164.876328 548.137573,165.365967 
	C548.416077,166.449097 548.710205,167.211105 549.030579,168.234497 
	C549.089661,168.667908 549.122559,168.839935 549.144897,169.308167 
	C549.400024,170.113464 549.665710,170.622543 549.937744,171.453094 
	C549.997925,172.199753 550.051697,172.624924 550.084717,173.382080 
	C550.336365,174.525238 550.608704,175.336411 550.891113,176.571579 
	C551.001160,178.690308 551.101135,180.385040 551.162964,182.467682 
	C551.419983,184.570755 551.715210,186.285919 551.999146,188.379913 
	C552.011719,189.515945 552.035522,190.273132 552.020752,191.492493 
	C552.005249,196.947266 552.028381,201.939850 552.017944,207.319199 
	C551.979248,208.482239 551.973999,209.258499 551.761230,210.226715 
	C551.674194,211.278183 551.794678,212.137726 551.902100,213.309174 
	C551.890137,214.037216 551.891235,214.453339 551.722412,215.001358 
	C551.345520,215.364883 551.277832,215.631836 551.288635,216.285812 
	C551.234680,217.112305 551.241516,217.587097 551.268921,218.267914 
	C551.289429,218.473953 551.596619,218.750854 551.596619,218.750854 
	C551.596619,218.750854 552.006592,218.693741 552.265869,218.497772 
	C555.358276,211.557205 558.191467,204.812607 561.254883,197.873734 
	C561.607788,197.103607 561.730591,196.527740 561.897156,195.643158 
	C561.953064,194.920517 561.965210,194.506622 562.004272,194.090836 
	C562.031189,194.088959 562.058228,194.042358 562.285522,193.862976 
	C562.620728,193.126465 562.728699,192.569351 562.891357,191.767151 
	C562.963318,191.355545 562.980408,191.189011 563.211243,190.837997 
	C563.501648,190.115265 563.578369,189.577026 563.722656,188.754639 
	C563.845215,188.283691 563.900146,188.096893 564.131470,187.846634 
	C564.379639,187.681610 564.532227,187.517609 564.509888,187.488571 
	C564.365540,187.301514 564.182983,187.143936 564.002319,186.574951 
	C564.032104,184.848877 564.072510,183.524521 564.112854,182.200150 
z"/>
<path fill="#888F8F" opacity="1.000000" stroke="none" 
	d="
M656.795837,317.037994 
	C655.909119,313.262787 658.877441,312.931335 660.910034,313.474457 
	C662.659607,313.941986 665.060791,315.956604 665.252747,317.522614 
	C665.835876,322.279907 665.726807,327.165955 665.431702,331.973907 
	C665.169983,336.238312 666.904480,337.662109 670.936096,337.272919 
	C672.906372,337.082672 675.022461,336.993988 676.875854,337.534210 
	C677.971497,337.853577 679.383057,339.485474 679.391602,340.537415 
	C679.402588,341.881836 678.197510,344.370026 677.421326,344.407806 
	C671.144653,344.713196 664.841675,344.658508 658.558655,344.410828 
	C657.830933,344.382141 657.176147,342.504059 656.912109,341.232300 
	C657.510681,341.001038 657.684631,341.020874 657.982666,341.440643 
	C663.583008,342.235413 669.055420,342.742920 674.538757,342.929901 
	C675.633606,342.967194 676.770081,341.780487 677.887390,341.158142 
	C676.684021,340.462311 675.547058,339.359528 674.264282,339.150055 
	C670.948914,338.608673 667.569214,338.461609 663.919556,338.130219 
	C663.919556,331.047821 664.027832,324.749847 663.820984,318.462250 
	C663.783142,317.313477 662.579346,315.406311 661.703430,315.277374 
	C660.528870,315.104401 659.149658,316.321991 657.593689,316.977356 
	C657.151306,317.020782 656.973572,317.029388 656.795837,317.037994 
z"/>
<path fill="#888F8F" opacity="1.000000" stroke="none" 
	d="
M707.123962,315.159241 
	C709.978455,311.699280 712.767883,313.220703 714.289978,316.053436 
	C718.285034,323.488190 721.957825,331.117981 725.264282,338.880798 
	C725.861450,340.282623 724.662048,343.360229 723.310852,344.478271 
	C721.007629,346.384094 718.810242,345.123535 717.220764,342.563049 
	C713.712158,336.910858 707.316772,337.049835 702.951660,342.325500 
	C701.845337,343.662537 699.235168,343.755157 697.215088,344.129211 
	C697.114197,343.838837 697.158264,343.791290 697.535156,343.840973 
	C699.251099,343.012695 701.340149,342.411713 701.786133,341.203979 
	C703.040833,337.806549 705.144836,337.119141 708.555969,336.814270 
	C714.376648,336.294098 718.560364,337.612396 719.836731,343.680267 
	C724.000671,342.938507 725.888916,341.913147 723.537109,337.723511 
	C720.239014,331.847900 717.444397,325.668732 714.756836,319.479431 
	C713.218445,315.936829 711.105835,314.237488 707.206604,315.216858 
	C707.181152,315.194763 707.123962,315.159241 707.123962,315.159241 
z"/>
<path fill="#BBBBBB" opacity="1.000000" stroke="none" 
	d="
M456.568817,239.890350 
	C454.609283,244.158173 451.608368,248.234543 450.141266,252.803421 
	C445.188202,268.228333 449.609161,281.079163 462.008301,291.654846 
	C451.391052,286.663208 444.832581,272.202179 446.851624,258.811584 
	C447.956268,251.485367 450.998505,245.174774 456.568817,239.890350 
z"/>
<path fill="#888F8F" opacity="1.000000" stroke="none" 
	d="
M569.901550,269.646118 
	C569.237244,260.550781 568.628723,251.029694 568.391602,241.499359 
	C568.154541,231.969299 568.318237,231.950836 558.906616,231.447418 
	C556.144653,231.299698 553.376892,231.259003 550.286621,231.076141 
	C550.071838,230.525085 550.167542,229.670776 550.294495,229.666092 
	C556.362915,229.442474 562.437073,229.169601 568.500122,229.320770 
	C569.116760,229.336151 570.161926,231.947266 570.172913,233.360275 
	C570.265381,245.311432 570.163696,257.264130 569.901550,269.646118 
z"/>
<path fill="#BBBBBB" opacity="1.000000" stroke="none" 
	d="
M562.965881,294.939575 
	C562.965881,294.939575 562.995667,294.475616 562.987427,294.243469 
	C562.979126,294.011292 563.029602,294.063934 563.266113,293.922668 
	C563.739502,293.535919 563.858582,293.242584 563.859802,292.901398 
	C563.859802,292.901398 563.938416,292.456207 564.227661,292.016754 
	C564.677979,290.717560 564.838989,289.857819 565.000000,288.998077 
	C565.038574,288.573669 565.077148,288.149261 565.353271,287.200897 
	C565.718872,286.108398 565.847046,285.539856 565.975220,284.971313 
	C565.975220,284.971313 566.014282,284.509369 566.034546,284.278809 
	C566.930420,280.452271 567.805908,276.856293 568.993713,273.084625 
	C568.736084,288.123108 563.350464,301.620209 554.341553,313.979675 
	C554.842773,311.836639 555.677246,309.658264 557.046509,307.123840 
	C557.964172,306.097900 558.347229,305.428009 558.730286,304.758118 
	C558.730286,304.758118 558.812683,304.360657 559.137756,303.977478 
	C559.661682,302.747925 559.860474,301.901550 560.059326,301.055206 
	C560.059326,301.055206 560.010620,301.006714 560.279053,300.849762 
	C560.713501,300.142120 560.879517,299.591431 561.045532,299.040741 
	C561.045532,299.040741 561.002441,299.009705 561.244568,298.898865 
	C561.623779,298.487366 561.760803,298.186768 561.897827,297.886139 
	C561.952209,297.489777 562.006592,297.093414 562.304199,296.257904 
	C562.789307,295.574463 562.928772,295.281403 562.965881,294.939575 
z"/>
<path fill="#888F8F" opacity="1.000000" stroke="none" 
	d="
M844.539124,344.265381 
	C850.364319,343.282471 851.055176,341.869446 848.608582,336.359161 
	C847.956787,334.891052 847.376221,332.898468 847.841003,331.506622 
	C851.124939,321.671570 849.519165,318.057434 839.466553,314.076935 
	C847.544373,312.915131 853.816956,321.116302 850.459412,329.099976 
	C849.189575,332.119507 849.068604,334.478424 850.281128,337.462494 
	C852.472595,342.856018 850.774780,344.782959 844.539124,344.265381 
z"/>
<path fill="#BBBBBB" opacity="1.000000" stroke="none" 
	d="
M489.451019,194.517380 
	C496.045746,193.024872 496.941376,193.740677 496.966675,200.700989 
	C496.992615,207.835281 496.992157,214.969681 497.057373,222.574799 
	C496.922668,225.197083 496.733887,227.348602 495.887390,229.803268 
	C494.712311,229.983932 494.194977,229.861450 493.677612,229.738953 
	C494.228455,227.932205 495.216522,226.134644 495.254669,224.317108 
	C495.422241,216.335709 495.027985,208.334396 495.419617,200.368927 
	C495.640625,195.873703 494.086823,194.257599 489.451019,194.517380 
z"/>
<path fill="#888F8F" opacity="1.000000" stroke="none" 
	d="
M826.614502,315.855194 
	C827.256836,318.265686 827.892517,320.936981 827.914246,323.613281 
	C827.963379,329.668457 827.709656,335.726074 827.240356,342.093414 
	C826.550659,339.382996 825.928589,336.363800 825.907043,333.340332 
	C825.866028,327.600952 826.168945,321.859100 826.614502,315.855194 
z"/>
<path fill="#BBBBBB" opacity="1.000000" stroke="none" 
	d="
M471.667816,193.998993 
	C474.390198,193.964615 476.811829,193.976746 479.543701,194.215775 
	C477.122375,194.876663 474.399170,195.374557 471.657776,195.733383 
	C461.108917,197.114090 451.554352,201.123230 442.207855,206.603470 
	C447.357971,203.479874 452.857849,200.386642 459.009827,197.132217 
	C460.451202,196.658005 461.240417,196.344971 462.029633,196.031937 
	C462.029633,196.031937 462.000641,195.999252 462.368103,196.016327 
	C463.833435,195.699387 464.931244,195.365341 466.029053,195.031281 
	C466.029053,195.031281 465.999420,195.000000 466.373108,195.019897 
	C467.881958,194.732742 469.017151,194.425690 470.152313,194.118652 
	C470.557251,194.094269 470.962158,194.069885 471.667816,193.998993 
z"/>
<path fill="#BBBBBB" opacity="1.000000" stroke="none" 
	d="
M547.224243,286.133118 
	C544.864563,291.194397 542.504822,296.255707 540.096375,301.663300 
	C539.613708,302.384827 539.179810,302.760040 538.455322,303.101501 
	C540.674866,297.360809 543.447754,291.751007 545.606812,285.914215 
	C547.149536,281.743683 547.868713,277.268494 549.210205,272.666931 
	C549.677612,273.279999 549.890259,274.155396 550.049316,275.743011 
	C549.991150,276.625824 549.986633,276.796417 549.982178,276.967041 
	C549.959595,277.407471 549.937012,277.847870 549.919434,278.618286 
	C549.924438,278.948242 549.886780,278.916779 549.670288,279.072540 
	C549.226624,279.484802 549.118164,279.784332 549.128479,280.126923 
	C549.071472,280.527130 549.014465,280.927307 548.727783,281.779114 
	C548.269104,282.495483 548.169373,282.802338 548.198792,283.151215 
	C548.198792,283.151215 548.128357,283.589386 547.839111,283.990173 
	C547.441284,284.971680 547.332764,285.552399 547.224243,286.133118 
z"/>
<path fill="#888F8F" opacity="1.000000" stroke="none" 
	d="
M695.162537,339.133118 
	C698.941711,331.222107 702.720886,323.311096 706.812012,315.279663 
	C707.123962,315.159241 707.181152,315.194763 707.164062,315.591309 
	C703.177368,323.715973 699.207764,331.444122 695.220215,339.160583 
	C695.202271,339.148926 695.162537,339.133118 695.162537,339.133118 
z"/>
<path fill="#BBBBBB" opacity="1.000000" stroke="none" 
	d="
M616.731323,315.180542 
	C617.075500,324.135773 617.029053,333.130157 616.941040,342.596558 
	C616.497742,342.408539 615.738220,341.742950 615.748413,341.089325 
	C615.882568,332.465118 616.125244,323.842651 616.731323,315.180542 
z"/>
<path fill="#86B4B4" opacity="1.000000" stroke="none" 
	d="
M513.944153,197.985016 
	C514.135254,197.973495 514.326294,197.961960 514.802490,197.984314 
	C515.195007,206.437881 515.302368,214.857544 515.184570,223.605194 
	C514.598389,218.249680 514.237366,212.566162 513.867676,205.983978 
	C513.887329,202.718552 513.915771,200.351776 513.944153,197.985016 
z"/>
<path fill="#BBBBBB" opacity="1.000000" stroke="none" 
	d="
M487.584290,174.873444 
	C488.015778,175.297226 488.021179,175.590439 488.058533,176.095154 
	C484.696991,176.476746 481.325958,176.646439 477.500793,176.843903 
	C476.286682,176.882080 475.526703,176.892487 474.131897,176.999146 
	C473.265411,177.356720 473.033783,177.618011 472.802155,177.879303 
	C468.205200,178.182922 463.608276,178.486511 459.029358,178.454605 
	C459.010040,177.906143 459.090271,177.755829 459.753418,177.762527 
	C460.785980,177.580841 461.353271,177.304794 461.920563,177.028732 
	C462.516174,176.832382 463.111786,176.636017 464.405396,176.612274 
	C466.048523,176.506531 466.993652,176.228165 467.938751,175.949799 
	C469.161072,175.757233 470.383392,175.564667 472.369995,175.591644 
	C474.393005,175.560211 475.651672,175.309235 476.910370,175.058258 
	C480.318848,174.953278 483.727295,174.848282 487.584290,174.873444 
z"/>
<path fill="#86B4B4" opacity="1.000000" stroke="none" 
	d="
M831.520386,344.220337 
	C831.916138,342.415924 832.888245,340.799133 833.025208,339.114380 
	C833.215088,336.780060 833.086853,334.713776 836.355835,334.894043 
	C839.131348,335.047089 842.425354,334.249481 842.073608,339.225281 
	C840.333191,338.635864 838.630981,337.657196 836.928772,336.678528 
	C836.275513,338.176270 835.807678,339.797791 834.914673,341.135498 
	C834.087708,342.374054 832.805847,343.308990 831.520386,344.220337 
z"/>
<path fill="#888F8F" opacity="1.000000" stroke="none" 
	d="
M623.162964,342.844849 
	C622.905762,340.429352 623.030212,338.007050 623.113220,336.392181 
	C627.873840,334.777069 632.074280,333.352020 636.642944,331.813477 
	C634.987610,333.272034 632.969788,336.148956 630.939270,336.157928 
	C625.952271,336.179962 624.075012,338.469086 623.162964,342.844849 
z"/>
<path fill="#E4F1F1" opacity="1.000000" stroke="none" 
	d="
M493.244110,229.650116 
	C494.194977,229.861450 494.712311,229.983932 495.634735,230.111237 
	C494.730316,230.739426 493.436676,231.858749 492.108643,231.901169 
	C486.044891,232.094818 479.971436,231.986221 473.732483,231.714233 
	C476.058960,230.882278 478.554443,230.322327 481.049927,229.762390 
	C484.970154,229.695343 488.890381,229.628296 493.244110,229.650116 
z"/>
<path fill="#86B4B4" opacity="1.000000" stroke="none" 
	d="
M514.049072,264.405609 
	C514.245239,264.016235 514.434448,264.011475 514.896362,264.085785 
	C513.662292,270.034515 512.155579,275.904175 510.323395,281.827209 
	C510.269897,280.778473 510.541840,279.676422 511.136078,278.081726 
	C511.576324,277.063477 511.694244,276.537933 511.812195,276.012360 
	C512.555481,272.271637 513.298828,268.530914 514.049072,264.405609 
z"/>
<path fill="#BBBBBB" opacity="1.000000" stroke="none" 
	d="
M480.728821,229.552155 
	C478.554443,230.322327 476.058960,230.882278 473.261871,231.691650 
	C472.960266,231.941071 472.976654,231.945831 472.719238,231.960968 
	C472.461823,231.976089 471.985657,232.121521 471.985657,232.121521 
	C469.214783,233.115829 466.443909,234.110138 463.304260,235.031448 
	C467.967316,230.621750 474.046356,229.542648 480.728821,229.552155 
z"/>
<path fill="#86B4B4" opacity="1.000000" stroke="none" 
	d="
M451.624878,180.063156 
	C451.296997,180.838943 450.703003,181.760681 449.864777,182.133987 
	C445.888580,183.904861 441.845734,185.526184 437.471069,187.100601 
	C441.825745,184.652390 446.536011,182.304382 451.624878,180.063156 
z"/>
<path fill="#86B4B4" opacity="1.000000" stroke="none" 
	d="
M515.601868,144.041992 
	C515.691711,143.376541 516.111023,142.456619 517.209595,141.283127 
	C521.939697,142.002655 525.990540,142.975739 530.041321,143.948822 
	C525.338013,143.895065 520.634644,143.841293 515.601868,144.041992 
z"/>
<path fill="#BBBBBB" opacity="1.000000" stroke="none" 
	d="
M541.115234,328.379913 
	C543.394043,325.381104 545.988892,322.434082 548.987549,319.204834 
	C549.736877,318.918762 550.082458,318.914886 550.428040,318.911011 
	C547.429077,322.084595 544.430176,325.258148 541.115234,328.379913 
z"/>
<path fill="#888F8F" opacity="1.000000" stroke="none" 
	d="
M638.273193,330.684265 
	C637.647827,326.713348 637.330872,322.618988 637.032349,318.223572 
	C641.071228,320.918579 641.558899,324.944702 638.273193,330.684265 
z"/>
<path fill="#BBBBBB" opacity="1.000000" stroke="none" 
	d="
M656.714111,317.498413 
	C656.973572,317.029388 657.151306,317.020782 657.651489,317.450043 
	C657.935547,325.605530 657.897095,333.323120 657.858643,341.040710 
	C657.684631,341.020874 657.510681,341.001038 657.074097,340.973145 
	C656.751892,333.296356 656.692139,325.627625 656.714111,317.498413 
z"/>
<path fill="#82ECEC" opacity="1.000000" stroke="none" 
	d="
M530.220581,144.082291 
	C525.990540,142.975739 521.939697,142.002655 517.444580,141.030029 
	C516.464050,140.889236 515.927795,140.747971 515.664673,140.334183 
	C519.291809,140.048203 522.645935,140.034760 526.337891,140.066193 
	C528.163940,141.226913 529.652039,142.342773 531.046326,143.640533 
	C530.952454,143.822433 530.846863,144.217972 530.846863,144.217972 
	C530.846863,144.217972 530.399902,144.215759 530.220581,144.082291 
z"/>
<path fill="#86B4B4" opacity="1.000000" stroke="none" 
	d="
M539.825134,151.161285 
	C538.569641,150.047089 537.314148,148.932892 536.051392,147.389313 
	C536.044067,146.959930 536.314636,146.670334 536.597107,146.773834 
	C537.277771,146.941757 537.676025,147.006210 538.289673,147.224762 
	C538.983887,147.893494 539.462524,148.408096 539.969116,149.219360 
	C540.122070,149.889862 540.247070,150.263687 540.235718,150.768860 
	C540.099365,150.900177 539.825134,151.161285 539.825134,151.161285 
z"/>
<path fill="#86B4B4" opacity="1.000000" stroke="none" 
	d="
M535.910278,147.106079 
	C534.238098,146.427948 532.699646,145.603653 531.004028,144.498657 
	C530.846863,144.217972 530.952454,143.822433 531.242554,143.697159 
	C531.532593,143.571884 531.936218,143.639862 532.252930,143.791473 
	C533.034302,143.972885 533.498962,144.002670 533.979126,144.045502 
	C533.994690,144.058548 534.035278,144.056091 534.118530,144.260498 
	C534.393799,144.712524 534.646057,144.848022 534.975220,144.900452 
	C534.991882,144.929504 535.039429,144.976700 535.132568,145.199036 
	C535.431213,145.691696 535.701660,145.852844 536.048218,145.925659 
	C536.059143,145.946503 536.104370,145.959763 536.131470,146.144928 
	C536.158630,146.330093 536.314636,146.670334 536.314636,146.670334 
	C536.314636,146.670334 536.044067,146.959930 535.910278,147.106079 
z"/>
<path fill="#86B4B4" opacity="1.000000" stroke="none" 
	d="
M473.947510,297.523743 
	C475.054810,297.203308 476.259735,297.163574 477.681396,297.420197 
	C476.613800,297.745880 475.329468,297.775177 473.947510,297.523743 
z"/>
<path fill="#86B4B4" opacity="1.000000" stroke="none" 
	d="
M484.280212,297.939270 
	C485.238708,297.450165 486.381073,297.191925 487.856934,297.111023 
	C486.948334,297.582275 485.706238,297.876190 484.280212,297.939270 
z"/>
<path fill="#86B4B4" opacity="1.000000" stroke="none" 
	d="
M476.655212,174.912354 
	C475.651672,175.309235 474.393005,175.560211 472.734985,175.674362 
	C473.690430,175.280518 475.045227,175.023483 476.655212,174.912354 
z"/>
<path fill="#BBBBBB" opacity="1.000000" stroke="none" 
	d="
M461.823975,235.382690 
	C461.276062,236.305466 460.411072,237.180710 459.218018,237.992737 
	C459.762268,237.064728 460.634613,236.199936 461.823975,235.382690 
z"/>
<path fill="#BBBBBB" opacity="1.000000" stroke="none" 
	d="
M550.914978,316.105164 
	C551.584412,315.508179 552.209717,315.136414 553.111572,314.786316 
	C552.804443,315.844299 552.220825,316.880615 551.251648,317.676208 
	C550.820679,317.212708 550.775269,316.989960 550.729858,316.767242 
	C550.729858,316.767242 550.870789,316.330414 550.914978,316.105164 
z"/>
<path fill="#86B4B4" opacity="1.000000" stroke="none" 
	d="
M542.003418,153.999817 
	C541.228943,153.344116 540.589722,152.558670 539.887817,151.467255 
	C539.825134,151.161285 540.099365,150.900177 540.407104,150.845337 
	C540.714905,150.790497 541.091553,150.810074 541.276978,150.976196 
	C541.695984,151.381500 541.891541,151.648605 542.066772,152.230484 
	C542.192993,152.881882 542.301270,153.246414 542.409607,153.610962 
	C542.409607,153.610962 542.138672,153.870071 542.003418,153.999817 
z"/>
<path fill="#86B4B4" opacity="1.000000" stroke="none" 
	d="
M467.697998,175.836700 
	C466.993652,176.228165 466.048523,176.506531 464.720764,176.642853 
	C465.377838,176.241745 466.417542,175.982681 467.697998,175.836700 
z"/>
<path fill="#86B4B4" opacity="1.000000" stroke="none" 
	d="
M557.857056,144.666306 
	C557.145447,144.221985 556.541504,143.466675 555.973389,142.408752 
	C556.661072,142.855881 557.312927,143.605606 557.857056,144.666306 
z"/>
<path fill="#86B4B4" opacity="1.000000" stroke="none" 
	d="
M552.032227,135.672989 
	C551.301941,135.321472 550.610901,134.640854 549.911499,133.660141 
	C550.625916,134.021332 551.348755,134.682617 552.032227,135.672989 
z"/>
<path fill="#888F8F" opacity="1.000000" stroke="none" 
	d="
M620.371460,344.347900 
	C620.887024,343.679352 621.577759,343.226166 622.591187,342.785583 
	C622.124817,343.386536 621.335754,343.974915 620.371460,344.347900 
z"/>
<path fill="#86B4B4" opacity="1.000000" stroke="none" 
	d="
M554.844482,139.729645 
	C554.132324,139.346359 553.527039,138.651031 552.930176,137.675140 
	C553.609497,138.068924 554.280518,138.743256 554.844482,139.729645 
z"/>
<path fill="#86B4B4" opacity="1.000000" stroke="none" 
	d="
M461.733337,176.910065 
	C461.353271,177.304794 460.785980,177.580841 459.889740,177.775269 
	C460.222565,177.392899 460.884338,177.092148 461.733337,176.910065 
z"/>
<path fill="#86B4B4" opacity="1.000000" stroke="none" 
	d="
M508.280212,284.861786 
	C507.974884,284.866852 507.669525,284.488159 507.806335,284.052856 
	C507.943176,283.617523 508.082458,283.141632 508.082458,283.141632 
	C508.366638,282.972595 508.658356,282.817688 509.195740,282.745239 
	C509.151154,283.494659 508.868347,284.175690 508.280212,284.861786 
z"/>
<path fill="#BBBBBB" opacity="1.000000" stroke="none" 
	d="
M536.757080,305.145355 
	C536.787476,305.811615 536.513916,306.489380 535.940979,307.181519 
	C535.912170,306.516174 536.182678,305.836517 536.757080,305.145355 
z"/>
<path fill="#86B4B4" opacity="1.000000" stroke="none" 
	d="
M454.947388,180.011108 
	C454.486786,180.053696 454.026154,180.096283 453.250061,179.996918 
	C453.485138,179.472870 454.035675,179.090790 454.782166,179.083389 
	C454.967804,179.642410 454.957581,179.826767 454.947388,180.011108 
z"/>
<path fill="#BBBBBB" opacity="1.000000" stroke="none" 
	d="
M455.132751,180.227707 
	C454.957581,179.826767 454.967804,179.642410 454.985504,179.181351 
	C455.651123,178.688263 456.309296,178.471893 457.297913,178.372375 
	C456.858246,179.140930 456.088165,179.792618 455.132751,180.227707 
z"/>
<path fill="#C0E0E0" opacity="1.000000" stroke="none" 
	d="
M550.441284,316.872833 
	C550.775269,316.989960 550.820679,317.212708 550.947815,317.766724 
	C550.982727,318.273132 550.935974,318.448303 550.658630,318.767273 
	C550.082458,318.914886 549.736877,318.918762 549.130005,318.908295 
	C549.296692,318.255463 549.724731,317.616943 550.441284,316.872833 
z"/>
<path fill="#C1E6E6" opacity="1.000000" stroke="none" 
	d="
M501.374115,291.123260 
	C501.476013,290.585938 501.871948,290.085510 502.480408,289.726959 
	C502.351349,290.299255 502.009735,290.729706 501.374115,291.123260 
z"/>
<path fill="#888F8F" opacity="1.000000" stroke="none" 
	d="
M695.074707,341.974854 
	C694.947510,341.140991 694.820374,340.307098 694.927856,339.303162 
	C695.162537,339.133118 695.202271,339.148926 695.173584,339.493347 
	C695.163940,340.507446 695.182983,341.177155 695.167847,341.876587 
	C695.133728,341.906281 695.074707,341.974854 695.074707,341.974854 
z"/>
<path fill="#86B4B4" opacity="1.000000" stroke="none" 
	d="
M842.748657,340.374939 
	C842.874146,340.666779 842.987671,341.168579 843.052979,341.853790 
	C842.915405,341.553131 842.825989,341.069000 842.748657,340.374939 
z"/>
<path fill="#888F8F" opacity="1.000000" stroke="none" 
	d="
M697.087280,343.856934 
	C696.463867,343.426910 695.867371,342.978790 695.172791,342.252777 
	C695.074707,341.974854 695.133728,341.906281 695.423767,341.996338 
	C696.195251,342.654694 696.676758,343.222992 697.158264,343.791290 
	C697.158264,343.791290 697.114197,343.838837 697.087280,343.856934 
z"/>
<path fill="#888F8F" opacity="1.000000" stroke="none" 
	d="
M829.697876,313.705078 
	C829.514099,314.026825 829.226379,314.094116 828.707153,314.005035 
	C828.869141,313.804779 829.242004,313.672089 829.697876,313.705078 
z"/>
<path fill="#888F8F" opacity="1.000000" stroke="none" 
	d="
M828.421204,344.213623 
	C828.684448,343.912476 828.983704,343.887238 829.499512,344.037598 
	C829.288696,344.214233 828.869141,344.306366 828.421204,344.213623 
z"/>
<path fill="#C1E6E6" opacity="1.000000" stroke="none" 
	d="
M498.325897,293.197205 
	C498.402222,292.752045 498.709869,292.396942 499.055481,292.301300 
	C499.136475,292.966583 498.957733,293.208771 498.325897,293.197205 
z"/>
<path fill="#86B4B4" opacity="1.000000" stroke="none" 
	d="
M555.571716,140.866806 
	C555.232239,141.085419 555.051575,140.969757 554.933838,140.579803 
	C554.925720,140.416168 555.376099,140.258926 555.376099,140.258926 
	C555.376099,140.258926 555.659546,140.643173 555.571716,140.866806 
z"/>
<path fill="#86B4B4" opacity="1.000000" stroke="none" 
	d="
M548.973938,131.730743 
	C548.644836,131.825867 548.366455,131.628067 548.079712,131.160370 
	C548.389099,131.072906 548.706848,131.255371 548.973938,131.730743 
z"/>
<path fill="#86B4B4" opacity="1.000000" stroke="none" 
	d="
M552.792542,136.759201 
	C552.342651,136.986832 552.112305,136.804062 551.998291,136.239960 
	C552.295898,136.170685 552.595032,136.334076 552.792542,136.759201 
z"/>
<path fill="#86B4B4" opacity="1.000000" stroke="none" 
	d="
M549.790771,132.800446 
	C549.370850,133.028412 549.138550,132.853363 548.988159,132.316925 
	C549.270996,132.238098 549.573792,132.385391 549.790771,132.800446 
z"/>
<path fill="#E4F1F1" opacity="1.000000" stroke="none" 
	d="
M465.659821,195.013000 
	C464.931244,195.365341 463.833435,195.699387 462.375885,196.036606 
	C463.107635,195.691422 464.199127,195.343063 465.659821,195.013000 
z"/>
<path fill="#E4F1F1" opacity="1.000000" stroke="none" 
	d="
M469.771790,194.076035 
	C469.017151,194.425690 467.881958,194.732742 466.381287,195.039917 
	C467.140900,194.704514 468.266083,194.368973 469.771790,194.076035 
z"/>
<path fill="#E4F1F1" opacity="1.000000" stroke="none" 
	d="
M461.689270,196.015640 
	C461.240417,196.344971 460.451202,196.658005 459.330261,196.978271 
	C459.781982,196.656784 460.565430,196.328064 461.689270,196.015640 
z"/>
<path fill="#E4F1F1" opacity="1.000000" stroke="none" 
	d="
M473.065308,177.821915 
	C473.033783,177.618011 473.265411,177.356720 473.753540,177.028351 
	C473.782837,177.229034 473.555634,177.496780 473.065308,177.821915 
z"/>
<path fill="#C1E6E6" opacity="1.000000" stroke="none" 
	d="
M511.600342,276.181641 
	C511.694244,276.537933 511.576324,277.063477 511.228912,277.742371 
	C511.129120,277.380798 511.258789,276.865875 511.600342,276.181641 
z"/>
<path fill="#E4F1F1" opacity="1.000000" stroke="none" 
	d="
M472.098633,232.264252 
	C471.985657,232.121521 472.461823,231.976089 472.709839,231.957260 
	C472.709106,232.094620 472.460358,232.250809 472.098633,232.264252 
z"/>
<path fill="#C1E6E6" opacity="1.000000" stroke="none" 
	d="
M507.910278,283.157593 
	C508.082458,283.141632 507.943176,283.617523 507.787567,283.810333 
	C507.578430,283.796570 507.501129,283.591736 507.485870,283.382385 
	C507.481293,283.319214 507.649200,283.243530 507.910278,283.157593 
z"/>
<path fill="#E1FFFF" opacity="1.000000" stroke="none" 
	d="
M513.667725,197.678680 
	C513.915771,200.351776 513.887329,202.718552 513.783325,205.520721 
	C512.566772,205.473358 510.828583,205.308365 510.376740,204.459045 
	C505.457245,195.211777 500.739197,185.857361 495.938538,176.132202 
	C496.252960,173.826538 496.878540,171.922775 496.891815,170.014755 
	C496.984711,156.653793 496.951141,143.291977 496.974792,129.461121 
	C498.503143,129.991180 500.529083,130.655426 501.436707,132.048370 
	C505.207916,137.835922 508.754639,143.780334 512.118225,149.815155 
	C512.933777,151.278397 512.949280,153.302734 512.972961,155.073868 
	C513.161316,169.172714 513.263000,183.272690 513.667725,197.678680 
z"/>
<path fill="#C0E0E0" opacity="1.000000" stroke="none" 
	d="
M564.742188,289.209473 
	C564.838989,289.857819 564.677979,290.717560 564.266602,291.794098 
	C564.172302,291.147552 564.328308,290.284241 564.742188,289.209473 
z"/>
<path fill="#C0E0E0" opacity="1.000000" stroke="none" 
	d="
M565.735474,285.159790 
	C565.847046,285.539856 565.718872,286.108398 565.378784,286.882294 
	C565.276550,286.507843 565.386169,285.928040 565.735474,285.159790 
z"/>
<path fill="#C0E0E0" opacity="1.000000" stroke="none" 
	d="
M550.151001,276.891663 
	C549.986633,276.796417 549.991150,276.625824 550.039795,276.202667 
	C550.229126,276.136353 550.394348,276.311676 550.505127,276.516449 
	C550.533020,276.567902 550.386292,276.713776 550.151001,276.891663 
z"/>
<path fill="#C0E0E0" opacity="1.000000" stroke="none" 
	d="
M563.670776,293.047180 
	C563.858582,293.242584 563.739502,293.535919 563.301819,293.915161 
	C563.115784,293.713776 563.242737,293.428436 563.670776,293.047180 
z"/>
<path fill="#9CF4F4" opacity="1.000000" stroke="none" 
	d="
M542.048950,151.943634 
	C541.891541,151.648605 541.695984,151.381500 541.223145,150.692169 
	C540.636414,149.802246 540.288818,149.362473 539.941223,148.922699 
	C539.462524,148.408096 538.983887,147.893494 538.128357,146.968155 
	C537.202454,146.358200 536.653442,146.158981 536.104370,145.959763 
	C536.104370,145.959763 536.059143,145.946503 536.044067,145.664154 
	C536.010193,145.208160 535.991394,145.034485 535.975342,144.486572 
	C535.434998,142.394852 535.161987,140.527832 534.306396,138.983551 
	C527.383728,126.487930 520.216919,114.125847 513.416931,101.564789 
	C510.558777,96.285057 508.405579,90.623680 505.931854,85.135818 
	C508.038849,86.473816 510.774780,87.356270 512.135498,89.234825 
	C516.298523,94.982040 519.666199,101.308113 523.866821,107.024254 
	C526.667908,110.835793 530.362854,113.990372 533.819824,117.732086 
	C536.016113,123.188461 537.702820,128.524734 540.167847,133.473404 
	C543.654114,140.472382 547.686890,147.201004 551.539185,154.015228 
	C554.673584,159.559601 558.171753,164.920746 560.953430,170.633514 
	C562.549438,173.911255 563.038818,177.727859 564.069580,181.751007 
	C564.072510,183.524521 564.032104,184.848877 563.989136,186.808487 
	C563.986511,187.443726 563.955078,187.910095 563.955078,187.910095 
	C563.900146,188.096893 563.845215,188.283691 563.539917,188.951599 
	C563.192200,189.962616 563.094849,190.492554 562.997559,191.022491 
	C562.980408,191.189011 562.963318,191.355545 562.672058,191.951599 
	C562.284729,192.934860 562.171448,193.488602 562.058228,194.042358 
	C562.058228,194.042358 562.031189,194.088959 561.659912,194.018906 
	C559.530212,191.636246 557.885132,189.223602 555.968506,187.050537 
	C554.907715,185.847778 553.392212,185.046005 552.039307,183.780518 
	C551.731689,183.024948 551.466431,182.552353 551.201111,182.079773 
	C551.101135,180.385040 551.001160,178.690308 550.927124,176.226669 
	C550.670593,174.655212 550.388062,173.852661 550.105469,173.050110 
	C550.051697,172.624924 549.997925,172.199753 549.955200,171.148529 
	C549.695984,170.018967 549.425781,169.515457 549.155518,169.011932 
	C549.122559,168.839935 549.089661,168.667908 549.036682,167.909821 
	C548.728760,166.564117 548.440979,165.804474 548.153198,165.044846 
	C548.118652,164.876328 548.084106,164.707809 548.013184,163.991547 
	C547.696472,162.967804 547.416199,162.491791 547.135925,162.015778 
	C546.253418,159.857407 545.370911,157.699051 544.177856,155.061646 
	C543.707458,154.301102 543.475342,154.105591 543.170837,153.996048 
	C543.170837,153.996048 543.113159,153.899490 543.051880,153.575134 
	C542.676697,152.815079 542.362854,152.379349 542.048950,151.943634 
z"/>
<path fill="#B9FFFF" opacity="1.000000" stroke="none" 
	d="
M526.000000,140.021332 
	C522.645935,140.034760 519.291809,140.048203 515.485107,140.117126 
	C510.245667,130.951889 505.500916,121.708687 500.597931,112.550179 
	C500.174377,111.758980 498.704590,111.527878 497.348022,111.040123 
	C497.059052,104.556450 497.142853,98.069229 497.826599,91.288330 
	C500.006500,92.788872 501.925323,94.386940 503.099762,96.415886 
	C506.050537,101.513733 508.680603,106.798065 511.410797,112.022522 
	C516.284973,121.349655 521.138123,130.687790 526.000000,140.021332 
z"/>
<path fill="#ACFFFF" opacity="1.000000" stroke="none" 
	d="
M526.337891,140.066193 
	C521.138123,130.687790 516.284973,121.349655 511.410797,112.022522 
	C508.680603,106.798065 506.050537,101.513733 503.099762,96.415886 
	C501.925323,94.386940 500.006500,92.788872 498.043915,90.926460 
	C499.057526,87.482841 501.060852,84.892593 505.557465,85.089432 
	C508.405579,90.623680 510.558777,96.285057 513.416931,101.564789 
	C520.216919,114.125847 527.383728,126.487930 534.306396,138.983551 
	C535.161987,140.527832 535.434998,142.394852 535.741577,144.511841 
	C535.505188,144.911377 535.039429,144.976700 535.039429,144.976700 
	C535.039429,144.976700 534.991882,144.929504 534.887085,144.701965 
	C534.591675,144.230789 534.342651,144.091354 534.035278,144.056091 
	C534.035278,144.056091 533.994690,144.058548 533.870789,143.803940 
	C533.143311,143.579514 532.539795,143.609680 531.936218,143.639862 
	C531.936218,143.639862 531.532593,143.571884 531.336426,143.515259 
	C529.652039,142.342773 528.163940,141.226913 526.337891,140.066193 
z"/>
<path fill="#888F8F" opacity="1.000000" stroke="none" 
	d="
M841.882263,322.125946 
	C841.979919,324.153595 842.621765,327.749786 842.081055,327.937408 
	C839.739014,328.750000 836.982056,328.954681 834.530823,328.515747 
	C833.768860,328.379303 832.961243,325.441589 833.176147,323.928497 
	C833.331848,322.832031 835.008728,321.433960 836.241516,321.134399 
	C837.913330,320.728180 839.809143,321.243500 841.346924,321.907501 
	C840.274963,322.331787 839.423462,321.996490 838.664551,322.142456 
	C837.500061,322.366333 835.839905,322.623199 835.418396,323.414154 
	C834.934448,324.322113 835.140137,326.457581 835.823486,326.926147 
	C836.847778,327.628479 839.309448,327.963348 839.809082,327.351440 
	C840.938965,325.967957 841.242554,323.909729 841.882263,322.125946 
z"/>
<path fill="#C0E0E0" opacity="1.000000" stroke="none" 
	d="
M558.444092,304.879517 
	C558.347229,305.428009 557.964172,306.097900 557.312500,306.901428 
	C557.415222,306.357025 557.786560,305.678986 558.444092,304.879517 
z"/>
<path fill="#C0E0E0" opacity="1.000000" stroke="none" 
	d="
M559.777893,301.230957 
	C559.860474,301.901550 559.661682,302.747925 559.188110,303.780853 
	C559.107788,303.113861 559.302124,302.260284 559.777893,301.230957 
z"/>
<path fill="#C0E0E0" opacity="1.000000" stroke="none" 
	d="
M560.782837,299.188477 
	C560.879517,299.591431 560.713501,300.142120 560.310425,300.863770 
	C560.222412,300.468567 560.371338,299.902405 560.782837,299.188477 
z"/>
<path fill="#C0E0E0" opacity="1.000000" stroke="none" 
	d="
M547.421997,285.917847 
	C547.332764,285.552399 547.441284,284.971680 547.790100,284.206635 
	C547.893555,284.582367 547.756653,285.142456 547.421997,285.917847 
z"/>
<path fill="#C0E0E0" opacity="1.000000" stroke="none" 
	d="
M549.317932,279.977051 
	C549.118164,279.784332 549.226624,279.484802 549.651367,279.088928 
	C549.864136,279.292328 549.750305,279.584869 549.317932,279.977051 
z"/>
<path fill="#C0E0E0" opacity="1.000000" stroke="none" 
	d="
M548.378784,282.987885 
	C548.169373,282.802338 548.269104,282.495483 548.693359,282.080322 
	C548.897400,282.271942 548.787476,282.570160 548.378784,282.987885 
z"/>
<path fill="#C0E0E0" opacity="1.000000" stroke="none" 
	d="
M562.753662,295.073975 
	C562.928772,295.281403 562.789307,295.574463 562.346436,295.960846 
	C562.277466,295.804718 562.409485,295.506531 562.753662,295.073975 
z"/>
<path fill="#C0E0E0" opacity="1.000000" stroke="none" 
	d="
M561.697510,298.029724 
	C561.760803,298.186768 561.623779,298.487366 561.265869,298.910095 
	C561.095825,298.693298 561.246521,298.406982 561.697510,298.029724 
z"/>
<path fill="#888F8F" opacity="1.000000" stroke="none" 
	d="
M631.068604,326.995544 
	C629.903259,330.997498 626.607849,329.220428 624.713928,328.594482 
	C623.647034,328.241852 622.502686,324.393951 623.210999,323.323883 
	C624.139099,321.921844 626.892212,321.108917 628.800903,321.206360 
	C629.951904,321.265137 631.078247,323.473053 632.021606,324.848297 
	C632.283203,325.229645 631.851257,326.086761 631.389099,326.449036 
	C631.482117,322.886322 629.417297,322.023071 626.870422,322.456268 
	C625.942078,322.614166 625.277466,324.321991 624.492554,325.322693 
	C626.201843,325.964478 627.896667,326.650360 629.630920,327.215576 
	C630.042480,327.349731 630.585876,327.079681 631.068604,326.995544 
z"/>
<path fill="#01F7F7" opacity="1.000000" stroke="none" 
	d="
M794.720276,325.872253 
	C796.378174,325.936829 798.150452,325.657745 799.662354,326.161011 
	C801.226624,326.681732 802.538208,327.961792 803.960327,328.909729 
	C802.608398,329.937927 801.386841,331.303772 799.864807,331.891388 
	C798.560974,332.394775 796.737549,331.590637 795.465271,332.126953 
	C794.117249,332.695190 793.148376,334.162903 792.013916,335.237732 
	C793.124512,336.157410 794.165344,337.745667 795.358887,337.870209 
	C798.811707,338.230499 802.343567,337.807556 805.805664,338.120178 
	C806.880188,338.217224 807.831055,339.683044 808.838562,340.522217 
	C807.815063,341.353546 806.817200,342.864349 805.763855,342.904114 
	C799.676819,343.133789 793.576599,343.016174 787.225464,343.016174 
	C787.225464,333.523254 787.225464,324.629913 787.225464,315.000031 
	C793.549561,315.000031 799.802368,314.879211 806.047058,315.051147 
	C809.153320,315.136719 809.310303,317.254364 807.664673,319.841522 
	C802.267883,320.334045 797.631226,320.648773 792.994507,320.963501 
	C792.994507,320.963501 792.984558,320.984680 792.628296,321.160431 
	C792.376709,323.232178 790.247070,326.334076 794.720276,325.872253 
z"/>
<path fill="#BBBBBB" opacity="1.000000" stroke="none" 
	d="
M793.457092,321.016663 
	C797.631226,320.648773 802.267883,320.334045 807.347473,320.070251 
	C803.166809,320.437378 798.543213,320.753571 793.457092,321.016663 
z"/>
<path fill="#BBBBBB" opacity="1.000000" stroke="none" 
	d="
M794.522888,325.608154 
	C790.247070,326.334076 792.376709,323.232178 792.617310,321.164490 
	C793.416870,322.443176 793.871216,323.893616 794.522888,325.608154 
z"/>
<path fill="#B9FFFF" opacity="1.000000" stroke="none" 
	d="
M552.081665,184.063507 
	C553.392212,185.046005 554.907715,185.847778 555.968506,187.050537 
	C557.885132,189.223602 559.530212,191.636246 561.633057,194.020782 
	C561.965210,194.506622 561.953064,194.920517 561.664551,195.832794 
	C561.267090,196.910126 561.145874,197.489075 561.024658,198.068008 
	C558.191467,204.812607 555.358276,211.557205 552.169800,218.361511 
	C551.658875,218.249268 551.470215,218.129486 551.248413,218.061874 
	C551.241516,217.587097 551.234680,217.112305 551.443176,216.149704 
	C551.836121,215.427231 551.914001,215.163101 551.892334,214.869476 
	C551.891235,214.453339 551.890137,214.037216 551.944336,212.940369 
	C551.989319,211.518021 551.979004,210.776398 551.968750,210.034775 
	C551.973999,209.258499 551.979248,208.482239 552.306213,207.031906 
	C552.438416,201.248672 552.248901,196.139481 552.059326,191.030304 
	C552.035522,190.273132 552.011719,189.515945 552.026367,187.985809 
	C552.070435,186.163055 552.076050,185.113266 552.081665,184.063507 
z"/>
<path fill="#9CF4F4" opacity="1.000000" stroke="none" 
	d="
M552.020752,191.492493 
	C552.248901,196.139481 552.438416,201.248672 552.339722,206.645142 
	C552.028381,201.939850 552.005249,196.947266 552.020752,191.492493 
z"/>
<path fill="#82ECEC" opacity="1.000000" stroke="none" 
	d="
M552.039307,183.780518 
	C552.076050,185.113266 552.070435,186.163055 552.037598,187.606949 
	C551.715210,186.285919 551.419983,184.570755 551.162964,182.467682 
	C551.466431,182.552353 551.731689,183.024948 552.039307,183.780518 
z"/>
<path fill="#82ECEC" opacity="1.000000" stroke="none" 
	d="
M551.761230,210.226715 
	C551.979004,210.776398 551.989319,211.518021 551.957397,212.628448 
	C551.794678,212.137726 551.674194,211.278183 551.761230,210.226715 
z"/>
<path fill="#82ECEC" opacity="1.000000" stroke="none" 
	d="
M550.084717,173.382080 
	C550.388062,173.852661 550.670593,174.655212 550.917053,175.802673 
	C550.608704,175.336411 550.336365,174.525238 550.084717,173.382080 
z"/>
<path fill="#82ECEC" opacity="1.000000" stroke="none" 
	d="
M548.137573,165.365967 
	C548.440979,165.804474 548.728760,166.564117 549.010437,167.648438 
	C548.710205,167.211105 548.416077,166.449097 548.137573,165.365967 
z"/>
<path fill="#82ECEC" opacity="1.000000" stroke="none" 
	d="
M563.211243,190.837997 
	C563.094849,190.492554 563.192200,189.962616 563.472290,189.235733 
	C563.578369,189.577026 563.501648,190.115265 563.211243,190.837997 
z"/>
<path fill="#82ECEC" opacity="1.000000" stroke="none" 
	d="
M562.285461,193.862976 
	C562.171448,193.488602 562.284729,192.934860 562.617310,192.196686 
	C562.728699,192.569351 562.620728,193.126465 562.285461,193.862976 
z"/>
<path fill="#82ECEC" opacity="1.000000" stroke="none" 
	d="
M561.254822,197.873734 
	C561.145874,197.489075 561.267090,196.910126 561.620850,196.141525 
	C561.730591,196.527740 561.607788,197.103607 561.254822,197.873734 
z"/>
<path fill="#82ECEC" opacity="1.000000" stroke="none" 
	d="
M549.144897,169.308167 
	C549.425781,169.515457 549.695984,170.018967 549.948792,170.827057 
	C549.665710,170.622543 549.400024,170.113464 549.144897,169.308167 
z"/>
<path fill="#82ECEC" opacity="1.000000" stroke="none" 
	d="
M547.137451,162.304382 
	C547.416199,162.491791 547.696472,162.967804 547.981934,163.735413 
	C547.704407,163.549026 547.421692,163.071014 547.137451,162.304382 
z"/>
<path fill="#82ECEC" opacity="1.000000" stroke="none" 
	d="
M542.066772,152.230469 
	C542.362854,152.379349 542.676697,152.815079 543.027222,153.524536 
	C543.063965,153.798294 542.716248,153.773087 542.562927,153.692017 
	C542.301270,153.246414 542.192993,152.881882 542.066772,152.230469 
z"/>
<path fill="#82ECEC" opacity="1.000000" stroke="none" 
	d="
M543.240356,154.221924 
	C543.475342,154.105591 543.707458,154.301102 543.958496,154.797363 
	C543.726379,154.924484 543.479797,154.736374 543.240356,154.221924 
z"/>
<path fill="#82ECEC" opacity="1.000000" stroke="none" 
	d="
M564.131470,187.846634 
	C563.955078,187.910095 563.986511,187.443726 563.999756,187.210205 
	C564.182983,187.143936 564.365540,187.301514 564.509888,187.488571 
	C564.532227,187.517609 564.379639,187.681610 564.131470,187.846634 
z"/>
<path fill="#9CF4F4" opacity="1.000000" stroke="none" 
	d="
M551.722412,215.001358 
	C551.914001,215.163101 551.836121,215.427231 551.504028,215.797989 
	C551.277832,215.631836 551.345520,215.364883 551.722412,215.001358 
z"/>
<path fill="#9CF4F4" opacity="1.000000" stroke="none" 
	d="
M551.268921,218.267914 
	C551.470215,218.129486 551.658875,218.249268 551.910522,218.557480 
	C552.006592,218.693741 551.596619,218.750854 551.596619,218.750854 
	C551.596619,218.750854 551.289429,218.473953 551.268921,218.267914 
z"/>
<path fill="#01F7F7" opacity="1.000000" stroke="none" 
	d="
M657.982727,341.440643 
	C657.897095,333.323120 657.935547,325.605530 657.916138,317.415253 
	C659.149658,316.321991 660.528870,315.104401 661.703430,315.277374 
	C662.579346,315.406311 663.783142,317.313477 663.820984,318.462250 
	C664.027832,324.749847 663.919556,331.047821 663.919556,338.130219 
	C667.569214,338.461609 670.948914,338.608673 674.264282,339.150055 
	C675.547058,339.359528 676.684021,340.462311 677.887390,341.158142 
	C676.770081,341.780487 675.633606,342.967194 674.538757,342.929901 
	C669.055420,342.742920 663.583008,342.235413 657.982727,341.440643 
z"/>
<path fill="#01F7F7" opacity="1.000000" stroke="none" 
	d="
M697.535156,343.840973 
	C696.676758,343.222992 696.195251,342.654694 695.457886,341.966614 
	C695.182983,341.177155 695.163940,340.507446 695.191467,339.505005 
	C699.207764,331.444122 703.177368,323.715973 707.189514,315.613403 
	C711.105835,314.237488 713.218445,315.936829 714.756836,319.479431 
	C717.444397,325.668732 720.239014,331.847900 723.537109,337.723511 
	C725.888916,341.913147 724.000671,342.938507 719.836731,343.680267 
	C718.560364,337.612396 714.376648,336.294098 708.555969,336.814270 
	C705.144836,337.119141 703.040833,337.806549 701.786133,341.203979 
	C701.340149,342.411713 699.251099,343.012695 697.535156,343.840973 
z"/>
<path fill="#82ECEC" opacity="1.000000" stroke="none" 
	d="
M539.969116,149.219360 
	C540.288818,149.362473 540.636414,149.802246 541.037781,150.526047 
	C541.091553,150.810074 540.714905,150.790497 540.543457,150.714020 
	C540.247070,150.263687 540.122070,149.889862 539.969116,149.219360 
z"/>
<path fill="#82ECEC" opacity="1.000000" stroke="none" 
	d="
M536.131470,146.144928 
	C536.653442,146.158981 537.202454,146.358200 537.912842,146.814026 
	C537.676025,147.006210 537.277771,146.941757 536.597107,146.773834 
	C536.314636,146.670334 536.158630,146.330093 536.131470,146.144928 
z"/>
<path fill="#82ECEC" opacity="1.000000" stroke="none" 
	d="
M532.252930,143.791473 
	C532.539795,143.609680 533.143311,143.579514 533.855225,143.790894 
	C533.498962,144.002670 533.034302,143.972885 532.252930,143.791473 
z"/>
<path fill="#82ECEC" opacity="1.000000" stroke="none" 
	d="
M535.132568,145.199036 
	C535.039429,144.976700 535.505188,144.911377 535.738892,144.886093 
	C535.991394,145.034485 536.010193,145.208160 536.033081,145.643311 
	C535.701660,145.852844 535.431213,145.691696 535.132568,145.199036 
z"/>
<path fill="#9CF4F4" opacity="1.000000" stroke="none" 
	d="
M534.118530,144.260498 
	C534.342651,144.091354 534.591675,144.230789 534.870361,144.672913 
	C534.646057,144.848022 534.393799,144.712524 534.118530,144.260498 
z"/>
<path fill="#010101" opacity="1.000000" stroke="none" 
	d="
M841.939087,322.075867 
	C841.242554,323.909729 840.938965,325.967957 839.809082,327.351440 
	C839.309448,327.963348 836.847778,327.628479 835.823486,326.926147 
	C835.140137,326.457581 834.934448,324.322113 835.418396,323.414154 
	C835.839905,322.623199 837.500061,322.366333 838.664551,322.142456 
	C839.423462,321.996490 840.274963,322.331787 841.491821,322.296753 
	C841.898743,322.142059 841.995850,322.025787 841.939087,322.075867 
z"/>
<path fill="#010101" opacity="1.000000" stroke="none" 
	d="
M631.054443,327.016785 
	C630.585876,327.079681 630.042480,327.349731 629.630920,327.215576 
	C627.896667,326.650360 626.201843,325.964478 624.492554,325.322693 
	C625.277466,324.321991 625.942078,322.614166 626.870422,322.456268 
	C629.417297,322.023071 631.482117,322.886322 631.019348,326.619720 
	C630.997986,327.066956 631.040222,327.038055 631.054443,327.016785 
z"/>
</svg>